<?xml version="1.0" encoding="UTF-8" standalone="no"?>
<!-- Created with Inkscape (http://www.inkscape.org/) -->

<svg
   xmlns:dc="http://purl.org/dc/elements/1.1/"
   xmlns:cc="http://creativecommons.org/ns#"
   xmlns:rdf="http://www.w3.org/1999/02/22-rdf-syntax-ns#"
   xmlns:svg="http://www.w3.org/2000/svg"
   xmlns="http://www.w3.org/2000/svg"
   xmlns:sodipodi="http://sodipodi.sourceforge.net/DTD/sodipodi-0.dtd"
   xmlns:inkscape="http://www.inkscape.org/namespaces/inkscape"
   width="2050"
   height="700"
   id="svg2"
   version="1.1"
   inkscape:version="0.48.5 r10040"
   sodipodi:docname="knight-strike.svg"
   inkscape:export-filename="H:\AdventureTime\ProgrammingTime\team-project\Assets\Animation\knight-strike.png"
   inkscape:export-xdpi="90"
   inkscape:export-ydpi="90">
  <defs
     id="defs4" />
  <sodipodi:namedview
     id="base"
     pagecolor="#ffffff"
     bordercolor="#666666"
     borderopacity="1.0"
     inkscape:pageopacity="0.0"
     inkscape:pageshadow="2"
     inkscape:zoom="0.27793992"
     inkscape:cx="731.89587"
     inkscape:cy="-67.327952"
     inkscape:document-units="px"
     inkscape:current-layer="layer1"
     showgrid="true"
     inkscape:showpageshadow="false"
     inkscape:window-width="1215"
     inkscape:window-height="1002"
     inkscape:window-x="57"
     inkscape:window-y="-8"
     inkscape:window-maximized="1">
    <inkscape:grid
       type="xygrid"
       id="grid2985"
       empspacing="1"
       visible="true"
       enabled="true"
       snapvisiblegridlinesonly="true"
       spacingx="25px"
       spacingy="25px" />
  </sodipodi:namedview>
  <metadata
     id="metadata7">
    <rdf:RDF>
      <cc:Work
         rdf:about="">
        <dc:format>image/svg+xml</dc:format>
        <dc:type
           rdf:resource="http://purl.org/dc/dcmitype/StillImage" />
        <dc:title />
      </cc:Work>
    </rdf:RDF>
  </metadata>
  <g
     inkscape:label="Layer 1"
     inkscape:groupmode="layer"
     id="layer1"
     transform="translate(0,-352.36218)">
    <rect
       style="fill:#a8a8ff;fill-opacity:1;stroke:none;display:inline"
       id="rect3838"
       width="25"
       height="175"
       x="200"
       y="677.36218" />
    <path
       style="fill:#ff0000;stroke:#000000;stroke-width:1px;stroke-linecap:butt;stroke-linejoin:miter;stroke-opacity:1;display:inline"
       d="m 175,627.36218 25,0"
       id="path3901"
       inkscape:connector-curvature="0" />
    <path
       inkscape:connector-curvature="0"
       id="rect3905-4"
       style="fill:#000000;fill-opacity:1;stroke:none;display:inline"
       d="m 225,902.36218 25,0 0,25 -25,0 z m -50,0 25,0 0,25 -25,0 z m 0,-50 75,0 0,50 -75,0 z" />
    <rect
       style="fill:#ffffbb;fill-opacity:1;stroke:none;display:inline"
       id="rect3856-8"
       width="25"
       height="100"
       x="175"
       y="927.36218" />
    <rect
       style="fill:#ffffbb;fill-opacity:1;stroke:none;display:inline"
       id="rect3856-8-8"
       width="25"
       height="49.999996"
       x="227.5"
       y="927.36218" />
    <path
       inkscape:connector-curvature="0"
       id="rect3856-4"
       style="fill:#000000;fill-opacity:1;stroke:none;display:inline"
       d="m 162.5,1027.3622 12.5,0 0,25 -12.5,0 z m -12.5,0 12.5,0 0,25 -12.5,0 z" />
    <rect
       style="fill:#000000;fill-opacity:1;stroke:none;display:inline"
       id="rect3856-5"
       width="25"
       height="25"
       x="205.25"
       y="1027.3622" />
    <rect
       style="fill:#ffffbb;fill-opacity:1;stroke:none;display:inline"
       id="rect3856-51"
       width="25"
       height="25"
       x="230.25"
       y="1027.3622" />
    <rect
       style="fill:#ffffbb;fill-opacity:1;stroke:none;display:inline"
       id="rect3856-51-1"
       width="25"
       height="25"
       x="230.25"
       y="977.36218" />
    <rect
       style="fill:#ffffbb;fill-opacity:1;stroke:none;display:inline"
       id="rect3856-51-9"
       width="25"
       height="25"
       x="230.25"
       y="1002.3622" />
    <path
       id="rect4742-4"
       style="fill:#2b579b;fill-opacity:1;stroke:none;display:inline"
       d="m 275,852.36218 25,0 0,25 -25,0 z m 0,-25 25,0 0,25 -25,0 z m 0,-25 25,0 0,25 -25,0 z m 0,-25 25,0 0,25 -25,0 z m 0,-25 25,0 0,25 -25,0 z"
       inkscape:connector-curvature="0" />
    <path
       id="rect4742-32"
       style="fill:#5f8dd3;fill-opacity:1;stroke:none;display:inline"
       d="m 250,727.36218 25,0 0,25 -25,0 z m 25,0 25,0 0,25 -25,0 z m -25,-25 25,0 0,25 -25,0 z m -25,-25 25,0 0,175 -25,0 z"
       inkscape:connector-curvature="0" />
    <rect
       style="fill:#ffffbb;fill-opacity:1;stroke:none;display:inline"
       id="rect3856-51-9-7"
       width="25"
       height="25"
       x="275.25"
       y="877.36218" />
    <path
       id="rect4742-9"
       style="fill:#000000;fill-opacity:1;stroke:none;display:inline"
       d="m 250,577.36218 25,0 0,25 -25,0 z m 0,-100 25,0 0,25 -25,0 z m -100,0 25,0 0,25 -25,0 z m 50,50 25,0 0,25 -25,0 z m 75,-25 0,75 -25,0 0,-25 -25,0 0,-25 -25,0 0,25 -25,0 0,25 -25,0 0,-75 z m -100,75 25,0 0,-25 -25,0 z m 75,-75 25,0 m -125,0 25,0 m -25,25 125,0 0,25 0,25 -25,0 0,-25 -25,0 -75,0 z m 75,-25 25,0 0,-25 25,0 0,50 -50,0 z m -75,-25 25,0 0,25 25,0 0,25 -50,0 z"
       inkscape:connector-curvature="0" />
    <path
       id="rect3790"
       style="fill:#ffffbb;fill-opacity:1;stroke:none;display:inline"
       d="m 200,652.36218 25,0 0,25 -25,0 z m -25,-100 0,25 -25,0 0,25 25,0 0,25 0,25 75,0 0,-100 -75,0"
       inkscape:connector-curvature="0" />
    <rect
       style="fill:#ff0000;fill-opacity:1;stroke:none;display:inline"
       id="rect3796"
       width="25"
       height="25"
       x="175"
       y="552.36218" />
    <path
       inkscape:connector-curvature="0"
       id="rect3856-4-7"
       style="fill:#ffffbb;fill-opacity:1;stroke:none;display:inline"
       d="m 187.5,1027.3622 12.5,0 0,25 -12.5,0 z m -12.5,0 12.5,0 0,25 -12.5,0 z" />
    <path
       id="rect4742-32-5"
       style="fill:#5f8dd3;fill-opacity:1;stroke:none;display:inline"
       d="m 175,727.36218 -25,0 0,25 25,0 z m -25,0 -25,0 0,25 25,0 z m 25,-25 -25,0 0,25 25,0 z m 0,-25 25,0 0,175 -25,0 z"
       inkscape:connector-curvature="0" />
    <path
       id="rect4742-4-5-1"
       style="fill:#2b579b;fill-opacity:1;stroke:none;display:inline"
       d="m 125,822.36218 -25,0 0,5 25,0 z m 0,-5 -25,0 0,5 25,0 z m 0,-5 -25,0 0,5 25,0 z m 0,-5 -25,0 0,5 25,0 z m 0,-5 -25,0 0,5 25,0 z m 25,10 -25,0 0,15 25,0 z m 0,-15 -25,0 0,15 25,0 z m 0,-15 -25,0 0,15 25,0 z m 0,-15 -25,0 0,15 25,0 z m 0,-15 -25,0 0,15 25,0 z"
       inkscape:connector-curvature="0" />
    <rect
       style="fill:#ffffbb;fill-opacity:1;stroke:none;display:inline"
       id="rect3856-51-9-7-3"
       width="25"
       height="25"
       x="-99.75"
       y="802.36218"
       transform="scale(-1,1)" />
    <rect
       style="fill:#aa0000;fill-opacity:1;stroke:none;display:inline"
       id="rect3856-51-9-7-3-8"
       width="25"
       height="25"
       x="-99.75"
       y="777.36218"
       transform="scale(-1,1)" />
    <rect
       style="fill:#000000;fill-opacity:1;stroke:none;display:inline"
       id="rect3856-51-9-7-3-8-09"
       width="25"
       height="25"
       x="-74.75"
       y="777.36218"
       transform="scale(-1,1)" />
    <rect
       style="fill:#000000;fill-opacity:1;stroke:none;display:inline"
       id="rect3856-51-9-7-3-8-3"
       width="25"
       height="25"
       x="-124.75"
       y="777.36218"
       transform="scale(-1,1)" />
    <rect
       style="fill:#aa0000;fill-opacity:1;stroke:none;display:inline"
       id="rect3856-51-9-7-3-8-54"
       width="25"
       height="25"
       x="-99.75"
       y="827.36218"
       transform="scale(-1,1)" />
    <path
       id="rect3856-51-9-7-3-8-2"
       style="fill:#b3faff;fill-opacity:1;stroke:none;display:inline"
       d="m 99.75,602.36218 -25,0 0,25 25,0 z m 0,25 -25,0 0,25 25,0 z m 0,25 -25,0 0,25 25,0 z m 0,25 -25,0 0,25 25,0 z m 0,25 -25,0 0,25 25,0 z m 0,25 -25,0 0,25 25,0 z m 0,25 -25,0 0,25 25,0 z"
       inkscape:connector-curvature="0" />
    <rect
       y="677.36218"
       x="500"
       height="175"
       width="25"
       id="rect6288"
       style="fill:#a8a8ff;fill-opacity:1;stroke:none;display:inline" />
    <path
       inkscape:connector-curvature="0"
       id="path6290"
       d="m 475,627.36218 25,0"
       style="fill:#ff0000;stroke:#000000;stroke-width:1px;stroke-linecap:butt;stroke-linejoin:miter;stroke-opacity:1;display:inline" />
    <path
       d="m 525,902.36218 25,0 0,25 -25,0 z m -50,0 25,0 0,25 -25,0 z m 0,-50 75,0 0,50 -75,0 z"
       style="fill:#000000;fill-opacity:1;stroke:none;display:inline"
       id="path6292"
       inkscape:connector-curvature="0" />
    <rect
       y="927.36218"
       x="475"
       height="100"
       width="25"
       id="rect6294"
       style="fill:#ffffbb;fill-opacity:1;stroke:none;display:inline" />
    <rect
       y="927.36218"
       x="527.5"
       height="49.999996"
       width="25"
       id="rect6296"
       style="fill:#ffffbb;fill-opacity:1;stroke:none;display:inline" />
    <path
       d="m 462.5,1027.3622 12.5,0 0,25 -12.5,0 z m -12.5,0 12.5,0 0,25 -12.5,0 z"
       style="fill:#000000;fill-opacity:1;stroke:none;display:inline"
       id="path6298"
       inkscape:connector-curvature="0" />
    <rect
       y="1027.3622"
       x="505.25"
       height="25"
       width="25"
       id="rect6300"
       style="fill:#000000;fill-opacity:1;stroke:none;display:inline" />
    <rect
       y="1027.3622"
       x="530.25"
       height="25"
       width="25"
       id="rect6302"
       style="fill:#ffffbb;fill-opacity:1;stroke:none;display:inline" />
    <rect
       y="977.36218"
       x="530.25"
       height="25"
       width="25"
       id="rect6304"
       style="fill:#ffffbb;fill-opacity:1;stroke:none;display:inline" />
    <rect
       y="1002.3622"
       x="530.25"
       height="25"
       width="25"
       id="rect6306"
       style="fill:#ffffbb;fill-opacity:1;stroke:none;display:inline" />
    <path
       style="fill:#2b579b;fill-opacity:1;stroke:none;display:inline"
       d="m 625,802.36218 25,0 0,25 -25,0 z"
       id="path6392"
       inkscape:connector-curvature="0" />
    <path
       style="fill:#2b579b;fill-opacity:1;stroke:none;display:inline"
       d="m 600,802.36218 25,0 0,25 -25,0 z"
       id="path6390"
       inkscape:connector-curvature="0" />
    <path
       style="fill:#2b579b;fill-opacity:1;stroke:none;display:inline"
       d="m 575,802.36218 25,0 0,25 -25,0 z"
       id="path6388"
       inkscape:connector-curvature="0" />
    <path
       style="fill:#2b579b;fill-opacity:1;stroke:none;display:inline"
       d="m 575,777.36218 25,0 0,25 -25,0 z"
       id="path6386"
       inkscape:connector-curvature="0" />
    <path
       style="fill:#2b579b;fill-opacity:1;stroke:none;display:inline"
       d="m 575,752.36218 25,0 0,25 -25,0 z"
       id="path6308"
       inkscape:connector-curvature="0" />
    <path
       d="m 550,727.36218 25,0 0,25 -25,0 z m 25,0 25,0 0,25 -25,0 z m -25,-25 25,0 0,25 -25,0 z m -25,-25 25,0 0,175 -25,0 z"
       style="fill:#5f8dd3;fill-opacity:1;stroke:none;display:inline"
       id="path6310"
       inkscape:connector-curvature="0" />
    <rect
       y="802.36218"
       x="650.25"
       height="25"
       width="25"
       id="rect6312"
       style="fill:#ffffce;fill-opacity:1;stroke:none;display:inline" />
    <path
       d="m 550,577.36218 25,0 0,25 -25,0 z m 0,-100 25,0 0,25 -25,0 z m -100,0 25,0 0,25 -25,0 z m 50,50 25,0 0,25 -25,0 z m 75,-25 0,75 -25,0 0,-25 -25,0 0,-25 -25,0 0,25 -25,0 0,25 -25,0 0,-75 z m -100,75 25,0 0,-25 -25,0 z m 75,-75 25,0 m -125,0 25,0 m -25,25 125,0 0,25 0,25 -25,0 0,-25 -25,0 -75,0 z m 75,-25 25,0 0,-25 25,0 0,50 -50,0 z m -75,-25 25,0 0,25 25,0 0,25 -50,0 z"
       style="fill:#000000;fill-opacity:1;stroke:none;display:inline"
       id="path6314"
       inkscape:connector-curvature="0" />
    <path
       inkscape:connector-curvature="0"
       d="m 500,652.36218 25,0 0,25 -25,0 z m -25,-100 0,25 -25,0 0,25 25,0 0,25 0,25 75,0 0,-100 -75,0"
       style="fill:#ffffbb;fill-opacity:1;stroke:none;display:inline"
       id="path6316" />
    <rect
       y="552.36218"
       x="475"
       height="25"
       width="25"
       id="rect6318"
       style="fill:#ff0000;fill-opacity:1;stroke:none;display:inline" />
    <path
       d="m 487.5,1027.3622 12.5,0 0,25 -12.5,0 z m -12.5,0 12.5,0 0,25 -12.5,0 z"
       style="fill:#ffffbb;fill-opacity:1;stroke:none;display:inline"
       id="path6320"
       inkscape:connector-curvature="0" />
    <path
       style="fill:#5f8dd3;fill-opacity:1;stroke:none;display:inline"
       d="m 450,702.36218 -25,0 0,25 25,0 z"
       id="path6350"
       inkscape:connector-curvature="0" />
    <path
       style="fill:#5f8dd3;fill-opacity:1;stroke:none;display:inline"
       d="m 475,702.36218 -25,0 0,25 25,0 z"
       id="path6348"
       inkscape:connector-curvature="0" />
    <path
       style="fill:#5f8dd3;fill-opacity:1;stroke:none;display:inline"
       d="m 475,677.36218 25,0 0,175 -25,0 z"
       id="path6322"
       inkscape:connector-curvature="0" />
    <rect
       style="fill:#2b579b;fill-opacity:1;stroke:none;display:inline"
       id="rect6382"
       width="49.75"
       height="25"
       x="375.25"
       y="702.36218" />
    <path
       style="fill:#2b579b;fill-opacity:1;stroke:none;display:inline"
       d="m 375,677.36218 25,0 0,25 -25,0 z"
       id="path6388-1"
       inkscape:connector-curvature="0" />
    <path
       style="fill:#2b579b;fill-opacity:1;stroke:none;display:inline"
       d="m 375,652.36218 25,0 0,25 -25,0 z"
       id="path6386-7"
       inkscape:connector-curvature="0" />
    <path
       style="fill:#2b579b;fill-opacity:1;stroke:none;display:inline"
       d="m 375,627.36218 25,0 0,25 -25,0 z"
       id="path6308-4"
       inkscape:connector-curvature="0" />
    <rect
       style="fill:#ffffbb;fill-opacity:1;stroke:none;display:inline"
       id="rect3856-51-9-7-3-0"
       width="25"
       height="25"
       x="-400"
       y="652.36218"
       transform="scale(-1,1)" />
    <rect
       style="fill:#aa0000;fill-opacity:1;stroke:none;display:inline"
       id="rect3856-51-9-7-3-8-9"
       width="25"
       height="25"
       x="-400"
       y="627.36218"
       transform="scale(-1,1)" />
    <rect
       style="fill:#000000;fill-opacity:1;stroke:none;display:inline"
       id="rect3856-51-9-7-3-8-09-4"
       width="25"
       height="25"
       x="-375"
       y="627.36218"
       transform="scale(-1,1)" />
    <rect
       style="fill:#000000;fill-opacity:1;stroke:none;display:inline"
       id="rect3856-51-9-7-3-8-3-8"
       width="25"
       height="25"
       x="-425"
       y="627.36218"
       transform="scale(-1,1)" />
    <rect
       style="fill:#aa0000;fill-opacity:1;stroke:none;display:inline"
       id="rect3856-51-9-7-3-8-54-8"
       width="25"
       height="25"
       x="-400"
       y="677.36218"
       transform="scale(-1,1)" />
    <path
       id="rect3856-51-9-7-3-8-2-2"
       style="fill:#b3faff;fill-opacity:1;stroke:none;display:inline"
       d="m 400,452.36218 -25,0 0,25 25,0 z m 0,25 -25,0 0,25 25,0 z m 0,25 -25,0 0,25 25,0 z m 0,25 -25,0 0,25 25,0 z m 0,25 -25,0 0,25 25,0 z m 0,25 -25,0 0,25 25,0 z m 0,25 -25,0 0,25 25,0 z"
       inkscape:connector-curvature="0" />
    <rect
       y="677.36218"
       x="1150"
       height="175"
       width="25"
       id="rect6288-4"
       style="fill:#a8a8ff;fill-opacity:1;stroke:none;display:inline" />
    <path
       inkscape:connector-curvature="0"
       id="path6290-5"
       d="m 1125,627.36218 25,0"
       style="fill:#ff0000;stroke:#000000;stroke-width:1px;stroke-linecap:butt;stroke-linejoin:miter;stroke-opacity:1;display:inline" />
    <path
       d="m 1175,902.36218 25,0 0,25 -25,0 z m -50,0 25,0 0,25 -25,0 z m 0,-50 75,0 0,50 -75,0 z"
       style="fill:#000000;fill-opacity:1;stroke:none;display:inline"
       id="path6292-5"
       inkscape:connector-curvature="0" />
    <rect
       y="927.36218"
       x="1125"
       height="100"
       width="25"
       id="rect6294-1"
       style="fill:#ffffbb;fill-opacity:1;stroke:none;display:inline" />
    <rect
       y="927.36218"
       x="1177.5"
       height="49.999996"
       width="25"
       id="rect6296-7"
       style="fill:#ffffbb;fill-opacity:1;stroke:none;display:inline" />
    <path
       d="m 1112.5,1027.3622 12.5,0 0,25 -12.5,0 z m -12.5,0 12.5,0 0,25 -12.5,0 z"
       style="fill:#000000;fill-opacity:1;stroke:none;display:inline"
       id="path6298-1"
       inkscape:connector-curvature="0" />
    <rect
       y="1027.3622"
       x="1155.25"
       height="25"
       width="25"
       id="rect6300-1"
       style="fill:#000000;fill-opacity:1;stroke:none;display:inline" />
    <rect
       y="1027.3622"
       x="1180.25"
       height="25"
       width="25"
       id="rect6302-5"
       style="fill:#ffffbb;fill-opacity:1;stroke:none;display:inline" />
    <rect
       y="977.36218"
       x="1180.25"
       height="25"
       width="25"
       id="rect6304-2"
       style="fill:#ffffbb;fill-opacity:1;stroke:none;display:inline" />
    <rect
       y="1002.3622"
       x="1180.25"
       height="25"
       width="25"
       id="rect6306-7"
       style="fill:#ffffbb;fill-opacity:1;stroke:none;display:inline" />
    <path
       style="fill:#2b579b;fill-opacity:1;stroke:none;display:inline"
       d="m 1275,802.36218 25,0 0,25 -25,0 z"
       id="path6392-6"
       inkscape:connector-curvature="0" />
    <path
       style="fill:#2b579b;fill-opacity:1;stroke:none;display:inline"
       d="m 1250,802.36218 25,0 0,25 -25,0 z"
       id="path6390-1"
       inkscape:connector-curvature="0" />
    <path
       style="fill:#2b579b;fill-opacity:1;stroke:none;display:inline"
       d="m 1225,802.36218 25,0 0,25 -25,0 z"
       id="path6388-4"
       inkscape:connector-curvature="0" />
    <path
       style="fill:#2b579b;fill-opacity:1;stroke:none;display:inline"
       d="m 1225,777.36218 25,0 0,25 -25,0 z"
       id="path6386-2"
       inkscape:connector-curvature="0" />
    <path
       style="fill:#2b579b;fill-opacity:1;stroke:none;display:inline"
       d="m 1225,752.36218 25,0 0,25 -25,0 z"
       id="path6308-3"
       inkscape:connector-curvature="0" />
    <path
       d="m 1200,727.36218 25,0 0,25 -25,0 z m 25,0 25,0 0,25 -25,0 z m -25,-25 25,0 0,25 -25,0 z m -25,-25 25,0 0,175 -25,0 z"
       style="fill:#5f8dd3;fill-opacity:1;stroke:none;display:inline"
       id="path6310-2"
       inkscape:connector-curvature="0" />
    <rect
       y="802.36218"
       x="1300.25"
       height="25"
       width="25"
       id="rect6312-2"
       style="fill:#ffffce;fill-opacity:1;stroke:none;display:inline" />
    <path
       d="m 1200,577.36218 25,0 0,25 -25,0 z m 0,-100 25,0 0,25 -25,0 z m -100,0 25,0 0,25 -25,0 z m 50,50 25,0 0,25 -25,0 z m 75,-25 0,75 -25,0 0,-25 -25,0 0,-25 -25,0 0,25 -25,0 0,25 -25,0 0,-75 z m -100,75 25,0 0,-25 -25,0 z m 75,-75 25,0 m -125,0 25,0 m -25,25 125,0 0,25 0,25 -25,0 0,-25 -25,0 -75,0 z m 75,-25 25,0 0,-25 25,0 0,50 -50,0 z m -75,-25 25,0 0,25 25,0 0,25 -50,0 z"
       style="fill:#000000;fill-opacity:1;stroke:none;display:inline"
       id="path6314-1"
       inkscape:connector-curvature="0" />
    <path
       inkscape:connector-curvature="0"
       d="m 1150,652.36218 25,0 0,25 -25,0 z m -25,-100 0,25 -25,0 0,25 25,0 0,25 0,25 75,0 0,-100 -75,0"
       style="fill:#ffffbb;fill-opacity:1;stroke:none;display:inline"
       id="path6316-6" />
    <rect
       y="552.36218"
       x="1125"
       height="25"
       width="25"
       id="rect6318-8"
       style="fill:#ff0000;fill-opacity:1;stroke:none;display:inline" />
    <path
       d="m 1137.5,1027.3622 12.5,0 0,25 -12.5,0 z m -12.5,0 12.5,0 0,25 -12.5,0 z"
       style="fill:#ffffbb;fill-opacity:1;stroke:none;display:inline"
       id="path6320-5"
       inkscape:connector-curvature="0" />
    <path
       style="fill:#5f8dd3;fill-opacity:1;stroke:none;display:inline"
       d="m 1100,702.36218 -25,0 0,25 25,0 z"
       id="path6350-7"
       inkscape:connector-curvature="0" />
    <path
       style="fill:#5f8dd3;fill-opacity:1;stroke:none;display:inline"
       d="m 1125,702.36218 -25,0 0,25 25,0 z"
       id="path6348-6"
       inkscape:connector-curvature="0" />
    <path
       style="fill:#5f8dd3;fill-opacity:1;stroke:none;display:inline"
       d="m 1125,677.36218 25,0 0,175 -25,0 z"
       id="path6322-1"
       inkscape:connector-curvature="0" />
    <rect
       transform="scale(1,-1)"
       y="-727.36218"
       x="925"
       height="25"
       width="25"
       id="rect6328"
       style="fill:#aa0000;fill-opacity:1;stroke:none;display:inline" />
    <rect
       transform="scale(1,-1)"
       y="-752.36218"
       x="925"
       height="25"
       width="25"
       id="rect6330"
       style="fill:#000000;fill-opacity:1;stroke:none;display:inline" />
    <rect
       transform="scale(1,-1)"
       y="-702.36218"
       x="925"
       height="25"
       width="25"
       id="rect6332"
       style="fill:#000000;fill-opacity:1;stroke:none;display:inline" />
    <path
       d="m 750,702.36218 0,25 25,0 0,-25 z m 25,0 0,25 25,0 0,-25 z m 25,0 0,25 25,0 0,-25 z m 25,0 0,25 25,0 0,-25 z m 25,0 0,25 25,0 0,-25 z m 25,0 0,25 25,0 0,-25 z m 25,0 0,25 25,0 0,-25 z"
       style="fill:#b3faff;fill-opacity:1;stroke:none;display:inline"
       id="path6336"
       inkscape:connector-curvature="0" />
    <rect
       style="fill:#2b579b;fill-opacity:1;stroke:none;display:inline"
       id="rect6382-8"
       width="125"
       height="25"
       x="950"
       y="702.36218" />
    <rect
       transform="scale(1,-1)"
       y="-727.36218"
       x="950"
       height="25"
       width="25"
       id="rect6326"
       style="fill:#ffffbb;fill-opacity:1;stroke:none;display:inline" />
    <rect
       transform="scale(1,-1)"
       y="-727.36218"
       x="975"
       height="25"
       width="25"
       id="rect6334"
       style="fill:#aa0000;fill-opacity:1;stroke:none;display:inline" />
    <path
       d="m 487.5,1027.3622 12.5,0 0,25 -12.5,0 z m -12.5,0 12.5,0 0,25 -12.5,0 z"
       style="fill:#000000;fill-opacity:1;stroke:none;display:inline"
       id="path6298-9"
       inkscape:connector-curvature="0" />
    <path
       d="m 542.44977,1027.3622 12.5,0 0,25 -12.5,0 z m -12.5,0 12.5,0 0,25 -12.5,0 z"
       style="fill:#000000;fill-opacity:1;stroke:none;display:inline"
       id="path6298-2"
       inkscape:connector-curvature="0" />
    <path
       d="m 1192.4498,1027.3622 12.5,0 0,25 -12.5,0 z m -12.5,0 12.5,0 0,25 -12.5,0 z"
       style="fill:#000000;fill-opacity:1;stroke:none;display:inline"
       id="path6298-2-7"
       inkscape:connector-curvature="0" />
    <path
       d="m 1137.5,1027.3622 12.5,0 0,25 -12.5,0 z m -12.5,0 12.5,0 0,25 -12.5,0 z"
       style="fill:#000000;fill-opacity:1;stroke:none;display:inline"
       id="path6298-2-9"
       inkscape:connector-curvature="0" />
    <path
       d="m 242.19977,1027.3622 12.5,0 0,25 -12.5,0 z m -12.5,0 12.5,0 0,25 -12.5,0 z"
       style="fill:#000000;fill-opacity:1;stroke:none;display:inline"
       id="path6298-2-5"
       inkscape:connector-curvature="0" />
    <path
       d="m 187.25,1027.3622 12.5,0 0,25 -12.5,0 z m -12.5,0 12.5,0 0,25 -12.5,0 z"
       style="fill:#000000;fill-opacity:1;stroke:none;display:inline"
       id="path6298-2-4"
       inkscape:connector-curvature="0" />
    <rect
       y="677.36218"
       x="1475"
       height="175"
       width="25"
       id="rect6288-3"
       style="fill:#a8a8ff;fill-opacity:1;stroke:none;display:inline" />
    <path
       inkscape:connector-curvature="0"
       id="path6290-1"
       d="m 1450,627.36218 25,0"
       style="fill:#ff0000;stroke:#000000;stroke-width:1px;stroke-linecap:butt;stroke-linejoin:miter;stroke-opacity:1;display:inline" />
    <path
       d="m 1500,902.3622 25,0 0,25 -25,0 z m -50,0 25,0 0,25 -25,0 z m 0,-50.00002 75,0 0,50.00002 -75,0 z"
       style="fill:#000000;fill-opacity:1;stroke:none;display:inline"
       id="path6292-2"
       inkscape:connector-curvature="0" />
    <rect
       y="927.36218"
       x="1450"
       height="100"
       width="25"
       id="rect6294-3"
       style="fill:#ffffbb;fill-opacity:1;stroke:none;display:inline" />
    <rect
       y="927.36218"
       x="1502.5"
       height="49.999996"
       width="25"
       id="rect6296-3"
       style="fill:#ffffbb;fill-opacity:1;stroke:none;display:inline" />
    <path
       d="m 1437.5,1027.3622 12.5,0 0,25 -12.5,0 z m -12.5,0 12.5,0 0,25 -12.5,0 z"
       style="fill:#000000;fill-opacity:1;stroke:none;display:inline"
       id="path6298-4"
       inkscape:connector-curvature="0" />
    <rect
       y="1027.3622"
       x="1480.25"
       height="25"
       width="25"
       id="rect6300-11"
       style="fill:#000000;fill-opacity:1;stroke:none;display:inline" />
    <rect
       y="1027.3622"
       x="1505.25"
       height="25"
       width="25"
       id="rect6302-3"
       style="fill:#ffffbb;fill-opacity:1;stroke:none;display:inline" />
    <rect
       y="977.36218"
       x="1505.25"
       height="25"
       width="25"
       id="rect6304-8"
       style="fill:#ffffbb;fill-opacity:1;stroke:none;display:inline" />
    <rect
       y="1002.3622"
       x="1505.25"
       height="25"
       width="25"
       id="rect6306-74"
       style="fill:#ffffbb;fill-opacity:1;stroke:none;display:inline" />
    <path
       style="fill:#2b579b;fill-opacity:1;stroke:none;display:inline"
       d="m 1600,802.36218 25,0 0,25 -25,0 z"
       id="path6392-2"
       inkscape:connector-curvature="0" />
    <path
       style="fill:#2b579b;fill-opacity:1;stroke:none;display:inline"
       d="m 1575,802.36218 25,0 0,25 -25,0 z"
       id="path6390-7"
       inkscape:connector-curvature="0" />
    <path
       style="fill:#2b579b;fill-opacity:1;stroke:none;display:inline"
       d="m 1550,802.36218 25,0 0,25 -25,0 z"
       id="path6388-7"
       inkscape:connector-curvature="0" />
    <path
       style="fill:#2b579b;fill-opacity:1;stroke:none;display:inline"
       d="m 1550,777.36218 25,0 0,25 -25,0 z"
       id="path6386-9"
       inkscape:connector-curvature="0" />
    <path
       style="fill:#2b579b;fill-opacity:1;stroke:none;display:inline"
       d="m 1550,752.36218 25,0 0,25 -25,0 z"
       id="path6308-31"
       inkscape:connector-curvature="0" />
    <path
       d="m 1525,727.36218 25,0 0,25 -25,0 z m 25,0 25,0 0,25 -25,0 z m -25,-25 25,0 0,25 -25,0 z m -25,-25 25,0 0,175 -25,0 z"
       style="fill:#5f8dd3;fill-opacity:1;stroke:none;display:inline"
       id="path6310-9"
       inkscape:connector-curvature="0" />
    <rect
       y="802.36218"
       x="1625.25"
       height="25"
       width="25"
       id="rect6312-8"
       style="fill:#ffffce;fill-opacity:1;stroke:none;display:inline" />
    <path
       d="m 1525,577.36218 25,0 0,25 -25,0 z m 0,-100 25,0 0,25 -25,0 z m -100,0 25,0 0,25 -25,0 z m 50,50 25,0 0,25 -25,0 z m 75,-25 0,75 -25,0 0,-25 -25,0 0,-25 -25,0 0,25 -25,0 0,25 -25,0 0,-75 z m -100,75 25,0 0,-25 -25,0 z m 75,-75 25,0 m -125,0 25,0 m -25,25 125,0 0,25 0,25 -25,0 0,-25 -25,0 -75,0 z m 75,-25 25,0 0,-25 25,0 0,50 -50,0 z m -75,-25 25,0 0,25 25,0 0,25 -50,0 z"
       style="fill:#000000;fill-opacity:1;stroke:none;display:inline"
       id="path6314-6"
       inkscape:connector-curvature="0" />
    <path
       inkscape:connector-curvature="0"
       d="m 1475,652.36218 25,0 0,25 -25,0 z m -25,-100 0,25 -25,0 0,25 25,0 0,25 0,25 75,0 0,-100 -75,0"
       style="fill:#ffffbb;fill-opacity:1;stroke:none;display:inline"
       id="path6316-5" />
    <rect
       y="552.36218"
       x="1450"
       height="25"
       width="25"
       id="rect6318-0"
       style="fill:#ff0000;fill-opacity:1;stroke:none;display:inline" />
    <path
       d="m 1462.5,1027.3622 12.5,0 0,25 -12.5,0 z m -12.5,0 12.5,0 0,25 -12.5,0 z"
       style="fill:#ffffbb;fill-opacity:1;stroke:none;display:inline"
       id="path6320-2"
       inkscape:connector-curvature="0" />
    <path
       style="fill:#5f8dd3;fill-opacity:1;stroke:none;display:inline"
       d="m 1425,702.36218 -25,0 0,25 25,0 z"
       id="path6350-8"
       inkscape:connector-curvature="0" />
    <path
       style="fill:#5f8dd3;fill-opacity:1;stroke:none;display:inline"
       d="m 1450,702.36218 -25,0 0,25 25,0 z"
       id="path6348-60"
       inkscape:connector-curvature="0" />
    <path
       style="fill:#5f8dd3;fill-opacity:1;stroke:none;display:inline"
       d="m 1450,677.36218 25,0 0,175 -25,0 z"
       id="path6322-2"
       inkscape:connector-curvature="0" />
    <rect
       style="fill:#2b579b;fill-opacity:1;stroke:none;display:inline"
       id="rect6382-4"
       width="49.75"
       height="25"
       x="1350.25"
       y="702.36218" />
    <path
       style="fill:#2b579b;fill-opacity:1;stroke:none;display:inline"
       d="m 1350,677.36218 25,0 0,25 -25,0 z"
       id="path6388-1-8"
       inkscape:connector-curvature="0" />
    <path
       style="fill:#2b579b;fill-opacity:1;stroke:none;display:inline"
       d="m 1350,652.36218 25,0 0,25 -25,0 z"
       id="path6386-7-6"
       inkscape:connector-curvature="0" />
    <path
       style="fill:#2b579b;fill-opacity:1;stroke:none;display:inline"
       d="m 1350,627.36218 25,0 0,25 -25,0 z"
       id="path6308-4-5"
       inkscape:connector-curvature="0" />
    <rect
       style="fill:#ffffbb;fill-opacity:1;stroke:none;display:inline"
       id="rect3856-51-9-7-3-0-0"
       width="25"
       height="25"
       x="-1375"
       y="652.36218"
       transform="scale(-1,1)" />
    <rect
       style="fill:#aa0000;fill-opacity:1;stroke:none;display:inline"
       id="rect3856-51-9-7-3-8-9-9"
       width="25"
       height="25"
       x="-1375"
       y="627.36218"
       transform="scale(-1,1)" />
    <rect
       style="fill:#000000;fill-opacity:1;stroke:none;display:inline"
       id="rect3856-51-9-7-3-8-09-4-0"
       width="25"
       height="25"
       x="-1350"
       y="627.36218"
       transform="scale(-1,1)" />
    <rect
       style="fill:#000000;fill-opacity:1;stroke:none;display:inline"
       id="rect3856-51-9-7-3-8-3-8-0"
       width="25"
       height="25"
       x="-1400"
       y="627.36218"
       transform="scale(-1,1)" />
    <rect
       style="fill:#aa0000;fill-opacity:1;stroke:none;display:inline"
       id="rect3856-51-9-7-3-8-54-8-6"
       width="25"
       height="25"
       x="-1375"
       y="677.36218"
       transform="scale(-1,1)" />
    <path
       id="rect3856-51-9-7-3-8-2-2-1"
       style="fill:#b3faff;fill-opacity:1;stroke:none;display:inline"
       d="m 1375,452.36218 -25,0 0,25 25,0 z m 0,25 -25,0 0,25 25,0 z m 0,25 -25,0 0,25 25,0 z m 0,25 -25,0 0,25 25,0 z m 0,25 -25,0 0,25 25,0 z m 0,25 -25,0 0,25 25,0 z m 0,25 -25,0 0,25 25,0 z"
       inkscape:connector-curvature="0" />
    <path
       d="m 1462.5,1027.3622 12.5,0 0,25 -12.5,0 z m -12.5,0 12.5,0 0,25 -12.5,0 z"
       style="fill:#000000;fill-opacity:1;stroke:none;display:inline"
       id="path6298-9-3"
       inkscape:connector-curvature="0" />
    <path
       d="m 1517.4498,1027.3622 12.5,0 0,25 -12.5,0 z m -12.5,0 12.5,0 0,25 -12.5,0 z"
       style="fill:#000000;fill-opacity:1;stroke:none;display:inline"
       id="path6298-2-8"
       inkscape:connector-curvature="0" />
    <rect
       style="fill:#a8a8ff;fill-opacity:1;stroke:none;display:inline"
       id="rect3838-9"
       width="25"
       height="175"
       x="1925"
       y="677.36218" />
    <path
       style="fill:#ff0000;stroke:#000000;stroke-width:1px;stroke-linecap:butt;stroke-linejoin:miter;stroke-opacity:1;display:inline"
       d="m 1900,627.36218 25,0"
       id="path3901-3"
       inkscape:connector-curvature="0" />
    <path
       inkscape:connector-curvature="0"
       id="rect3905-4-4"
       style="fill:#000000;fill-opacity:1;stroke:none;display:inline"
       d="m 1950,902.36218 25,0 0,25.00002 -25,0 z m -50,0 25,0 0,25.00002 -25,0 z m 0,-50 75,0 0,50 -75,0 z" />
    <rect
       style="fill:#ffffbb;fill-opacity:1;stroke:none;display:inline"
       id="rect3856-8-4"
       width="25"
       height="100"
       x="1900"
       y="927.36218" />
    <rect
       style="fill:#ffffbb;fill-opacity:1;stroke:none;display:inline"
       id="rect3856-8-8-6"
       width="25"
       height="49.999996"
       x="1952.5"
       y="927.36218" />
    <path
       inkscape:connector-curvature="0"
       id="rect3856-4-0"
       style="fill:#000000;fill-opacity:1;stroke:none;display:inline"
       d="m 1887.5,1027.3622 12.5,0 0,25 -12.5,0 z m -12.5,0 12.5,0 0,25 -12.5,0 z" />
    <rect
       style="fill:#000000;fill-opacity:1;stroke:none;display:inline"
       id="rect3856-5-6"
       width="25"
       height="25"
       x="1930.25"
       y="1027.3622" />
    <rect
       style="fill:#ffffbb;fill-opacity:1;stroke:none;display:inline"
       id="rect3856-51-6"
       width="25"
       height="25"
       x="1955.25"
       y="1027.3622" />
    <rect
       style="fill:#ffffbb;fill-opacity:1;stroke:none;display:inline"
       id="rect3856-51-1-1"
       width="25"
       height="25"
       x="1955.25"
       y="977.36218" />
    <rect
       style="fill:#ffffbb;fill-opacity:1;stroke:none;display:inline"
       id="rect3856-51-9-8"
       width="25"
       height="25"
       x="1955.25"
       y="1002.3622" />
    <path
       id="rect4742-4-4"
       style="fill:#2b579b;fill-opacity:1;stroke:none;display:inline"
       d="m 2000,852.36218 25,0 0,25 -25,0 z m 0,-25 25,0 0,25 -25,0 z m 0,-25 25,0 0,25 -25,0 z m 0,-25 25,0 0,25 -25,0 z m 0,-25 25,0 0,25 -25,0 z"
       inkscape:connector-curvature="0" />
    <path
       id="rect4742-32-9"
       style="fill:#5f8dd3;fill-opacity:1;stroke:none;display:inline"
       d="m 1975,727.36218 25,0 0,25 -25,0 z m 25,0 25,0 0,25 -25,0 z m -25,-25 25,0 0,25 -25,0 z m -25,-25 25,0 0,175 -25,0 z"
       inkscape:connector-curvature="0" />
    <rect
       style="fill:#ffffbb;fill-opacity:1;stroke:none;display:inline"
       id="rect3856-51-9-7-6"
       width="25"
       height="25"
       x="2000.25"
       y="877.36218" />
    <path
       id="rect4742-9-3"
       style="fill:#000000;fill-opacity:1;stroke:none;display:inline"
       d="m 1975,577.36218 25,0 0,25 -25,0 z m 0,-100 25,0 0,25 -25,0 z m -100,0 25,0 0,25 -25,0 z m 50,50 25,0 0,25 -25,0 z m 75,-25 0,75 -25,0 0,-25 -25,0 0,-25 -25,0 0,25 -25,0 0,25 -25,0 0,-75 z m -100,75 25,0 0,-25 -25,0 z m 75,-75 25,0 m -125,0 25,0 m -25,25 125,0 0,25 0,25 -25,0 0,-25 -25,0 -75,0 z m 75,-25 25,0 0,-25 25,0 0,50 -50,0 z m -75,-25 25,0 0,25 25,0 0,25 -50,0 z"
       inkscape:connector-curvature="0" />
    <path
       id="rect3790-7"
       style="fill:#ffffbb;fill-opacity:1;stroke:none;display:inline"
       d="m 1925,652.36218 25,0 0,25 -25,0 z m -25,-100 0,25 -25,0 0,25 25,0 0,25 0,25 75,0 0,-100 -75,0"
       inkscape:connector-curvature="0" />
    <rect
       style="fill:#ff0000;fill-opacity:1;stroke:none;display:inline"
       id="rect3796-8"
       width="25"
       height="25"
       x="1900"
       y="552.36218" />
    <path
       inkscape:connector-curvature="0"
       id="rect3856-4-7-8"
       style="fill:#ffffbb;fill-opacity:1;stroke:none;display:inline"
       d="m 1912.5,1027.3622 12.5,0 0,25 -12.5,0 z m -12.5,0 12.5,0 0,25 -12.5,0 z" />
    <path
       id="rect4742-32-5-2"
       style="fill:#5f8dd3;fill-opacity:1;stroke:none;display:inline"
       d="m 1900,727.36218 -25,0 0,25 25,0 z m -25,0 -25,0 0,25 25,0 z m 25,-25 -25,0 0,25 25,0 z m 0,-25 25,0 0,175 -25,0 z"
       inkscape:connector-curvature="0" />
    <path
       id="rect4742-4-5-1-9"
       style="fill:#2b579b;fill-opacity:1;stroke:none;display:inline"
       d="m 1850,822.36218 -25,0 0,5 25,0 z m 0,-5 -25,0 0,5 25,0 z m 0,-5 -25,0 0,5 25,0 z m 0,-5 -25,0 0,5 25,0 z m 0,-5 -25,0 0,5 25,0 z m 25,10 -25,0 0,15 25,0 z m 0,-15 -25,0 0,15 25,0 z m 0,-15 -25,0 0,15 25,0 z m 0,-15 -25,0 0,15 25,0 z m 0,-15 -25,0 0,15 25,0 z"
       inkscape:connector-curvature="0" />
    <rect
       style="fill:#ffffbb;fill-opacity:1;stroke:none;display:inline"
       id="rect3856-51-9-7-3-1"
       width="25"
       height="25"
       x="-1824.75"
       y="802.36218"
       transform="scale(-1,1)" />
    <rect
       style="fill:#aa0000;fill-opacity:1;stroke:none;display:inline"
       id="rect3856-51-9-7-3-8-35"
       width="25"
       height="25"
       x="-1824.75"
       y="777.36218"
       transform="scale(-1,1)" />
    <rect
       style="fill:#000000;fill-opacity:1;stroke:none;display:inline"
       id="rect3856-51-9-7-3-8-09-9"
       width="25"
       height="25"
       x="-1799.75"
       y="777.36218"
       transform="scale(-1,1)" />
    <rect
       style="fill:#000000;fill-opacity:1;stroke:none;display:inline"
       id="rect3856-51-9-7-3-8-3-84"
       width="25"
       height="25"
       x="-1849.75"
       y="777.36218"
       transform="scale(-1,1)" />
    <rect
       style="fill:#aa0000;fill-opacity:1;stroke:none;display:inline"
       id="rect3856-51-9-7-3-8-54-0"
       width="25"
       height="25"
       x="-1824.75"
       y="827.36218"
       transform="scale(-1,1)" />
    <path
       id="rect3856-51-9-7-3-8-2-7"
       style="fill:#b3faff;fill-opacity:1;stroke:none;display:inline"
       d="m 1824.75,602.36218 -25,0 0,25 25,0 z m 0,25 -25,0 0,25 25,0 z m 0,25 -25,0 0,25 25,0 z m 0,25 -25,0 0,25 25,0 z m 0,25 -25,0 0,25 25,0 z m 0,25 -25,0 0,25 25,0 z m 0,25 -25,0 0,25 25,0 z"
       inkscape:connector-curvature="0" />
    <path
       d="m 1967.1998,1027.3622 12.5,0 0,25 -12.5,0 z m -12.5,0 12.5,0 0,25 -12.5,0 z"
       style="fill:#000000;fill-opacity:1;stroke:none;display:inline"
       id="path6298-2-5-6"
       inkscape:connector-curvature="0" />
    <path
       d="m 1912.25,1027.3622 12.5,0 0,25 -12.5,0 z m -12.5,0 12.5,0 0,25 -12.5,0 z"
       style="fill:#000000;fill-opacity:1;stroke:none;display:inline"
       id="path6298-2-4-3"
       inkscape:connector-curvature="0" />
  </g>
</svg>
