<?xml version="1.0" encoding="UTF-8" standalone="no"?>
<!-- Created with Inkscape (http://www.inkscape.org/) -->

<svg
   xmlns:dc="http://purl.org/dc/elements/1.1/"
   xmlns:cc="http://creativecommons.org/ns#"
   xmlns:rdf="http://www.w3.org/1999/02/22-rdf-syntax-ns#"
   xmlns:svg="http://www.w3.org/2000/svg"
   xmlns="http://www.w3.org/2000/svg"
   xmlns:sodipodi="http://sodipodi.sourceforge.net/DTD/sodipodi-0.dtd"
   xmlns:inkscape="http://www.inkscape.org/namespaces/inkscape"
   width="1024"
   height="678"
   id="svg2"
   version="1.1"
   inkscape:version="0.48.5 r10040"
   sodipodi:docname="lab-background.svg"
   inkscape:export-filename="H:\AdventureTime\ProgrammingTime\team-project\Assets\Textures\arts\Enviroment\level4_lab\lab-background.png"
   inkscape:export-xdpi="90"
   inkscape:export-ydpi="90">
  <defs
     id="defs4" />
  <sodipodi:namedview
     id="base"
     pagecolor="#ffffff"
     bordercolor="#666666"
     borderopacity="1.0"
     inkscape:pageopacity="0.0"
     inkscape:pageshadow="2"
     inkscape:zoom="0.55029297"
     inkscape:cx="787.63918"
     inkscape:cy="520"
     inkscape:document-units="px"
     inkscape:current-layer="layer1"
     showgrid="true"
     inkscape:window-width="1215"
     inkscape:window-height="1002"
     inkscape:window-x="57"
     inkscape:window-y="-8"
     inkscape:window-maximized="1"
     inkscape:showpageshadow="false"
     inkscape:snap-bbox="true"
     inkscape:bbox-nodes="true">
    <inkscape:grid
       type="xygrid"
       id="grid2985"
       empspacing="1"
       visible="true"
       enabled="true"
       snapvisiblegridlinesonly="true"
       spacingx="25px"
       spacingy="25px" />
  </sodipodi:namedview>
  <metadata
     id="metadata7">
    <rdf:RDF>
      <cc:Work
         rdf:about="">
        <dc:format>image/svg+xml</dc:format>
        <dc:type
           rdf:resource="http://purl.org/dc/dcmitype/StillImage" />
        <dc:title></dc:title>
      </cc:Work>
    </rdf:RDF>
  </metadata>
  <g
     inkscape:label="Layer 1"
     inkscape:groupmode="layer"
     id="layer1"
     transform="translate(0,-374.36218)">
    <rect
       style="fill:#87deaa;fill-opacity:1;stroke:none"
       id="rect2987"
       width="1025"
       height="675"
       x="0"
       y="3"
       transform="translate(0,374.36218)" />
    <rect
       style="fill:#37c871;fill-opacity:1;stroke:none"
       id="rect2989"
       width="25"
       height="75"
       x="50"
       y="402.36218" />
    <rect
       style="fill:#37c871;fill-opacity:1;stroke:none"
       id="rect2989-1"
       width="25"
       height="75"
       x="75"
       y="477.36218" />
    <rect
       style="fill:#37c871;fill-opacity:1;stroke:none"
       id="rect2989-1-7"
       width="25"
       height="75"
       x="552.36218"
       y="-175"
       transform="matrix(0,1,-1,0,0,0)" />
    <rect
       style="fill:#37c871;fill-opacity:1;stroke:none"
       id="rect2989-1-4"
       width="25"
       height="75"
       x="125"
       y="527.36218" />
    <rect
       style="fill:#37c871;fill-opacity:1;stroke:none"
       id="rect2989-1-4-0"
       width="25"
       height="75"
       x="50"
       y="552.36218" />
    <rect
       style="fill:#37c871;fill-opacity:1;stroke:none"
       id="rect2989-1-7-9"
       width="25"
       height="75"
       x="627.36218"
       y="-150"
       transform="matrix(0,1,-1,0,0,0)" />
    <rect
       style="fill:#37c871;fill-opacity:1;stroke:none"
       id="rect2989-1-7-4"
       width="25"
       height="75"
       x="652.36218"
       y="-225"
       transform="matrix(0,1,-1,0,0,0)" />
    <rect
       style="fill:#37c871;fill-opacity:1;stroke:none"
       id="rect2989-1-7-8"
       width="25"
       height="75"
       x="677.36218"
       y="-150"
       transform="matrix(0,1,-1,0,0,0)" />
    <rect
       style="fill:#37c871;fill-opacity:1;stroke:none"
       id="rect2989-1-7-2"
       width="25"
       height="75"
       x="752.36218"
       y="-100"
       transform="matrix(0,1,-1,0,0,0)" />
    <rect
       style="fill:#37c871;fill-opacity:1;stroke:none"
       id="rect2989-1-4-4"
       width="25"
       height="675"
       x="0"
       y="377.36218" />
    <rect
       style="fill:#37c871;fill-opacity:1;stroke:none"
       id="rect2989-1-4-5"
       width="25"
       height="75"
       x="25"
       y="502.36218" />
    <rect
       style="fill:#37c871;fill-opacity:1;stroke:none"
       id="rect2989-1-4-51"
       width="25"
       height="75"
       x="0"
       y="577.36218" />
    <rect
       style="fill:#37c871;fill-opacity:1;stroke:none"
       id="rect2989-1-4-7"
       width="25"
       height="75"
       x="25"
       y="652.36218" />
    <rect
       style="fill:#37c871;fill-opacity:1;stroke:none"
       id="rect2989-1-4-4-1"
       width="25"
       height="675"
       x="1000"
       y="377.36218" />
    <rect
       style="fill:#37c871;fill-opacity:1;stroke:none"
       id="rect2989-1-7-4-1"
       width="25"
       height="1000"
       x="1027.3622"
       y="-1025"
       transform="matrix(0,1,-1,0,0,0)" />
    <rect
       style="fill:#37c871;fill-opacity:1;stroke:none"
       id="rect2989-1-7-4-1-5"
       width="25"
       height="1000"
       x="377.36218"
       y="-1025"
       transform="matrix(0,1,-1,0,0,0)" />
    <rect
       style="fill:#37c871;fill-opacity:1;stroke:none"
       id="rect2989-1-2"
       width="25"
       height="75"
       x="200"
       y="452.36218" />
    <rect
       style="fill:#37c871;fill-opacity:1;stroke:none"
       id="rect2989-1-76"
       width="25"
       height="75"
       x="275"
       y="452.36218" />
    <rect
       style="fill:#37c871;fill-opacity:1;stroke:none"
       id="rect2989-1-1"
       width="25"
       height="75"
       x="250"
       y="552.36218" />
    <rect
       style="fill:#37c871;fill-opacity:1;stroke:none"
       id="rect2989-1-42"
       width="25"
       height="75"
       x="325"
       y="677.36218" />
    <rect
       style="fill:#37c871;fill-opacity:1;stroke:none"
       id="rect2989-1-3"
       width="25"
       height="75"
       x="225"
       y="727.36218" />
    <rect
       style="fill:#37c871;fill-opacity:1;stroke:none"
       id="rect2989-1-22"
       width="25"
       height="75"
       x="150"
       y="702.36218" />
    <rect
       style="fill:#37c871;fill-opacity:1;stroke:none"
       id="rect2989-1-16"
       width="25"
       height="75"
       x="150"
       y="827.36218" />
    <rect
       style="fill:#37c871;fill-opacity:1;stroke:none"
       id="rect2989-1-8"
       width="25"
       height="75"
       x="75"
       y="827.36218" />
    <rect
       style="fill:#37c871;fill-opacity:1;stroke:none"
       id="rect2989-1-5"
       width="25"
       height="75"
       x="125"
       y="777.36218" />
    <rect
       style="fill:#37c871;fill-opacity:1;stroke:none"
       id="rect2989-1-761"
       width="25"
       height="75"
       x="275"
       y="852.36218" />
    <rect
       style="fill:#37c871;fill-opacity:1;stroke:none"
       id="rect2989-1-89"
       width="25"
       height="75"
       x="400"
       y="802.36218" />
    <rect
       style="fill:#37c871;fill-opacity:1;stroke:none"
       id="rect2989-1-27"
       width="25"
       height="75"
       x="400"
       y="677.36218" />
    <rect
       style="fill:#37c871;fill-opacity:1;stroke:none"
       id="rect2989-1-9"
       width="25"
       height="75"
       x="375"
       y="477.36218" />
    <rect
       style="fill:#37c871;fill-opacity:1;stroke:none"
       id="rect2989-1-54"
       width="25"
       height="75"
       x="325"
       y="552.36218" />
    <rect
       style="fill:#37c871;fill-opacity:1;stroke:none"
       id="rect2989-1-31"
       width="25"
       height="75"
       x="500"
       y="452.36218" />
    <rect
       style="fill:#37c871;fill-opacity:1;stroke:none"
       id="rect2989-1-23"
       width="25"
       height="75"
       x="450"
       y="402.36218" />
    <rect
       style="fill:#37c871;fill-opacity:1;stroke:none"
       id="rect2989-1-34"
       width="25"
       height="75"
       x="450"
       y="527.36218" />
    <rect
       style="fill:#37c871;fill-opacity:1;stroke:none"
       id="rect2989-1-11"
       width="25"
       height="75"
       x="400"
       y="552.36218" />
    <rect
       style="fill:#37c871;fill-opacity:1;stroke:none"
       id="rect2989-1-38"
       width="25"
       height="75"
       x="625"
       y="727.36218" />
    <rect
       style="fill:#37c871;fill-opacity:1;stroke:none"
       id="rect2989-1-74"
       width="25"
       height="75"
       x="550"
       y="777.36218" />
    <rect
       style="fill:#37c871;fill-opacity:1;stroke:none"
       id="rect2989-1-277"
       width="25"
       height="75"
       x="500"
       y="627.36218" />
    <rect
       style="fill:#37c871;fill-opacity:1;stroke:none"
       id="rect2989-1-93"
       width="25"
       height="75"
       x="450"
       y="702.36218" />
    <rect
       style="fill:#37c871;fill-opacity:1;stroke:none"
       id="rect2989-1-19"
       width="25"
       height="75"
       x="500"
       y="802.36218" />
    <rect
       style="fill:#37c871;fill-opacity:1;stroke:none"
       id="rect2989-1-86"
       width="25"
       height="75"
       x="425"
       y="877.36218" />
    <rect
       style="fill:#37c871;fill-opacity:1;stroke:none"
       id="rect2989-1-50"
       width="25"
       height="75"
       x="350"
       y="877.36218" />
    <rect
       style="fill:#37c871;fill-opacity:1;stroke:none"
       id="rect2989-1-24"
       width="25"
       height="75"
       x="175"
       y="902.36218" />
    <rect
       style="fill:#37c871;fill-opacity:1;stroke:none"
       id="rect2989-1-865"
       width="25"
       height="75"
       x="100"
       y="952.36218" />
    <rect
       style="fill:#37c871;fill-opacity:1;stroke:none"
       id="rect2989-1-0"
       width="25"
       height="75"
       x="50"
       y="902.36218" />
    <rect
       style="fill:#37c871;fill-opacity:1;stroke:none"
       id="rect2989-1-06"
       width="25"
       height="75"
       x="550"
       y="402.36218" />
    <rect
       style="fill:#37c871;fill-opacity:1;stroke:none"
       id="rect2989-1-13"
       width="25"
       height="75"
       x="575"
       y="477.36218" />
    <rect
       style="fill:#37c871;fill-opacity:1;stroke:none"
       id="rect2989-1-893"
       width="25"
       height="75"
       x="600"
       y="552.36218" />
    <rect
       style="fill:#37c871;fill-opacity:1;stroke:none"
       id="rect2989-1-44"
       width="25"
       height="75"
       x="550"
       y="552.36218" />
    <rect
       style="fill:#37c871;fill-opacity:1;stroke:none"
       id="rect2989-1-60"
       width="25"
       height="75"
       x="675"
       y="452.36218" />
    <rect
       style="fill:#37c871;fill-opacity:1;stroke:none"
       id="rect2989-1-66"
       width="25"
       height="75"
       x="750"
       y="377.36218" />
    <rect
       style="fill:#37c871;fill-opacity:1;stroke:none"
       id="rect2989-1-18"
       width="25"
       height="75"
       x="725"
       y="502.36218" />
    <rect
       style="fill:#37c871;fill-opacity:1;stroke:none"
       id="rect2989-1-49"
       width="25"
       height="75"
       x="675"
       y="577.36218" />
    <rect
       style="fill:#37c871;fill-opacity:1;stroke:none"
       id="rect2989-1-78"
       width="25"
       height="75"
       x="575"
       y="652.36218" />
    <rect
       style="fill:#37c871;fill-opacity:1;stroke:none"
       id="rect2989-1-82"
       width="25"
       height="75"
       x="750"
       y="752.36218" />
    <rect
       style="fill:#37c871;fill-opacity:1;stroke:none"
       id="rect2989-1-91"
       width="25"
       height="75"
       x="750"
       y="852.36218" />
    <rect
       style="fill:#37c871;fill-opacity:1;stroke:none"
       id="rect2989-1-35"
       width="25"
       height="75"
       x="625"
       y="852.36218" />
    <rect
       style="fill:#37c871;fill-opacity:1;stroke:none"
       id="rect2989-1-98"
       width="25"
       height="75"
       x="550"
       y="902.36218" />
    <rect
       style="fill:#37c871;fill-opacity:1;stroke:none"
       id="rect2989-1-40"
       width="25"
       height="75"
       x="675"
       y="927.36218" />
    <rect
       style="fill:#37c871;fill-opacity:1;stroke:none"
       id="rect2989-1-763"
       width="25"
       height="75"
       x="850"
       y="802.36218" />
    <rect
       style="fill:#37c871;fill-opacity:1;stroke:none"
       id="rect2989-1-61"
       width="25"
       height="75"
       x="775"
       y="627.36218" />
    <rect
       style="fill:#37c871;fill-opacity:1;stroke:none"
       id="rect2989-1-542"
       width="25"
       height="75"
       x="700"
       y="627.36218" />
    <rect
       style="fill:#37c871;fill-opacity:1;stroke:none"
       id="rect2989-1-09"
       width="25"
       height="75"
       x="925"
       y="477.36218" />
    <rect
       style="fill:#37c871;fill-opacity:1;stroke:none"
       id="rect2989-1-73"
       width="25"
       height="75"
       x="850"
       y="427.36218" />
    <rect
       style="fill:#37c871;fill-opacity:1;stroke:none"
       id="rect2989-1-72"
       width="25"
       height="75"
       x="800"
       y="527.36218" />
    <rect
       style="fill:#37c871;fill-opacity:1;stroke:none"
       id="rect2989-1-601"
       width="25"
       height="75"
       x="900"
       y="577.36218" />
    <rect
       style="fill:#37c871;fill-opacity:1;stroke:none"
       id="rect2989-1-65"
       width="25"
       height="75"
       x="925"
       y="702.36218" />
    <rect
       style="fill:#37c871;fill-opacity:1;stroke:none"
       id="rect2989-1-75"
       width="25"
       height="75"
       x="825"
       y="677.36218" />
    <rect
       style="fill:#37c871;fill-opacity:1;stroke:none"
       id="rect2989-1-41"
       width="25"
       height="75"
       x="950"
       y="877.36218" />
    <rect
       style="fill:#37c871;fill-opacity:1;stroke:none"
       id="rect2989-1-20"
       width="25"
       height="75"
       x="875"
       y="902.36218" />
    <rect
       style="fill:#37c871;fill-opacity:1;stroke:none"
       id="rect2989-1-46"
       width="25"
       height="75"
       x="800"
       y="952.36218" />
    <rect
       style="fill:#37c871;fill-opacity:1;stroke:none"
       id="rect2989-1-7-9-0"
       width="25"
       height="75"
       x="427.36218"
       y="-175"
       transform="matrix(0,1,-1,0,0,0)" />
    <rect
       style="fill:#37c871;fill-opacity:1;stroke:none"
       id="rect2989-1-7-9-7"
       width="25"
       height="75"
       x="452.36218"
       y="-325"
       transform="matrix(0,1,-1,0,0,0)" />
    <rect
       style="fill:#37c871;fill-opacity:1;stroke:none"
       id="rect2989-1-7-9-1"
       width="25"
       height="75"
       x="602.36218"
       y="-325"
       transform="matrix(0,1,-1,0,0,0)" />
    <rect
       style="fill:#37c871;fill-opacity:1;stroke:none"
       id="rect2989-1-7-9-77"
       width="25"
       height="75"
       x="702.36218"
       y="-300"
       transform="matrix(0,1,-1,0,0,0)" />
    <rect
       style="fill:#37c871;fill-opacity:1;stroke:none"
       id="rect2989-1-7-9-773"
       width="25"
       height="75"
       x="877.36218"
       y="-325"
       transform="matrix(0,1,-1,0,0,0)" />
    <rect
       style="fill:#37c871;fill-opacity:1;stroke:none"
       id="rect2989-1-7-9-3"
       width="25"
       height="75"
       x="977.36218"
       y="-350"
       transform="matrix(0,1,-1,0,0,0)" />
    <rect
       style="fill:#37c871;fill-opacity:1;stroke:none"
       id="rect2989-1-7-9-5"
       width="25"
       height="75"
       x="802.36218"
       y="-450"
       transform="matrix(0,1,-1,0,0,0)" />
    <rect
       style="fill:#37c871;fill-opacity:1;stroke:none"
       id="rect2989-1-7-9-9"
       width="25"
       height="75"
       x="927.36218"
       y="-475"
       transform="matrix(0,1,-1,0,0,0)" />
    <rect
       style="fill:#37c871;fill-opacity:1;stroke:none"
       id="rect2989-1-7-9-98"
       width="25"
       height="75"
       x="827.36218"
       y="-575"
       transform="matrix(0,1,-1,0,0,0)" />
    <rect
       style="fill:#37c871;fill-opacity:1;stroke:none"
       id="rect2989-1-7-9-18"
       width="25"
       height="75"
       x="677.36218"
       y="-400"
       transform="matrix(0,1,-1,0,0,0)" />
    <rect
       style="fill:#37c871;fill-opacity:1;stroke:none"
       id="rect2989-1-7-9-2"
       width="25"
       height="75"
       x="752.36218"
       y="-475"
       transform="matrix(0,1,-1,0,0,0)" />
    <rect
       style="fill:#37c871;fill-opacity:1;stroke:none"
       id="rect2989-1-7-9-6"
       width="25"
       height="75"
       x="627.36218"
       y="-525"
       transform="matrix(0,1,-1,0,0,0)" />
    <rect
       style="fill:#37c871;fill-opacity:1;stroke:none"
       id="rect2989-1-7-9-60"
       width="25"
       height="75"
       x="552.36218"
       y="-475"
       transform="matrix(0,1,-1,0,0,0)" />
    <rect
       style="fill:#37c871;fill-opacity:1;stroke:none"
       id="rect2989-1-7-9-38"
       width="25"
       height="75"
       x="427.36218"
       y="-425"
       transform="matrix(0,1,-1,0,0,0)" />
    <rect
       style="fill:#37c871;fill-opacity:1;stroke:none"
       id="rect2989-1-7-9-01"
       width="25"
       height="75"
       x="452.36218"
       y="-550"
       transform="matrix(0,1,-1,0,0,0)" />
    <rect
       style="fill:#37c871;fill-opacity:1;stroke:none"
       id="rect2989-1-7-9-25"
       width="25"
       height="75"
       x="777.36218"
       y="-300"
       transform="matrix(0,1,-1,0,0,0)" />
    <rect
       style="fill:#37c871;fill-opacity:1;stroke:none"
       id="rect2989-1-7-9-09"
       width="25"
       height="75"
       x="727.36218"
       y="-250"
       transform="matrix(0,1,-1,0,0,0)" />
    <rect
       style="fill:#37c871;fill-opacity:1;stroke:none"
       id="rect2989-1-7-9-4"
       width="25"
       height="75"
       x="827.36218"
       y="-250"
       transform="matrix(0,1,-1,0,0,0)" />
    <rect
       style="fill:#37c871;fill-opacity:1;stroke:none"
       id="rect2989-1-7-9-78"
       width="25"
       height="75"
       x="927.36218"
       y="-600"
       transform="matrix(0,1,-1,0,0,0)" />
    <rect
       style="fill:#37c871;fill-opacity:1;stroke:none"
       id="rect2989-1-7-9-35"
       width="25"
       height="75"
       x="1002.3622"
       y="-525"
       transform="matrix(0,1,-1,0,0,0)" />
    <rect
       style="fill:#37c871;fill-opacity:1;stroke:none"
       id="rect2989-1-7-9-12"
       width="25"
       height="75"
       x="977.36218"
       y="-725"
       transform="matrix(0,1,-1,0,0,0)" />
    <rect
       style="fill:#37c871;fill-opacity:1;stroke:none"
       id="rect2989-1-7-9-016"
       width="25"
       height="75"
       x="852.36218"
       y="-675"
       transform="matrix(0,1,-1,0,0,0)" />
    <rect
       style="fill:#37c871;fill-opacity:1;stroke:none"
       id="rect2989-1-7-9-40"
       width="25"
       height="75"
       x="727.36218"
       y="-700"
       transform="matrix(0,1,-1,0,0,0)" />
    <rect
       style="fill:#37c871;fill-opacity:1;stroke:none"
       id="rect2989-1-7-9-61"
       width="25"
       height="75"
       x="777.36218"
       y="-725"
       transform="matrix(0,1,-1,0,0,0)" />
    <rect
       style="fill:#37c871;fill-opacity:1;stroke:none"
       id="rect2989-1-7-9-8"
       width="25"
       height="75"
       x="852.36218"
       y="-825"
       transform="matrix(0,1,-1,0,0,0)" />
    <rect
       style="fill:#37c871;fill-opacity:1;stroke:none"
       id="rect2989-1-7-9-984"
       width="25"
       height="75"
       x="902.36218"
       y="-775"
       transform="matrix(0,1,-1,0,0,0)" />
    <rect
       style="fill:#37c871;fill-opacity:1;stroke:none"
       id="rect2989-1-7-9-14"
       width="25"
       height="75"
       x="977.36218"
       y="-875"
       transform="matrix(0,1,-1,0,0,0)" />
    <rect
       style="fill:#37c871;fill-opacity:1;stroke:none"
       id="rect2989-1-7-9-39"
       width="25"
       height="75"
       x="927.36218"
       y="-900"
       transform="matrix(0,1,-1,0,0,0)" />
    <rect
       style="fill:#37c871;fill-opacity:1;stroke:none"
       id="rect2989-1-7-9-88"
       width="25"
       height="75"
       x="827.36218"
       y="-925"
       transform="matrix(0,1,-1,0,0,0)" />
    <rect
       style="fill:#37c871;fill-opacity:1;stroke:none"
       id="rect2989-1-7-9-08"
       width="25"
       height="75"
       x="752.36218"
       y="-925"
       transform="matrix(0,1,-1,0,0,0)" />
    <rect
       style="fill:#37c871;fill-opacity:1;stroke:none"
       id="rect2989-1-7-9-778"
       width="25"
       height="75"
       x="677.36218"
       y="-900"
       transform="matrix(0,1,-1,0,0,0)" />
    <rect
       style="fill:#37c871;fill-opacity:1;stroke:none"
       id="rect2989-1-7-9-383"
       width="25"
       height="75"
       x="752.36218"
       y="-825"
       transform="matrix(0,1,-1,0,0,0)" />
    <rect
       style="fill:#37c871;fill-opacity:1;stroke:none"
       id="rect2989-1-7-9-71"
       width="25"
       height="75"
       x="627.36218"
       y="-800"
       transform="matrix(0,1,-1,0,0,0)" />
    <rect
       style="fill:#37c871;fill-opacity:1;stroke:none"
       id="rect2989-1-7-9-07"
       width="25"
       height="75"
       x="727.36218"
       y="-600"
       transform="matrix(0,1,-1,0,0,0)" />
    <rect
       style="fill:#37c871;fill-opacity:1;stroke:none"
       id="rect2989-1-7-9-34"
       width="25"
       height="75"
       x="502.36218"
       y="-750"
       transform="matrix(0,1,-1,0,0,0)" />
    <rect
       style="fill:#37c871;fill-opacity:1;stroke:none"
       id="rect2989-1-7-9-96"
       width="25"
       height="75"
       x="427.36218"
       y="-775"
       transform="matrix(0,1,-1,0,0,0)" />
    <rect
       style="fill:#37c871;fill-opacity:1;stroke:none"
       id="rect2989-1-7-9-51"
       width="25"
       height="75"
       x="452.36218"
       y="-900"
       transform="matrix(0,1,-1,0,0,0)" />
    <rect
       style="fill:#37c871;fill-opacity:1;stroke:none"
       id="rect2989-1-7-9-68"
       width="25"
       height="75"
       x="477.36218"
       y="-975"
       transform="matrix(0,1,-1,0,0,0)" />
    <rect
       style="fill:#37c871;fill-opacity:1;stroke:none"
       id="rect2989-1-7-9-348"
       width="25"
       height="75"
       x="577.36218"
       y="-975"
       transform="matrix(0,1,-1,0,0,0)" />
    <rect
       style="fill:#37c871;fill-opacity:1;stroke:none"
       id="rect2989-1-7-9-49"
       width="25"
       height="75"
       x="527.36218"
       y="-875"
       transform="matrix(0,1,-1,0,0,0)" />
    <rect
       style="fill:#37c871;fill-opacity:1;stroke:none"
       id="rect2989-1-7-9-92"
       width="25"
       height="75"
       x="577.36218"
       y="-825"
       transform="matrix(0,1,-1,0,0,0)" />
    <rect
       style="fill:#37c871;fill-opacity:1;stroke:none"
       id="rect2989-1-7-9-55"
       width="25"
       height="75"
       x="627.36218"
       y="-975"
       transform="matrix(0,1,-1,0,0,0)" />
    <rect
       style="fill:#37c871;fill-opacity:1;stroke:none"
       id="rect2989-1-7-9-33"
       width="25"
       height="75"
       x="877.36218"
       y="-1000"
       transform="matrix(0,1,-1,0,0,0)" />
    <rect
       style="fill:#37c871;fill-opacity:1;stroke:none"
       id="rect2989-1-7-9-37"
       width="25"
       height="75"
       x="927.36218"
       y="-1000"
       transform="matrix(0,1,-1,0,0,0)" />
    <rect
       style="fill:#37c871;fill-opacity:1;stroke:none"
       id="rect2989-1-7-9-43"
       width="25"
       height="75"
       x="927.36218"
       y="-325"
       transform="matrix(0,1,-1,0,0,0)" />
    <rect
       style="fill:#37c871;fill-opacity:1;stroke:none"
       id="rect2989-1-7-9-80"
       width="25"
       height="75"
       x="827.36218"
       y="-350"
       transform="matrix(0,1,-1,0,0,0)" />
    <rect
       style="fill:#37c871;fill-opacity:1;stroke:none"
       id="rect2989-1-7-9-880"
       width="25"
       height="75"
       x="1002.3622"
       y="-175"
       transform="matrix(0,1,-1,0,0,0)" />
    <rect
       style="fill:#37c871;fill-opacity:1;stroke:none"
       id="rect2989-1-7-9-681"
       width="25"
       height="75"
       x="952.36218"
       y="-125"
       transform="matrix(0,1,-1,0,0,0)" />
    <rect
       style="fill:#37c871;fill-opacity:1;stroke:none"
       id="rect2989-1-7-9-989"
       width="25"
       height="75"
       x="827.36218"
       y="-100"
       transform="matrix(0,1,-1,0,0,0)" />
  </g>
</svg>
