<?xml version="1.0" encoding="UTF-8" standalone="no"?>
<!-- Created with Inkscape (http://www.inkscape.org/) -->

<svg
   xmlns:dc="http://purl.org/dc/elements/1.1/"
   xmlns:cc="http://creativecommons.org/ns#"
   xmlns:rdf="http://www.w3.org/1999/02/22-rdf-syntax-ns#"
   xmlns:svg="http://www.w3.org/2000/svg"
   xmlns="http://www.w3.org/2000/svg"
   xmlns:sodipodi="http://sodipodi.sourceforge.net/DTD/sodipodi-0.dtd"
   xmlns:inkscape="http://www.inkscape.org/namespaces/inkscape"
   width="600"
   height="700"
   id="svg2"
   version="1.1"
   inkscape:version="0.48.5 r10040"
   sodipodi:docname="locket.svg"
   inkscape:export-filename="H:\AdventureTime\ProgrammingTime\team-project\Assets\Textures\arts\Enviroment\level4_lab\locket.png"
   inkscape:export-xdpi="90"
   inkscape:export-ydpi="90">
  <defs
     id="defs4" />
  <sodipodi:namedview
     id="base"
     pagecolor="#ffffff"
     bordercolor="#666666"
     borderopacity="1.0"
     inkscape:pageopacity="0.0"
     inkscape:pageshadow="2"
     inkscape:zoom="0.77823178"
     inkscape:cx="392.99988"
     inkscape:cy="515.52296"
     inkscape:document-units="px"
     inkscape:current-layer="layer1"
     showgrid="true"
     showguides="true"
     inkscape:guide-bbox="true"
     inkscape:showpageshadow="false"
     inkscape:snap-bbox="true"
     inkscape:bbox-nodes="true"
     inkscape:window-width="1215"
     inkscape:window-height="1002"
     inkscape:window-x="57"
     inkscape:window-y="-8"
     inkscape:window-maximized="1">
    <inkscape:grid
       type="xygrid"
       id="grid2985"
       empspacing="1"
       visible="true"
       enabled="true"
       snapvisiblegridlinesonly="true"
       spacingx="25px"
       spacingy="25px" />
  </sodipodi:namedview>
  <metadata
     id="metadata7">
    <rdf:RDF>
      <cc:Work
         rdf:about="">
        <dc:format>image/svg+xml</dc:format>
        <dc:type
           rdf:resource="http://purl.org/dc/dcmitype/StillImage" />
        <dc:title></dc:title>
      </cc:Work>
    </rdf:RDF>
  </metadata>
  <g
     inkscape:label="Layer 1"
     inkscape:groupmode="layer"
     id="layer1"
     transform="translate(0,-352.36218)">
    <rect
       style="fill:#1a1a1a;fill-opacity:1;stroke:none"
       id="rect2989"
       width="550"
       height="49.999996"
       x="25"
       y="1002.3622" />
    <rect
       style="fill:#000000;fill-opacity:1;stroke:none"
       id="rect2987"
       width="600"
       height="25"
       x="0"
       y="675"
       transform="translate(0,352.36218)" />
    <rect
       style="fill:#005544;fill-opacity:1;stroke:none"
       id="rect2991"
       width="500"
       height="600"
       x="25"
       y="402.36218" />
    <rect
       style="fill:#00aa88;fill-opacity:1;stroke:none"
       id="rect3083-4"
       width="400"
       height="25"
       x="75"
       y="777.36218" />
    <rect
       style="fill:#00aa88;fill-opacity:1;stroke:none"
       id="rect3083"
       width="400"
       height="25"
       x="75"
       y="527.36218" />
    <rect
       style="fill:#00aa88;fill-opacity:1;stroke:none"
       id="rect3083-9"
       width="400"
       height="25"
       x="75"
       y="677.36218" />
    <rect
       style="fill:#00aa88;fill-opacity:1;stroke:none"
       id="rect3083-8"
       width="400"
       height="25"
       x="75"
       y="877.36218" />
    <rect
       style="fill:#d400b0;fill-opacity:1;stroke:none"
       id="rect3885"
       width="50"
       height="50"
       x="125"
       y="477.36218" />
    <rect
       style="fill:#0b0009;fill-opacity:1;stroke:none"
       id="rect3885-8"
       width="50"
       height="25"
       x="125"
       y="452.36218" />
    <rect
       style="fill:#d4c400;fill-opacity:1;stroke:none"
       id="rect3885-1-5"
       width="50"
       height="50"
       x="125"
       y="727.36218" />
    <rect
       style="fill:#0b0009;fill-opacity:1;stroke:none"
       id="rect3885-8-1-2"
       width="50"
       height="25"
       x="125"
       y="702.36218" />
    <rect
       style="fill:#001dd4;fill-opacity:1;stroke:none"
       id="rect3885-1"
       width="50"
       height="50"
       x="200"
       y="727.36218" />
    <rect
       style="fill:#0b0009;fill-opacity:1;stroke:none"
       id="rect3885-8-1"
       width="50"
       height="25"
       x="200"
       y="702.36218" />
    <rect
       style="fill:#803300;fill-opacity:1;stroke:none"
       id="rect4021"
       width="25"
       height="100"
       x="200"
       y="-100"
       transform="translate(0,352.36218)" />
    <rect
       style="fill:#aa0000;fill-opacity:1;stroke:none"
       id="rect4034"
       width="25"
       height="49.999996"
       x="200"
       y="277.36218" />
    <rect
       style="fill:#803300;fill-opacity:1;stroke:none"
       id="rect4021-7"
       width="25"
       height="100"
       x="150"
       y="577.36218" />
    <rect
       style="fill:#aa0000;fill-opacity:1;stroke:none"
       id="rect4034-6"
       width="25"
       height="49.999996"
       x="150"
       y="602.36218" />
    <rect
       style="fill:#803300;fill-opacity:1;stroke:none"
       id="rect4021-1"
       width="25"
       height="100"
       x="125"
       y="577.36218" />
    <rect
       style="fill:#aa0000;fill-opacity:1;stroke:none"
       id="rect4034-4"
       width="25"
       height="49.999996"
       x="125"
       y="602.36218" />
    <rect
       style="fill:#803300;fill-opacity:1;stroke:none"
       id="rect4021-2"
       width="25"
       height="100"
       x="175"
       y="577.36218" />
    <rect
       style="fill:#aa0000;fill-opacity:1;stroke:none"
       id="rect4034-3"
       width="25"
       height="49.999996"
       x="175"
       y="602.36218" />
    <rect
       style="fill:#803300;fill-opacity:1;stroke:none"
       id="rect4021-22"
       width="25"
       height="100"
       x="400"
       y="577.36218" />
    <rect
       style="fill:#aa0000;fill-opacity:1;stroke:none"
       id="rect4034-1"
       width="25"
       height="49.999996"
       x="400"
       y="602.36218" />
    <rect
       style="fill:#803300;fill-opacity:1;stroke:none"
       id="rect4021-6"
       width="25"
       height="100"
       x="350"
       y="577.36218" />
    <rect
       style="fill:#aa0000;fill-opacity:1;stroke:none"
       id="rect4034-8"
       width="25"
       height="49.999996"
       x="350"
       y="602.36218" />
    <rect
       style="fill:#803300;fill-opacity:1;stroke:none"
       id="rect4021-5"
       width="25"
       height="100"
       x="450"
       y="577.36218" />
    <rect
       style="fill:#aa0000;fill-opacity:1;stroke:none"
       id="rect4034-7"
       width="25"
       height="49.999996"
       x="450"
       y="602.36218" />
    <rect
       style="fill:#ff2a2a;fill-opacity:1;stroke:none"
       id="rect3885-6"
       width="50"
       height="50"
       x="375"
       y="827.36218" />
    <rect
       style="fill:#0b0009;fill-opacity:1;stroke:none"
       id="rect3885-8-18"
       width="50"
       height="25"
       x="375"
       y="802.36218" />
    <rect
       style="fill:#ff6600;fill-opacity:1;stroke:none"
       id="rect3885-6-7"
       width="50"
       height="50"
       x="200"
       y="827.36218" />
    <rect
       style="fill:#0b0009;fill-opacity:1;stroke:none"
       id="rect3885-8-18-9"
       width="50"
       height="25"
       x="200"
       y="802.36218" />
    <rect
       style="fill:#00d4aa;fill-opacity:0.4095745;stroke:none"
       id="rect2993"
       width="450"
       height="575"
       x="50"
       y="427.36218" />
    <path
       id="rect3039-0"
       style="fill:#002e1d;fill-opacity:1;stroke:none"
       d="m 75,602.36218 200,0 0,25 -200,0 z m -25,225 200,0 0,25 -200,0 z m 250,0 200,0 0,25 -200,0 z m 0,-225 200,0 0,25 -200,0 z m -25,-150 25,0 0,550.00002 -25,0 z m -25,0 25,0 0,550.00002 -25,0 z m -200,-25 25,0 0,575.00002 -25,0 z m 0,550 450,0 0,25.00002 -450,0 z m 425,-550 25,0 0,575.00002 -25,0 z m -425,0 450,0 0,25 -450,0 z"
       inkscape:connector-curvature="0" />
    <rect
       style="fill:#00ff00;fill-opacity:1;stroke:none"
       id="rect3079"
       width="50"
       height="75"
       x="250"
       y="677.36218" />
    <rect
       style="fill:#002e1d;fill-opacity:1;stroke:none"
       id="rect3081"
       width="50"
       height="25"
       x="250"
       y="702.36218" />
  </g>
</svg>
