<?xml version="1.0" encoding="UTF-8" standalone="no"?>
<!-- Created with Inkscape (http://www.inkscape.org/) -->

<svg
   xmlns:dc="http://purl.org/dc/elements/1.1/"
   xmlns:cc="http://creativecommons.org/ns#"
   xmlns:rdf="http://www.w3.org/1999/02/22-rdf-syntax-ns#"
   xmlns:svg="http://www.w3.org/2000/svg"
   xmlns="http://www.w3.org/2000/svg"
   xmlns:sodipodi="http://sodipodi.sourceforge.net/DTD/sodipodi-0.dtd"
   xmlns:inkscape="http://www.inkscape.org/namespaces/inkscape"
   width="600"
   height="900"
   id="svg2"
   version="1.1"
   inkscape:version="0.48.5 r10040"
   sodipodi:docname="doors.svg"
   inkscape:export-filename="H:\AdventureTime\ProgrammingTime\team-project\Assets\Textures\arts\Enviroment\doors\Nogzor_door.png"
   inkscape:export-xdpi="90"
   inkscape:export-ydpi="90">
  <defs
     id="defs4" />
  <sodipodi:namedview
     id="base"
     pagecolor="#ffffff"
     bordercolor="#666666"
     borderopacity="1.0"
     inkscape:pageopacity="0.0"
     inkscape:pageshadow="2"
     inkscape:zoom="0.22221303"
     inkscape:cx="1021.3323"
     inkscape:cy="972.18154"
     inkscape:document-units="px"
     inkscape:current-layer="g3044"
     showgrid="true"
     inkscape:showpageshadow="false"
     inkscape:window-width="1215"
     inkscape:window-height="1002"
     inkscape:window-x="57"
     inkscape:window-y="-8"
     inkscape:window-maximized="1">
    <inkscape:grid
       type="xygrid"
       id="grid2985"
       empspacing="1"
       visible="true"
       enabled="true"
       snapvisiblegridlinesonly="true"
       spacingx="25px"
       spacingy="25px" />
  </sodipodi:namedview>
  <metadata
     id="metadata7">
    <rdf:RDF>
      <cc:Work
         rdf:about="">
        <dc:format>image/svg+xml</dc:format>
        <dc:type
           rdf:resource="http://purl.org/dc/dcmitype/StillImage" />
        <dc:title></dc:title>
      </cc:Work>
    </rdf:RDF>
  </metadata>
  <g
     inkscape:label="prison"
     inkscape:groupmode="layer"
     id="layer1"
     transform="translate(0,-152.36217)"
     style="display:none"
     sodipodi:insensitive="true">
    <path
       id="rect3007"
       transform="translate(0,152.36217)"
       style="fill:#000000;fill-opacity:1;stroke:none"
       d="m 50,100 500,0 0,50 -500,0 z m 450,50.00001 50,0 0,750.00002 -50,0 z M 50,150 l 50,0 0,750 -50,0 z"
       inkscape:connector-curvature="0" />
    <rect
       style="fill:#666666;fill-opacity:1;stroke:none"
       id="rect3013"
       width="400"
       height="750"
       x="100"
       y="150"
       transform="translate(0,152.36217)" />
    <rect
       style="fill:#000000;fill-opacity:1;stroke:none"
       id="rect3015"
       width="50"
       height="100"
       x="425"
       y="627.36218" />
    <rect
       style="fill:#000000;fill-opacity:1;stroke:none"
       id="rect3015-7"
       width="50"
       height="100"
       x="150"
       y="427.36218" />
    <rect
       style="fill:#000000;fill-opacity:1;stroke:none"
       id="rect3015-4"
       width="50"
       height="100"
       x="150"
       y="827.36218" />
    <rect
       style="fill:#4d4d4d;fill-opacity:1;stroke:none"
       id="rect3015-7-0"
       width="50"
       height="100"
       x="50"
       y="427.36218" />
    <rect
       style="fill:#4d4d4d;fill-opacity:1;stroke:none"
       id="rect3015-4-9"
       width="50"
       height="100"
       x="50"
       y="827.36218" />
  </g>
  <g
     style="display:none"
     transform="translate(0,-152.36217)"
     id="g2994"
     inkscape:groupmode="layer"
     inkscape:label="train">
    <path
       inkscape:connector-curvature="0"
       d="m 50,100 500,0 0,50 -500,0 z m 450,50.00001 50,0 0,750.00002 -50,0 z M 50,150 l 50,0 0,750 -50,0 z"
       style="fill:#000000;fill-opacity:1;stroke:none"
       transform="translate(0,152.36217)"
       id="path2996" />
    <rect
       transform="translate(0,152.36217)"
       y="150"
       x="100"
       height="750"
       width="400"
       id="rect2998"
       style="fill:#d45500;fill-opacity:1;stroke:none" />
    <rect
       y="627.36218"
       x="425"
       height="100"
       width="50"
       id="rect3000"
       style="fill:#000000;fill-opacity:1;stroke:none" />
    <rect
       y="427.36218"
       x="150"
       height="100"
       width="50"
       id="rect3002"
       style="fill:#000000;fill-opacity:1;stroke:none" />
    <rect
       y="827.36218"
       x="150"
       height="100"
       width="50"
       id="rect3004"
       style="fill:#000000;fill-opacity:1;stroke:none" />
    <rect
       y="427.36218"
       x="50"
       height="100"
       width="50"
       id="rect3006"
       style="fill:#4d4d4d;fill-opacity:1;stroke:none" />
    <rect
       y="827.36218"
       x="50"
       height="100"
       width="50"
       id="rect3008"
       style="fill:#4d4d4d;fill-opacity:1;stroke:none" />
  </g>
  <g
     inkscape:label="underground"
     inkscape:groupmode="layer"
     id="g3012"
     transform="translate(0,-152.36217)"
     style="display:none">
    <path
       id="path3014"
       transform="translate(0,152.36217)"
       style="fill:#000000;fill-opacity:1;stroke:none"
       d="m 50,100 500,0 0,50 -500,0 z m 450,50.00001 50,0 0,750.00002 -50,0 z M 50,150 l 50,0 0,750 -50,0 z"
       inkscape:connector-curvature="0" />
    <rect
       style="fill:#6600ff;fill-opacity:1;stroke:none"
       id="rect3016"
       width="400"
       height="750"
       x="100"
       y="150"
       transform="translate(0,152.36217)" />
    <rect
       style="fill:#000000;fill-opacity:1;stroke:none"
       id="rect3018"
       width="50"
       height="100"
       x="425"
       y="627.36218" />
    <rect
       style="fill:#000000;fill-opacity:1;stroke:none"
       id="rect3020"
       width="50"
       height="100"
       x="150"
       y="427.36218" />
    <rect
       style="fill:#000000;fill-opacity:1;stroke:none"
       id="rect3022"
       width="50"
       height="100"
       x="150"
       y="827.36218" />
    <rect
       style="fill:#4d4d4d;fill-opacity:1;stroke:none"
       id="rect3024"
       width="50"
       height="100"
       x="50"
       y="427.36218" />
    <rect
       style="fill:#4d4d4d;fill-opacity:1;stroke:none"
       id="rect3026"
       width="50"
       height="100"
       x="50"
       y="827.36218" />
  </g>
  <g
     style="display:none"
     transform="translate(0,-152.36217)"
     id="g3028"
     inkscape:groupmode="layer"
     inkscape:label="lab">
    <path
       inkscape:connector-curvature="0"
       d="m 50,100 500,0 0,50 -500,0 z m 450,50.00001 50,0 0,750.00002 -50,0 z M 50,150 l 50,0 0,750 -50,0 z"
       style="fill:#000000;fill-opacity:1;stroke:none"
       transform="translate(0,152.36217)"
       id="path3030" />
    <rect
       transform="translate(0,152.36217)"
       y="150"
       x="100"
       height="750"
       width="400"
       id="rect3032"
       style="fill:#00aa44;fill-opacity:1;stroke:none" />
    <rect
       y="627.36218"
       x="425"
       height="100"
       width="50"
       id="rect3034"
       style="fill:#000000;fill-opacity:1;stroke:none" />
    <rect
       y="427.36218"
       x="150"
       height="100"
       width="50"
       id="rect3036"
       style="fill:#000000;fill-opacity:1;stroke:none" />
    <rect
       y="827.36218"
       x="150"
       height="100"
       width="50"
       id="rect3038"
       style="fill:#000000;fill-opacity:1;stroke:none" />
    <rect
       y="427.36218"
       x="50"
       height="100"
       width="50"
       id="rect3040"
       style="fill:#4d4d4d;fill-opacity:1;stroke:none" />
    <rect
       y="827.36218"
       x="50"
       height="100"
       width="50"
       id="rect3042"
       style="fill:#4d4d4d;fill-opacity:1;stroke:none" />
  </g>
  <g
     inkscape:label="nogzor"
     inkscape:groupmode="layer"
     id="g3044"
     transform="translate(0,-152.36217)"
     style="display:inline">
    <path
       id="path3046"
       transform="translate(0,152.36217)"
       style="fill:#000000;fill-opacity:1;stroke:none"
       d="m 50,100 500,0 0,50 -500,0 z m 450,50.00001 50,0 0,750.00002 -50,0 z M 50,150 l 50,0 0,750 -50,0 z"
       inkscape:connector-curvature="0" />
    <rect
       style="fill:#800000;fill-opacity:1;stroke:none"
       id="rect3048"
       width="400"
       height="750"
       x="100"
       y="150"
       transform="translate(0,152.36217)" />
    <rect
       style="fill:#000000;fill-opacity:1;stroke:none"
       id="rect3050"
       width="50"
       height="100"
       x="425"
       y="627.36218" />
    <rect
       style="fill:#000000;fill-opacity:1;stroke:none"
       id="rect3052"
       width="50"
       height="100"
       x="150"
       y="427.36218" />
    <rect
       style="fill:#000000;fill-opacity:1;stroke:none"
       id="rect3054"
       width="50"
       height="100"
       x="150"
       y="827.36218" />
    <rect
       style="fill:#4d4d4d;fill-opacity:1;stroke:none"
       id="rect3056"
       width="50"
       height="100"
       x="50"
       y="427.36218" />
    <rect
       style="fill:#4d4d4d;fill-opacity:1;stroke:none"
       id="rect3058"
       width="50"
       height="100"
       x="50"
       y="827.36218" />
  </g>
  <g
     transform="translate(0,-152.36217)"
     id="g3063"
     inkscape:groupmode="layer"
     inkscape:label="opened"
     style="display:none">
    <path
       d="m 50,100 500,0 0,50 -500,0 z m 450,50.00001 50,0 0,750.00002 -50,0 z M 50,150 l 50,0 0,750 -50,0 z"
       style="fill:#000000;fill-opacity:1;stroke:none"
       transform="translate(0,152.36217)"
       id="path3065"
       inkscape:connector-curvature="0" />
    <rect
       y="427.36218"
       x="50"
       height="100"
       width="50"
       id="rect3075"
       style="fill:#4d4d4d;fill-opacity:1;stroke:none" />
    <rect
       y="827.36218"
       x="50"
       height="100"
       width="50"
       id="rect3077"
       style="fill:#4d4d4d;fill-opacity:1;stroke:none" />
    <rect
       style="color:#000000;fill:#333333;fill-opacity:1;fill-rule:nonzero;stroke:none;stroke-width:1px;marker:none;visibility:visible;display:inline;overflow:visible;enable-background:accumulate"
       id="rect3010"
       width="400.31354"
       height="750"
       x="99.686455"
       y="302.36218" />
  </g>
</svg>
