<?xml version="1.0" encoding="UTF-8" standalone="no"?>
<!-- Created with Inkscape (http://www.inkscape.org/) -->

<svg
   xmlns:dc="http://purl.org/dc/elements/1.1/"
   xmlns:cc="http://creativecommons.org/ns#"
   xmlns:rdf="http://www.w3.org/1999/02/22-rdf-syntax-ns#"
   xmlns:svg="http://www.w3.org/2000/svg"
   xmlns="http://www.w3.org/2000/svg"
   xmlns:sodipodi="http://sodipodi.sourceforge.net/DTD/sodipodi-0.dtd"
   xmlns:inkscape="http://www.inkscape.org/namespaces/inkscape"
   width="800"
   height="700"
   id="svg2"
   version="1.1"
   inkscape:version="0.48.5 r10040"
   sodipodi:docname="marksman-idle.svg"
   inkscape:export-filename="H:\AdventureTime\ProgrammingTime\team-project\Assets\Animation\marksman-idle.png"
   inkscape:export-xdpi="90"
   inkscape:export-ydpi="90">
  <defs
     id="defs4" />
  <sodipodi:namedview
     id="base"
     pagecolor="#ffffff"
     bordercolor="#666666"
     borderopacity="1.0"
     inkscape:pageopacity="0.0"
     inkscape:pageshadow="2"
     inkscape:zoom="0.55587984"
     inkscape:cx="345.97479"
     inkscape:cy="480.86859"
     inkscape:document-units="px"
     inkscape:current-layer="g7041"
     showgrid="true"
     inkscape:window-width="1215"
     inkscape:window-height="1002"
     inkscape:window-x="57"
     inkscape:window-y="-8"
     inkscape:window-maximized="1"
     borderlayer="false"
     inkscape:showpageshadow="false"
     inkscape:snap-bbox="true"
     inkscape:bbox-nodes="true">
    <inkscape:grid
       empspacing="1"
       visible="true"
       enabled="true"
       snapvisiblegridlinesonly="true"
       spacingx="25px"
       spacingy="25px"
       type="xygrid"
       id="grid2992" />
  </sodipodi:namedview>
  <metadata
     id="metadata7">
    <rdf:RDF>
      <cc:Work
         rdf:about="">
        <dc:format>image/svg+xml</dc:format>
        <dc:type
           rdf:resource="http://purl.org/dc/dcmitype/StillImage" />
        <dc:title />
      </cc:Work>
    </rdf:RDF>
  </metadata>
  <g
     inkscape:label="Layer 1"
     inkscape:groupmode="layer"
     id="layer1"
     transform="translate(0,-352.36218)"
     style="display:none">
    <path
       inkscape:connector-curvature="0"
       id="rect4742-9"
       style="fill:#000000;fill-opacity:1;stroke:none"
       d="m 76.028932,577.36218 -25,0 0,25 25,0 z m 0,-100 -25,0 0,25 25,0 z m 99.999998,0 -25,0 0,25 25,0 z m -50,50 -25,0 0,25 25,0 z m -74.999998,-25 0,75 25,0 0,-25 24.999998,0 0,-25 25,0 0,25 25,0 0,25 25,0 0,-75 z m 99.999998,75 -25,0 0,-25 25,0 z m -74.999998,-75 -25,0 m 124.999998,0 -25,0 m 25,25 -124.999998,0 0,25 0,25 25,0 0,-25 24.999998,0 75,0 z m -75,-25 -24.999998,0 0,-25 -25,0 0,50 49.999998,0 z m 75,-25 -25,0 0,25 -25,0 0,25 50,0 z" />
    <path
       id="path3000"
       style="fill:none;stroke:none"
       d="m 176.02893,527.36218 -124.999998,0 0,25 0,25 25,0 0,-25 24.999998,0 75,0 z m -75,-25 -24.999998,0 0,-25 -25,0 0,50 49.999998,0 z m 75,-25 -25,0 0,25 -25,0 0,25 50,0 z"
       inkscape:connector-curvature="0" />
    <path
       style="fill:none;stroke:none"
       d="m 176.02893,502.36218 -25,0"
       id="path3005"
       inkscape:connector-curvature="0" />
    <path
       style="fill:#1a1a1a;stroke:none"
       d="m 76.028932,502.36218 -25,0"
       id="path3007"
       inkscape:connector-curvature="0" />
    <path
       style="fill:#800000;stroke:none"
       d="m 151.02893,577.36218 -25,0 0,-25 25,0 z"
       id="path3019"
       inkscape:connector-curvature="0" />
    <path
       id="rect3790"
       style="fill:#ece1ad;fill-opacity:1;stroke:none"
       d="m 126.02893,652.36218 -25,0 0,25 25,0 z m 25,-100 0,25 25,0 0,25 -25,0 0,25 0,25 -74.999998,0 0,-100 74.999998,0"
       inkscape:connector-curvature="0" />
    <rect
       style="fill:#ff0000;fill-opacity:1;stroke:none"
       id="rect3796"
       width="25"
       height="25"
       x="-151.02893"
       y="552.36218"
       transform="scale(-1,1)" />
    <rect
       style="fill:#5f8dd3;fill-opacity:1;stroke:none"
       id="rect3818"
       width="25"
       height="175"
       x="-151.02893"
       y="677.36218"
       transform="scale(-1,1)" />
    <rect
       style="fill:#5f8dd3;fill-opacity:1;stroke:none"
       id="rect3818-1"
       width="25"
       height="175"
       x="-101.02893"
       y="677.36218"
       transform="scale(-1,1)" />
    <rect
       style="fill:#a8a8ff;fill-opacity:1;stroke:none"
       id="rect3838"
       width="25"
       height="175"
       x="-126.02893"
       y="677.36218"
       transform="scale(-1,1)" />
    <rect
       style="fill:#5f8dd3;fill-opacity:1;stroke:none"
       id="rect3840"
       width="125"
       height="25"
       x="-276.02893"
       y="677.36218"
       transform="scale(-1,1)" />
    <path
       style="fill:#000000;fill-opacity:1;stroke:none"
       d="m 201.02893,652.36218 25,0 0,-25 25,0 0,-25 50,0 0,25 100,0 0,25 -100,0 0,75 -25,0 0,-50 -50,0 -25,0 0,-25"
       id="path3858"
       inkscape:connector-curvature="0" />
    <rect
       style="fill:#ece1ad;fill-opacity:1;stroke:none"
       id="rect3856"
       width="25"
       height="25"
       x="-226.02893"
       y="677.36218"
       transform="scale(-1,1)" />
    <rect
       style="fill:#ece1ad;fill-opacity:1;stroke:none"
       id="rect3856-9"
       width="25"
       height="25"
       x="-301.02893"
       y="677.36218"
       transform="scale(-1,1)" />
    <path
       id="rect3905-4"
       style="fill:#000000;fill-opacity:1;stroke:none"
       d="m 101.02893,902.36218 -24.999998,0 0,25 24.999998,0 z m 50,0 -25,0 0,25 25,0 z m 0,-50 -74.999998,0 0,50 74.999998,0 z"
       inkscape:connector-curvature="0" />
    <rect
       style="fill:#ece1ad;fill-opacity:1;stroke:none"
       id="rect3856-8"
       width="25"
       height="100"
       x="-151.02893"
       y="927.36218"
       transform="scale(-1,1)" />
    <rect
       style="fill:#ece1ad;fill-opacity:1;stroke:none"
       id="rect3856-8-8"
       width="25"
       height="100"
       x="-101.02893"
       y="927.36218"
       transform="scale(-1,1)" />
    <path
       id="rect3856-4"
       style="fill:#ffffce;fill-opacity:1;stroke:none"
       d="m 151.02893,1027.3622 -25,0 0,25 25,0 z m 25,0 -25,0 0,25 25,0 z"
       inkscape:connector-curvature="0" />
    <rect
       style="fill:#803300;fill-opacity:1;stroke:none"
       id="rect3856-5"
       width="25"
       height="25"
       x="-126.02893"
       y="1027.3622"
       transform="scale(-1,1)" />
    <rect
       style="fill:#ece1ad;fill-opacity:1;stroke:none"
       id="rect3856-51"
       width="25"
       height="25"
       x="-101.02893"
       y="1027.3622"
       transform="scale(-1,1)" />
    <path
       style="fill:none;stroke:#000000;stroke-width:1px;stroke-linecap:butt;stroke-linejoin:miter;stroke-opacity:1"
       d="m 276.02893,627.36218 c -50,0 -50,0 -50,0"
       id="path4031"
       inkscape:connector-curvature="0" />
    <rect
       style="fill:#ece1ad;fill-opacity:1;stroke:none"
       id="rect3856-5-8"
       width="25"
       height="25"
       x="-176.02893"
       y="1027.3622"
       transform="scale(-1,1)" />
    <rect
       style="fill:#ff0000;fill-opacity:1;stroke:none"
       id="rect3796-1"
       width="25"
       height="25"
       x="-151.02893"
       y="627.36218"
       transform="scale(-1,1)" />
    <rect
       style="fill:#ffffce;fill-opacity:1;stroke:none"
       id="rect3856-1"
       width="25"
       height="25"
       x="-151.02893"
       y="652.36218"
       transform="scale(-1,1)" />
    <path
       id="rect7021-2"
       style="fill:#ff8080;fill-opacity:1;stroke:none;display:inline"
       d="m 409.9236,627.16754 25,0 0,25 -25,0 z m -2.14288,15.71448 25.00001,0 0,25 -25.00001,0 z m -0.35685,-32.14325 25.00001,0 0,25 -25.00001,0 z"
       inkscape:connector-curvature="0" />
    <rect
       y="627.31012"
       x="401.20963"
       height="25"
       width="25"
       id="rect7021-9"
       style="fill:#ff0000;fill-opacity:1;stroke:none;display:inline" />
    <path
       id="rect7021-9-38"
       style="fill:#ff0000;fill-opacity:1;stroke:none;display:inline"
       d="m 475,537.37259 -15.00723,0 0,15.01041 15.00723,0 z m 0,-30.02083 -15.00723,0 0,15.01042 15.00723,0 z m 0,-15.01041 -15.00723,0 0,15.01041 15.00723,0 z m 0,-15.01041 -15.00723,0 0,15.01041 15.00723,0 z m -30.01447,0 -15.00723,0 0,15.01041 15.00723,0 z m 0,15.01041 -15.00723,0 0,15.01041 15.00723,0 z m 0,15.01041 -15.00723,0 0,15.01042 15.00723,0 z m 0,15.01042 -15.00723,0 0,15.01041 15.00723,0 z m -15.00723,15.01041 -15.00723,0 0,15.01041 15.00723,0 z m -15.00723,-45.03124 -15.00723,0 0,15.01041 15.00723,0 z m 0,15.01041 -15.00723,0 0,15.01042 15.00723,0 z m 0,15.01042 -15.00723,0 0,15.01041 15.00723,0 z m 0,15.01041 -15.00723,0 0,15.01041 15.00723,0 z m -15.00723,0 -15.00723,0 0,15.01041 15.00723,0 z m -15.00723,-15.01041 -15.00723,0 0,15.01041 15.00723,0 z m 0,-15.01042 -15.00723,0 0,15.01042 15.00723,0 z m 0,-15.01041 -15.00723,0 0,15.01041 15.00723,0 z m 0,-15.01041 -15.00723,0 0,15.01041 15.00723,0 z m -119.94938,60.07291 -15.00723,0 0,15.01041 15.00723,0 z m 90.04338,0 -15.00723,0 0,15.01041 15.00723,0 z m -15.00723,0 -15.00723,0 0,15.01041 15.00723,0 z m -15.00723,0 -15.00723,0 0,15.01041 15.00723,0 z m 30.01446,-30.02083 -15.00723,0 0,15.01041 15.00723,0 z m -15.00723,0 -15.00723,0 0,15.01041 15.00723,0 z m -15.00723,15.01041 -15.00723,0 0,15.01042 15.00723,0 z m 0,-15.01041 -15.00723,0 0,15.01041 15.00723,0 z m 0,-15.01041 -15.00723,0 0,15.01041 15.00723,0 z m 30.01446,-15.01041 -15.00723,0 0,15.01041 15.00723,0 z m -15.00723,0 -15.00723,0 0,15.01041 15.00723,0 z m -15.00723,0 -15.00723,0 0,15.01041 15.00723,0 z m -45.02169,30.02082 -15.00723,0 0,15.01041 15.00723,0 z m 15.00723,0 -15.00723,0 0,15.01041 15.00723,0 z m 0,-15.01041 -15.00723,0 0,15.01041 15.00723,0 z m 0,-15.01041 -15.00723,0 0,15.01041 15.00723,0 z m -15.00723,0 -15.00723,0 0,15.01041 15.00723,0 z m -15.00723,0 -15.00723,0 0,15.01041 15.00723,0 z m 0,45.03123 -15.00723,0 0,15.01042 15.00723,0 z m 0,-15.01041 -15.00723,0 0,15.01041 15.00723,0 z m 0,-15.01041 -15.00723,0 0,15.01041 15.00723,0 z"
       inkscape:connector-curvature="0" />
    <rect
       style="fill:#803300;fill-opacity:1;stroke:none;display:inline"
       id="rect3856-5-1"
       width="25"
       height="25"
       x="-176.02893"
       y="1027.3622"
       transform="scale(-1,1)" />
  </g>
  <g
     transform="translate(0,-352.36218)"
     id="g7041"
     inkscape:groupmode="layer"
     inkscape:label="Layer 1 copy"
     style="display:inline">
    <path
       d="m 757,577.36218 25,0 0,25 -25,0 z m 0,-100 25,0 0,25 -25,0 z m -100,0 25,0 0,25 -25,0 z m 50,50 25,0 0,25 -25,0 z m 75,-25 0,75 -25,0 0,-25 -25,0 0,-25 -25,0 0,25 -25,0 0,25 -25,0 0,-75 z m -100,75 25,0 0,-25 -25,0 z m 75,-75 25,0 m -125,0 25,0 m -25,25 125,0 0,25 0,25 -25,0 0,-25 -25,0 -75,0 z m 75,-25 25,0 0,-25 25,0 0,50 -50,0 z m -75,-25 25,0 0,25 25,0 0,25 -50,0 z"
       style="fill:#000000;fill-opacity:1;stroke:none"
       id="path7043"
       inkscape:connector-curvature="0" />
    <path
       inkscape:connector-curvature="0"
       d="m 657,527.36218 125,0 0,25 0,25 -25,0 0,-25 -25,0 -75,0 z m 75,-25 25,0 0,-25 25,0 0,50 -50,0 z m -75,-25 25,0 0,25 25,0 0,25 -50,0 z"
       style="fill:none;stroke:none"
       id="path7045" />
    <path
       inkscape:connector-curvature="0"
       id="path7047"
       d="m 657,502.36218 25,0"
       style="fill:none;stroke:none" />
    <path
       inkscape:connector-curvature="0"
       id="path7049"
       d="m 757,502.36218 25,0"
       style="fill:#1a1a1a;stroke:none" />
    <path
       inkscape:connector-curvature="0"
       id="path7051"
       d="m 682,577.36218 25,0 0,-25 -25,0 z"
       style="fill:#800000;stroke:none" />
    <path
       inkscape:connector-curvature="0"
       d="m 707,652.36218 25,0 0,25 -25,0 z m -25,-100 0,25 -25,0 0,25 25,0 0,25 0,25 75,0 0,-100 -75,0"
       style="fill:#ece1ad;fill-opacity:1;stroke:none"
       id="path7053" />
    <rect
       y="552.36218"
       x="682"
       height="25"
       width="25"
       id="rect7055"
       style="fill:#ff0000;fill-opacity:1;stroke:none" />
    <rect
       y="677.36218"
       x="682"
       height="175"
       width="25"
       id="rect7057"
       style="fill:#5f8dd3;fill-opacity:1;stroke:none" />
    <rect
       y="677.36218"
       x="732"
       height="175"
       width="25"
       id="rect7059"
       style="fill:#5f8dd3;fill-opacity:1;stroke:none" />
    <rect
       y="677.36218"
       x="707"
       height="175"
       width="25"
       id="rect7061"
       style="fill:#a8a8ff;fill-opacity:1;stroke:none" />
    <rect
       y="677.36218"
       x="557"
       height="25"
       width="125"
       id="rect7063"
       style="fill:#5f8dd3;fill-opacity:1;stroke:none" />
    <path
       inkscape:connector-curvature="0"
       id="path7065"
       d="m 632,652.36218 -25,0 0,-25 -25,0 0,-25 -50,0 0,25 -100,0 0,25 100,0 0,75 25,0 0,-50 50,0 25,0 0,-25"
       style="fill:#000000;fill-opacity:1;stroke:none" />
    <rect
       y="677.36218"
       x="607"
       height="25"
       width="25"
       id="rect7067"
       style="fill:#ece1ad;fill-opacity:1;stroke:none" />
    <rect
       y="677.36218"
       x="532"
       height="25"
       width="25"
       id="rect7069"
       style="fill:#ece1ad;fill-opacity:1;stroke:none" />
    <path
       d="m 732,902.36218 25,0 0,25 -25,0 z m -50,0 25,0 0,25 -25,0 z m 0,-50 75,0 0,50 -75,0 z"
       style="fill:#000000;fill-opacity:1;stroke:none"
       id="path7071"
       inkscape:connector-curvature="0" />
    <rect
       y="927.36218"
       x="682"
       height="100"
       width="25"
       id="rect7073"
       style="fill:#ece1ad;fill-opacity:1;stroke:none" />
    <rect
       y="927.36218"
       x="732"
       height="100"
       width="25"
       id="rect7075"
       style="fill:#ece1ad;fill-opacity:1;stroke:none" />
    <path
       d="m 682,1027.3622 25,0 0,25 -25,0 z m -25,0 25,0 0,25 -25,0 z"
       style="fill:#ffffce;fill-opacity:1;stroke:none"
       id="path7077"
       inkscape:connector-curvature="0" />
    <rect
       y="1027.3622"
       x="707"
       height="25"
       width="25"
       id="rect7079"
       style="fill:#803300;fill-opacity:1;stroke:none" />
    <rect
       y="1027.3622"
       x="732"
       height="25"
       width="25"
       id="rect7081"
       style="fill:#ece1ad;fill-opacity:1;stroke:none" />
    <path
       inkscape:connector-curvature="0"
       id="path7083"
       d="m 557,627.36218 c 50,0 50,0 50,0"
       style="fill:none;stroke:#000000;stroke-width:1px;stroke-linecap:butt;stroke-linejoin:miter;stroke-opacity:1" />
    <rect
       y="1027.3622"
       x="657"
       height="25"
       width="25"
       id="rect7085"
       style="fill:#ece1ad;fill-opacity:1;stroke:none" />
    <rect
       y="1027.3622"
       x="657"
       height="25"
       width="25"
       id="rect7079-6"
       style="fill:#803300;fill-opacity:1;stroke:none;display:inline" />
    <path
       d="m 351,577.36218 25,0 0,25 -25,0 z m 0,-100 25,0 0,25 -25,0 z m -100,0 25,0 0,25 -25,0 z m 50,50 25,0 0,25 -25,0 z m 75,-25 0,75 -25,0 0,-25 -25,0 0,-25 -25,0 0,25 -25,0 0,25 -25,0 0,-75 z m -100,75 25,0 0,-25 -25,0 z m 75,-75 25,0 m -125,0 25,0 m -25,25 125,0 0,25 0,25 -25,0 0,-25 -25,0 -75,0 z m 75,-25 25,0 0,-25 25,0 0,50 -50,0 z m -75,-25 25,0 0,25 25,0 0,25 -50,0 z"
       style="fill:#000000;fill-opacity:1;stroke:none;display:inline"
       id="path7043-3"
       inkscape:connector-curvature="0" />
    <path
       inkscape:connector-curvature="0"
       d="m 251,527.36218 125,0 0,25 0,25 -25,0 0,-25 -25,0 -75,0 z m 75,-25 25,0 0,-25 25,0 0,50 -50,0 z m -75,-25 25,0 0,25 25,0 0,25 -50,0 z"
       style="fill:none;stroke:none;display:inline"
       id="path7045-2" />
    <path
       inkscape:connector-curvature="0"
       id="path7047-2"
       d="m 251,502.36218 25,0"
       style="fill:none;stroke:none;display:inline" />
    <path
       inkscape:connector-curvature="0"
       id="path7049-1"
       d="m 351,502.36218 25,0"
       style="fill:#1a1a1a;stroke:none;display:inline" />
    <path
       inkscape:connector-curvature="0"
       id="path7051-6"
       d="m 276,577.36218 25,0 0,-25 -25,0 z"
       style="fill:#800000;stroke:none;display:inline" />
    <path
       inkscape:connector-curvature="0"
       d="m 301,652.36218 25,0 0,25 -25,0 z m -25,-100 0,25 -25,0 0,25 25,0 0,25 0,25 75,0 0,-100 -75,0"
       style="fill:#ece1ad;fill-opacity:1;stroke:none;display:inline"
       id="path7053-8" />
    <rect
       y="552.36218"
       x="276"
       height="25"
       width="25"
       id="rect7055-5"
       style="fill:#ff0000;fill-opacity:1;stroke:none;display:inline" />
    <rect
       y="677.36218"
       x="276"
       height="175"
       width="25"
       id="rect7057-7"
       style="fill:#5f8dd3;fill-opacity:1;stroke:none;display:inline" />
    <rect
       y="677.36218"
       x="326"
       height="175"
       width="25"
       id="rect7059-6"
       style="fill:#5f8dd3;fill-opacity:1;stroke:none;display:inline" />
    <rect
       y="677.36218"
       x="301"
       height="175"
       width="25"
       id="rect7061-1"
       style="fill:#a8a8ff;fill-opacity:1;stroke:none;display:inline" />
    <rect
       y="677.36218"
       x="151"
       height="25"
       width="125"
       id="rect7063-8"
       style="fill:#5f8dd3;fill-opacity:1;stroke:none;display:inline" />
    <path
       inkscape:connector-curvature="0"
       id="path7065-9"
       d="m 226,652.36218 -25,0 0,-25 -25,0 0,-25 -50,0 0,25 -100,0 0,25 100,0 0,75 25,0 0,-50 50,0 25,0 0,-25"
       style="fill:#000000;fill-opacity:1;stroke:none;display:inline" />
    <rect
       y="677.36218"
       x="201"
       height="25"
       width="25"
       id="rect7067-2"
       style="fill:#ece1ad;fill-opacity:1;stroke:none;display:inline" />
    <rect
       y="677.36218"
       x="126"
       height="25"
       width="25"
       id="rect7069-7"
       style="fill:#ece1ad;fill-opacity:1;stroke:none;display:inline" />
    <path
       d="m 326,902.36218 25,0 0,25 -25,0 z m -50,0 25,0 0,25 -25,0 z m 0,-50 75,0 0,50 -75,0 z"
       style="fill:#000000;fill-opacity:1;stroke:none;display:inline"
       id="path7071-9"
       inkscape:connector-curvature="0" />
    <rect
       y="927.36218"
       x="276"
       height="100"
       width="25"
       id="rect7073-5"
       style="fill:#ece1ad;fill-opacity:1;stroke:none;display:inline" />
    <rect
       y="927.36218"
       x="326"
       height="100"
       width="25"
       id="rect7075-4"
       style="fill:#ece1ad;fill-opacity:1;stroke:none;display:inline" />
    <path
       d="m 276,1027.3622 25,0 0,25 -25,0 z m -25,0 25,0 0,25 -25,0 z"
       style="fill:#ffffce;fill-opacity:1;stroke:none;display:inline"
       id="path7077-3"
       inkscape:connector-curvature="0" />
    <rect
       y="1027.3622"
       x="301"
       height="25"
       width="25"
       id="rect7079-1"
       style="fill:#803300;fill-opacity:1;stroke:none;display:inline" />
    <rect
       y="1027.3622"
       x="326"
       height="25"
       width="25"
       id="rect7081-2"
       style="fill:#ece1ad;fill-opacity:1;stroke:none;display:inline" />
    <path
       inkscape:connector-curvature="0"
       id="path7083-3"
       d="m 151,627.36218 c 50,0 50,0 50,0"
       style="fill:none;stroke:#000000;stroke-width:1px;stroke-linecap:butt;stroke-linejoin:miter;stroke-opacity:1;display:inline" />
    <rect
       y="1027.3622"
       x="251"
       height="25"
       width="25"
       id="rect7085-3"
       style="fill:#ece1ad;fill-opacity:1;stroke:none;display:inline" />
    <rect
       y="1027.3622"
       x="251"
       height="25"
       width="25"
       id="rect7079-6-4"
       style="fill:#803300;fill-opacity:1;stroke:none;display:inline" />
  </g>
</svg>
