<?xml version="1.0" encoding="UTF-8" standalone="no"?>
<!-- Created with Inkscape (http://www.inkscape.org/) -->

<svg
   xmlns:dc="http://purl.org/dc/elements/1.1/"
   xmlns:cc="http://creativecommons.org/ns#"
   xmlns:rdf="http://www.w3.org/1999/02/22-rdf-syntax-ns#"
   xmlns:svg="http://www.w3.org/2000/svg"
   xmlns="http://www.w3.org/2000/svg"
   xmlns:sodipodi="http://sodipodi.sourceforge.net/DTD/sodipodi-0.dtd"
   xmlns:inkscape="http://www.inkscape.org/namespaces/inkscape"
   width="1500"
   height="700"
   id="svg3035"
   version="1.1"
   inkscape:version="0.48.5 r10040"
   sodipodi:docname="marksman-shoot.svg"
   inkscape:export-filename="H:\AdventureTime\ProgrammingTime\team-project\Assets\Animation\marksman-shoot.png"
   inkscape:export-xdpi="90"
   inkscape:export-ydpi="90">
  <defs
     id="defs3037" />
  <sodipodi:namedview
     id="base"
     pagecolor="#ffffff"
     bordercolor="#666666"
     borderopacity="1.0"
     inkscape:pageopacity="0.0"
     inkscape:pageshadow="2"
     inkscape:zoom="0.27793992"
     inkscape:cx="523.03264"
     inkscape:cy="945.55931"
     inkscape:document-units="px"
     inkscape:current-layer="layer1"
     showgrid="true"
     inkscape:showpageshadow="false"
     inkscape:window-width="1215"
     inkscape:window-height="1002"
     inkscape:window-x="57"
     inkscape:window-y="-8"
     inkscape:window-maximized="1">
    <inkscape:grid
       type="xygrid"
       id="grid3043"
       empspacing="1"
       visible="true"
       enabled="true"
       snapvisiblegridlinesonly="true"
       spacingx="25px"
       spacingy="25px" />
  </sodipodi:namedview>
  <metadata
     id="metadata3040">
    <rdf:RDF>
      <cc:Work
         rdf:about="">
        <dc:format>image/svg+xml</dc:format>
        <dc:type
           rdf:resource="http://purl.org/dc/dcmitype/StillImage" />
        <dc:title />
      </cc:Work>
    </rdf:RDF>
  </metadata>
  <g
     inkscape:label="Layer 1"
     inkscape:groupmode="layer"
     id="layer1"
     transform="translate(0,-352.36218)">
    <path
       d="m 1425,577.36218 25,0 0,25 -25,0 z m 0,-100 25,0 0,25 -25,0 z m -100,0 25,0 0,25 -25,0 z m 50,50 25,0 0,25 -25,0 z m 75,-25 0,75 -25,0 0,-25 -25,0 0,-25 -25,0 0,25 -25,0 0,25 -25,0 0,-75 z m -100,75 25,0 0,-25 -25,0 z m 75,-75 25,0 m -125,0 25,0 m -25,25 125,0 0,25 0,25 -25,0 0,-25 -25,0 -75,0 z m 75,-25 25,0 0,-25 25,0 0,50 -50,0 z m -75,-25 25,0 0,25 25,0 0,25 -50,0 z"
       style="fill:#000000;fill-opacity:1;stroke:none;display:inline"
       id="path7043"
       inkscape:connector-curvature="0" />
    <path
       inkscape:connector-curvature="0"
       d="m 1325,527.36218 125,0 0,25 0,25 -25,0 0,-25 -25,0 -75,0 z m 75,-25 25,0 0,-25 25,0 0,50 -50,0 z m -75,-25 25,0 0,25 25,0 0,25 -50,0 z"
       style="fill:none;stroke:none;display:inline"
       id="path7045" />
    <path
       inkscape:connector-curvature="0"
       id="path7047"
       d="m 1325,502.36218 25,0"
       style="fill:none;stroke:none;display:inline" />
    <path
       inkscape:connector-curvature="0"
       id="path7049"
       d="m 1425,502.36218 25,0"
       style="fill:#1a1a1a;stroke:none;display:inline" />
    <path
       inkscape:connector-curvature="0"
       id="path7051"
       d="m 1350,577.36218 25,0 0,-25 -25,0 z"
       style="fill:#800000;stroke:none;display:inline" />
    <path
       inkscape:connector-curvature="0"
       d="m 1375,652.36218 25,0 0,25 -25,0 z m -25,-100 0,25 -25,0 0,25 25,0 0,25 0,25 75,0 0,-100 -75,0"
       style="fill:#ece1ad;fill-opacity:1;stroke:none;display:inline"
       id="path7053" />
    <rect
       y="552.36218"
       x="1350"
       height="25"
       width="25"
       id="rect7055"
       style="fill:#ff0000;fill-opacity:1;stroke:none;display:inline" />
    <rect
       y="677.36218"
       x="1350"
       height="175"
       width="25"
       id="rect7057"
       style="fill:#5f8dd3;fill-opacity:1;stroke:none;display:inline" />
    <rect
       y="677.36218"
       x="1400"
       height="175"
       width="25"
       id="rect7059"
       style="fill:#5f8dd3;fill-opacity:1;stroke:none;display:inline" />
    <rect
       y="677.36218"
       x="1375"
       height="175"
       width="25"
       id="rect7061"
       style="fill:#a8a8ff;fill-opacity:1;stroke:none;display:inline" />
    <rect
       y="677.36218"
       x="1225"
       height="25"
       width="125"
       id="rect7063"
       style="fill:#5f8dd3;fill-opacity:1;stroke:none;display:inline" />
    <path
       inkscape:connector-curvature="0"
       id="path7065"
       d="m 1300,652.36218 -25,0 0,-25 -25,0 0,-25 -50,0 0,25 -100,0 0,25 100,0 0,75 25,0 0,-50 50,0 25,0 0,-25"
       style="fill:#000000;fill-opacity:1;stroke:none;display:inline" />
    <rect
       y="677.36218"
       x="1275"
       height="25"
       width="25"
       id="rect7067"
       style="fill:#ece1ad;fill-opacity:1;stroke:none;display:inline" />
    <rect
       y="677.36218"
       x="1200"
       height="25"
       width="25"
       id="rect7069"
       style="fill:#ece1ad;fill-opacity:1;stroke:none;display:inline" />
    <path
       d="m 1400,902.36218 25,0 0,25 -25,0 z m -50,0 25,0 0,25 -25,0 z m 0,-50 75,0 0,50 -75,0 z"
       style="fill:#000000;fill-opacity:1;stroke:none;display:inline"
       id="path7071"
       inkscape:connector-curvature="0" />
    <rect
       y="927.36218"
       x="1350"
       height="100"
       width="25"
       id="rect7073"
       style="fill:#ece1ad;fill-opacity:1;stroke:none;display:inline" />
    <rect
       y="927.36218"
       x="1400"
       height="100"
       width="25"
       id="rect7075"
       style="fill:#ece1ad;fill-opacity:1;stroke:none;display:inline" />
    <path
       d="m 1350,1027.3622 25,0 0,25 -25,0 z m -25,0 25,0 0,25 -25,0 z"
       style="fill:#ffffce;fill-opacity:1;stroke:none;display:inline"
       id="path7077"
       inkscape:connector-curvature="0" />
    <rect
       y="1027.3622"
       x="1375"
       height="25"
       width="25"
       id="rect7079"
       style="fill:#803300;fill-opacity:1;stroke:none;display:inline" />
    <rect
       y="1027.3622"
       x="1400"
       height="25"
       width="25"
       id="rect7081"
       style="fill:#ece1ad;fill-opacity:1;stroke:none;display:inline" />
    <path
       inkscape:connector-curvature="0"
       id="path7083"
       d="m 1225,627.36218 c 50,0 50,0 50,0"
       style="fill:none;stroke:#000000;stroke-width:1px;stroke-linecap:butt;stroke-linejoin:miter;stroke-opacity:1;display:inline" />
    <rect
       y="1027.3622"
       x="1325"
       height="25"
       width="25"
       id="rect7085"
       style="fill:#ece1ad;fill-opacity:1;stroke:none;display:inline" />
    <rect
       y="1027.3622"
       x="1325"
       height="25"
       width="25"
       id="rect7079-6"
       style="fill:#803300;fill-opacity:1;stroke:none;display:inline" />
    <path
       inkscape:connector-curvature="0"
       id="rect4742-9"
       style="fill:#000000;fill-opacity:1;stroke:none;display:inline"
       d="m 948.97107,577.36218 25,0 0,25 -25,0 z m 0,-100 25,0 0,25 -25,0 z m -100,0 25,0 0,25 -25,0 z m 50,50 25,0 0,25 -25,0 z m 75,-25 0,75 -25,0 0,-25 -25,0 0,-25 -25,0 0,25 -25,0 0,25 -25,0 0,-75 z m -100,75 25,0 0,-25 -25,0 z m 75,-75 25,0 m -125,0 25,0 m -25,25 125,0 0,25 0,25 -25,0 0,-25 -25,0 -75,0 z m 75,-25 25,0 0,-25 25,0 0,50 -50,0 z m -75,-25 25,0 0,25 25,0 0,25 -50,0 z" />
    <path
       id="path3000"
       style="fill:none;stroke:none;display:inline"
       d="m 848.97107,527.36218 125,0 0,25 0,25 -25,0 0,-25 -25,0 -75,0 z m 75,-25 25,0 0,-25 25,0 0,50 -50,0 z m -75,-25 25,0 0,25 25,0 0,25 -50,0 z"
       inkscape:connector-curvature="0" />
    <path
       style="fill:none;stroke:none;display:inline"
       d="m 848.97107,502.36218 25,0"
       id="path3005"
       inkscape:connector-curvature="0" />
    <path
       style="fill:#1a1a1a;stroke:none;display:inline"
       d="m 948.97107,502.36218 25,0"
       id="path3007"
       inkscape:connector-curvature="0" />
    <path
       style="fill:#800000;stroke:none;display:inline"
       d="m 873.97107,577.36218 25,0 0,-25 -25,0 z"
       id="path3019"
       inkscape:connector-curvature="0" />
    <path
       id="rect3790"
       style="fill:#ece1ad;fill-opacity:1;stroke:none;display:inline"
       d="m 898.97107,652.36218 25,0 0,25 -25,0 z m -25,-100 0,25 -25,0 0,25 25,0 0,25 0,25 75,0 0,-100 -75,0"
       inkscape:connector-curvature="0" />
    <rect
       style="fill:#ff0000;fill-opacity:1;stroke:none;display:inline"
       id="rect3796"
       width="25"
       height="25"
       x="873.97107"
       y="552.36218" />
    <rect
       style="fill:#5f8dd3;fill-opacity:1;stroke:none;display:inline"
       id="rect3818"
       width="25"
       height="175"
       x="873.97107"
       y="677.36218" />
    <rect
       style="fill:#5f8dd3;fill-opacity:1;stroke:none;display:inline"
       id="rect3818-1"
       width="25"
       height="175"
       x="923.97107"
       y="677.36218" />
    <rect
       style="fill:#a8a8ff;fill-opacity:1;stroke:none;display:inline"
       id="rect3838"
       width="25"
       height="175"
       x="898.97107"
       y="677.36218" />
    <rect
       style="fill:#5f8dd3;fill-opacity:1;stroke:none;display:inline"
       id="rect3840"
       width="125"
       height="25"
       x="748.97107"
       y="677.36218" />
    <path
       style="fill:#000000;fill-opacity:1;stroke:none;display:inline"
       d="m 823.97107,652.36218 -25,0 0,-25 -25,0 0,-25 -50,0 0,25 -100,0 0,25 100,0 0,75 25,0 0,-50 50,0 25,0 0,-25"
       id="path3858"
       inkscape:connector-curvature="0" />
    <rect
       style="fill:#ece1ad;fill-opacity:1;stroke:none;display:inline"
       id="rect3856"
       width="25"
       height="25"
       x="798.97107"
       y="677.36218" />
    <rect
       style="fill:#ece1ad;fill-opacity:1;stroke:none;display:inline"
       id="rect3856-9"
       width="25"
       height="25"
       x="723.97107"
       y="677.36218" />
    <path
       id="rect3905-4"
       style="fill:#000000;fill-opacity:1;stroke:none;display:inline"
       d="m 923.97107,902.36218 25,0 0,25 -25,0 z m -50,0 25,0 0,25 -25,0 z m 0,-50 75,0 0,50 -75,0 z"
       inkscape:connector-curvature="0" />
    <rect
       style="fill:#ece1ad;fill-opacity:1;stroke:none;display:inline"
       id="rect3856-8"
       width="25"
       height="100"
       x="873.97107"
       y="927.36218" />
    <rect
       style="fill:#ece1ad;fill-opacity:1;stroke:none;display:inline"
       id="rect3856-8-8"
       width="25"
       height="100"
       x="923.97107"
       y="927.36218" />
    <path
       id="rect3856-4"
       style="fill:#ffffce;fill-opacity:1;stroke:none;display:inline"
       d="m 873.97107,1027.3622 25,0 0,25 -25,0 z m -25,0 25,0 0,25 -25,0 z"
       inkscape:connector-curvature="0" />
    <rect
       style="fill:#803300;fill-opacity:1;stroke:none;display:inline"
       id="rect3856-5"
       width="25"
       height="25"
       x="898.97107"
       y="1027.3622" />
    <rect
       style="fill:#ece1ad;fill-opacity:1;stroke:none;display:inline"
       id="rect3856-51"
       width="25"
       height="25"
       x="923.97107"
       y="1027.3622" />
    <path
       style="fill:none;stroke:#000000;stroke-width:1px;stroke-linecap:butt;stroke-linejoin:miter;stroke-opacity:1;display:inline"
       d="m 748.97107,627.36218 c 50,0 50,0 50,0"
       id="path4031"
       inkscape:connector-curvature="0" />
    <rect
       style="fill:#ece1ad;fill-opacity:1;stroke:none;display:inline"
       id="rect3856-5-8"
       width="25"
       height="25"
       x="848.97107"
       y="1027.3622" />
    <rect
       style="fill:#ff0000;fill-opacity:1;stroke:none;display:inline"
       id="rect3796-1"
       width="25"
       height="25"
       x="873.97107"
       y="627.36218" />
    <rect
       style="fill:#ffffce;fill-opacity:1;stroke:none;display:inline"
       id="rect3856-1"
       width="25"
       height="25"
       x="873.97107"
       y="652.36218" />
    <path
       id="rect7021-2"
       style="fill:#ff8080;fill-opacity:1;stroke:none;display:inline"
       d="m 615.0764,627.16754 -25,0 0,25 25,0 z m 2.14288,15.71448 -25.00001,0 0,25 25.00001,0 z m 0.35685,-32.14325 -25.00001,0 0,25 25.00001,0 z"
       inkscape:connector-curvature="0" />
    <rect
       y="627.31012"
       x="-623.79034"
       height="25"
       width="25"
       id="rect7021-9"
       style="fill:#ff0000;fill-opacity:1;stroke:none;display:inline"
       transform="scale(-1,1)" />
    <path
       id="rect7021-9-38"
       style="fill:#ff0000;fill-opacity:1;stroke:none;display:inline"
       d="m 775,537.37259 -15.00723,0 0,15.01041 15.00723,0 z m 0,-30.02083 -15.00723,0 0,15.01042 15.00723,0 z m 0,-15.01041 -15.00723,0 0,15.01041 15.00723,0 z m 0,-15.01041 -15.00723,0 0,15.01041 15.00723,0 z m -30.01447,0 -15.00723,0 0,15.01041 15.00723,0 z m 0,15.01041 -15.00723,0 0,15.01041 15.00723,0 z m 0,15.01041 -15.00723,0 0,15.01042 15.00723,0 z m 0,15.01042 -15.00723,0 0,15.01041 15.00723,0 z m -15.00723,15.01041 -15.00723,0 0,15.01041 15.00723,0 z m -15.00723,-45.03124 -15.00723,0 0,15.01041 15.00723,0 z m 0,15.01041 -15.00723,0 0,15.01042 15.00723,0 z m 0,15.01042 -15.00723,0 0,15.01041 15.00723,0 z m 0,15.01041 -15.00723,0 0,15.01041 15.00723,0 z m -15.00723,0 -15.00723,0 0,15.01041 15.00723,0 z m -15.00723,-15.01041 -15.00723,0 0,15.01041 15.00723,0 z m 0,-15.01042 -15.00723,0 0,15.01042 15.00723,0 z m 0,-15.01041 -15.00723,0 0,15.01041 15.00723,0 z m 0,-15.01041 -15.00723,0 0,15.01041 15.00723,0 z m -119.94938,60.07291 -15.00723,0 0,15.01041 15.00723,0 z m 90.04338,0 -15.00723,0 0,15.01041 15.00723,0 z m -15.00723,0 -15.00723,0 0,15.01041 15.00723,0 z m -15.00723,0 -15.00723,0 0,15.01041 15.00723,0 z m 30.01446,-30.02083 -15.00723,0 0,15.01041 15.00723,0 z m -15.00723,0 -15.00723,0 0,15.01041 15.00723,0 z m -15.00723,15.01041 -15.00723,0 0,15.01042 15.00723,0 z m 0,-15.01041 -15.00723,0 0,15.01041 15.00723,0 z m 0,-15.01041 -15.00723,0 0,15.01041 15.00723,0 z m 30.01446,-15.01041 -15.00723,0 0,15.01041 15.00723,0 z m -15.00723,0 -15.00723,0 0,15.01041 15.00723,0 z m -15.00723,0 -15.00723,0 0,15.01041 15.00723,0 z m -45.02169,30.02082 -15.00723,0 0,15.01041 15.00723,0 z m 15.00723,0 -15.00723,0 0,15.01041 15.00723,0 z m 0,-15.01041 -15.00723,0 0,15.01041 15.00723,0 z m 0,-15.01041 -15.00723,0 0,15.01041 15.00723,0 z m -15.00723,0 -15.00723,0 0,15.01041 15.00723,0 z m -15.00723,0 -15.00723,0 0,15.01041 15.00723,0 z m 0,45.03123 -15.00723,0 0,15.01042 15.00723,0 z m 0,-15.01041 -15.00723,0 0,15.01041 15.00723,0 z m 0,-15.01041 -15.00723,0 0,15.01041 15.00723,0 z"
       inkscape:connector-curvature="0" />
    <rect
       style="fill:#803300;fill-opacity:1;stroke:none;display:inline"
       id="rect3856-5-1"
       width="25"
       height="25"
       x="848.97107"
       y="1027.3622" />
    <path
       d="m 400,577.36218 25,0 0,25 -25,0 z m 0,-100 25,0 0,25 -25,0 z m -100,0 25,0 0,25 -25,0 z m 50,50 25,0 0,25 -25,0 z m 75,-25 0,75 -25,0 0,-25 -25,0 0,-25 -25,0 0,25 -25,0 0,25 -25,0 0,-75 z m -100,75 25,0 0,-25 -25,0 z m 75,-75 25,0 m -125,0 25,0 m -25,25 125,0 0,25 0,25 -25,0 0,-25 -25,0 -75,0 z m 75,-25 25,0 0,-25 25,0 0,50 -50,0 z m -75,-25 25,0 0,25 25,0 0,25 -50,0 z"
       style="fill:#000000;fill-opacity:1;stroke:none;display:inline"
       id="path7043-7"
       inkscape:connector-curvature="0" />
    <path
       inkscape:connector-curvature="0"
       d="m 300,527.36218 125,0 0,25 0,25 -25,0 0,-25 -25,0 -75,0 z m 75,-25 25,0 0,-25 25,0 0,50 -50,0 z m -75,-25 25,0 0,25 25,0 0,25 -50,0 z"
       style="fill:none;stroke:none;display:inline"
       id="path7045-4" />
    <path
       inkscape:connector-curvature="0"
       id="path7047-0"
       d="m 300,502.36218 25,0"
       style="fill:none;stroke:none;display:inline" />
    <path
       inkscape:connector-curvature="0"
       id="path7049-9"
       d="m 400,502.36218 25,0"
       style="fill:#1a1a1a;stroke:none;display:inline" />
    <path
       inkscape:connector-curvature="0"
       id="path7051-4"
       d="m 325,577.36218 25,0 0,-25 -25,0 z"
       style="fill:#800000;stroke:none;display:inline" />
    <path
       inkscape:connector-curvature="0"
       d="m 350,652.36218 25,0 0,25 -25,0 z m -25,-100 0,25 -25,0 0,25 25,0 0,25 0,25 75,0 0,-100 -75,0"
       style="fill:#ece1ad;fill-opacity:1;stroke:none;display:inline"
       id="path7053-8" />
    <rect
       y="552.36218"
       x="325"
       height="25"
       width="25"
       id="rect7055-8"
       style="fill:#ff0000;fill-opacity:1;stroke:none;display:inline" />
    <rect
       y="677.36218"
       x="325"
       height="175"
       width="25"
       id="rect7057-2"
       style="fill:#5f8dd3;fill-opacity:1;stroke:none;display:inline" />
    <rect
       y="677.36218"
       x="375"
       height="175"
       width="25"
       id="rect7059-4"
       style="fill:#5f8dd3;fill-opacity:1;stroke:none;display:inline" />
    <rect
       y="677.36218"
       x="350"
       height="175"
       width="25"
       id="rect7061-5"
       style="fill:#a8a8ff;fill-opacity:1;stroke:none;display:inline" />
    <rect
       y="677.36218"
       x="200"
       height="25"
       width="125"
       id="rect7063-5"
       style="fill:#5f8dd3;fill-opacity:1;stroke:none;display:inline" />
    <path
       inkscape:connector-curvature="0"
       id="path7065-1"
       d="m 275,652.36218 -25,0 0,-25 -25,0 0,-25 -50,0 0,25 -100,0 0,25 100,0 0,75 25,0 0,-50 50,0 25,0 0,-25"
       style="fill:#000000;fill-opacity:1;stroke:none;display:inline" />
    <rect
       y="677.36218"
       x="250"
       height="25"
       width="25"
       id="rect7067-7"
       style="fill:#ece1ad;fill-opacity:1;stroke:none;display:inline" />
    <rect
       y="677.36218"
       x="175"
       height="25"
       width="25"
       id="rect7069-1"
       style="fill:#ece1ad;fill-opacity:1;stroke:none;display:inline" />
    <path
       d="m 375,902.36218 25,0 0,25 -25,0 z m -50,0 25,0 0,25 -25,0 z m 0,-50 75,0 0,50 -75,0 z"
       style="fill:#000000;fill-opacity:1;stroke:none;display:inline"
       id="path7071-1"
       inkscape:connector-curvature="0" />
    <rect
       y="927.36218"
       x="325"
       height="100"
       width="25"
       id="rect7073-5"
       style="fill:#ece1ad;fill-opacity:1;stroke:none;display:inline" />
    <rect
       y="927.36218"
       x="375"
       height="100"
       width="25"
       id="rect7075-2"
       style="fill:#ece1ad;fill-opacity:1;stroke:none;display:inline" />
    <path
       d="m 325,1027.3622 25,0 0,25 -25,0 z m -25,0 25,0 0,25 -25,0 z"
       style="fill:#ffffce;fill-opacity:1;stroke:none;display:inline"
       id="path7077-7"
       inkscape:connector-curvature="0" />
    <rect
       y="1027.3622"
       x="350"
       height="25"
       width="25"
       id="rect7079-61"
       style="fill:#803300;fill-opacity:1;stroke:none;display:inline" />
    <rect
       y="1027.3622"
       x="375"
       height="25"
       width="25"
       id="rect7081-4"
       style="fill:#ece1ad;fill-opacity:1;stroke:none;display:inline" />
    <path
       inkscape:connector-curvature="0"
       id="path7083-2"
       d="m 200,627.36218 c 50,0 50,0 50,0"
       style="fill:none;stroke:#000000;stroke-width:1px;stroke-linecap:butt;stroke-linejoin:miter;stroke-opacity:1;display:inline" />
    <rect
       y="1027.3622"
       x="300"
       height="25"
       width="25"
       id="rect7085-3"
       style="fill:#ece1ad;fill-opacity:1;stroke:none;display:inline" />
    <rect
       y="1027.3622"
       x="300"
       height="25"
       width="25"
       id="rect7079-6-2"
       style="fill:#803300;fill-opacity:1;stroke:none;display:inline" />
  </g>
</svg>
