<?xml version="1.0" encoding="UTF-8" standalone="no"?>
<!-- Created with Inkscape (http://www.inkscape.org/) -->

<svg
   xmlns:dc="http://purl.org/dc/elements/1.1/"
   xmlns:cc="http://creativecommons.org/ns#"
   xmlns:rdf="http://www.w3.org/1999/02/22-rdf-syntax-ns#"
   xmlns:svg="http://www.w3.org/2000/svg"
   xmlns="http://www.w3.org/2000/svg"
   xmlns:sodipodi="http://sodipodi.sourceforge.net/DTD/sodipodi-0.dtd"
   xmlns:inkscape="http://www.inkscape.org/namespaces/inkscape"
   width="575"
   height="325"
   id="svg2"
   version="1.1"
   inkscape:version="0.48.5 r10040"
   sodipodi:docname="attractor.svg"
   inkscape:export-filename="H:\AdventureTime\ProgrammingTime\team-project\InkscapeProjects\Enemies\attractor\attractor.png"
   inkscape:export-xdpi="100"
   inkscape:export-ydpi="100">
  <defs
     id="defs4" />
  <sodipodi:namedview
     id="base"
     pagecolor="#ffffff"
     bordercolor="#666666"
     borderopacity="1.0"
     inkscape:pageopacity="0.0"
     inkscape:pageshadow="2"
     inkscape:zoom="0.77823178"
     inkscape:cx="204.64168"
     inkscape:cy="246.57465"
     inkscape:document-units="px"
     inkscape:current-layer="layer1"
     showgrid="true"
     inkscape:showpageshadow="false"
     inkscape:window-width="1215"
     inkscape:window-height="1002"
     inkscape:window-x="57"
     inkscape:window-y="-8"
     inkscape:window-maximized="1">
    <inkscape:grid
       type="xygrid"
       id="grid2985"
       empspacing="1"
       visible="true"
       enabled="true"
       snapvisiblegridlinesonly="true"
       spacingx="25px"
       spacingy="25px" />
  </sodipodi:namedview>
  <metadata
     id="metadata7">
    <rdf:RDF>
      <cc:Work
         rdf:about="">
        <dc:format>image/svg+xml</dc:format>
        <dc:type
           rdf:resource="http://purl.org/dc/dcmitype/StillImage" />
        <dc:title></dc:title>
      </cc:Work>
    </rdf:RDF>
  </metadata>
  <g
     inkscape:label="Layer 1"
     inkscape:groupmode="layer"
     id="layer1"
     transform="translate(0,-727.36218)">
    <path
       id="rect2987-7-4"
       style="fill:#004455;fill-opacity:1"
       d="m 125,777.36218 325,0 0,25 -325,0 z m -25,-25 375,0 0,25 -375,0 z m -50,-25 475,0 0,25 -475,0 z" />
    <rect
       style="fill:#004455;fill-opacity:1"
       id="rect3047"
       width="375"
       height="25"
       x="100"
       y="802.36218" />
    <rect
       style="fill:#004455;fill-opacity:1"
       id="rect3051"
       width="25"
       height="50"
       x="50"
       y="150"
       transform="translate(0,727.36218)" />
    <rect
       style="fill:#005e77;fill-opacity:1"
       id="rect3053"
       width="25"
       height="50"
       x="75"
       y="200"
       transform="translate(0,727.36218)" />
    <rect
       style="fill:#004455;fill-opacity:1"
       id="rect3057"
       width="25"
       height="50"
       x="500"
       y="150"
       transform="translate(0,727.36218)" />
    <rect
       style="fill:#005e77;fill-opacity:1"
       id="rect3059"
       width="25"
       height="50"
       x="475"
       y="200"
       transform="translate(0,727.36218)" />
    <path
       id="rect3065"
       transform="translate(0,727.36218)"
       style="fill:#00556a;fill-opacity:1"
       d="m 100,100 375,0 0,25 -375,0 z m 375,0 25,0 0,50 -25,0 z m -400,0 25,0 0,50 -25,0 z" />
    <path
       id="rect3061-0-9"
       style="fill:#007290;fill-opacity:1"
       d="m 425,1027.3622 25,0 0,25 -25,0 z m -300,0 25,0 0,25 -25,0 z m 325,-50.00002 25,0 0,50.00002 -25,0 z m -350,0 25,0 0,50.00002 -25,0 z" />
    <rect
       style="fill:#007290;fill-opacity:1"
       id="rect3107"
       width="75"
       height="25"
       x="150"
       y="852.36218" />
    <rect
       style="fill:#007290;fill-opacity:1"
       id="rect3109"
       width="25"
       height="25"
       x="175"
       y="150"
       transform="translate(0,727.36218)" />
    <rect
       style="fill:#007290;fill-opacity:1"
       id="rect3107-4"
       width="75"
       height="25"
       x="250"
       y="852.36218" />
    <rect
       style="fill:#007290;fill-opacity:1"
       id="rect3109-8"
       width="25"
       height="25"
       x="275"
       y="877.36218" />
    <rect
       style="fill:#007290;fill-opacity:1"
       id="rect3107-8"
       width="75"
       height="25"
       x="350"
       y="852.36218" />
    <rect
       style="fill:#007290;fill-opacity:1"
       id="rect3109-2"
       width="25"
       height="25"
       x="375"
       y="877.36218" />
    <path
       id="rect3407-60-5"
       style="fill:#ff0000;fill-opacity:1;stroke:none"
       d="m 394.5,792.36218 7.5,0 0,10 -7.5,0 z m 0,-40 7.5,0 0,30 -7.5,0 z m -22.5,0 7.5,0 0,50 -7.5,0 z m 7.5,0 7.5,0 0,10 -7.5,0 z m -15,0 7.5,0 0,10 -7.5,0 z m -15,0 7.5,0 0,10 -7.5,0 z m 0,10 7.5,0 0,10 -7.5,0 z m 0,10 7.5,0 0,10 -7.5,0 z m 0,10 7.5,0 0,10 -7.5,0 z m 0,10 7.5,0 0,10 -7.5,0 z m -7.5,0 7.5,0 0,10 -7.5,0 z m -7.5,-10 7.5,0 0,10 -7.5,0 z m 0,10 7.5,0 0,10 -7.5,0 z m 0,-20 7.5,0 0,10 -7.5,0 z m 0,-10 7.5,0 0,10 -7.5,0 z m 0,-10 7.5,0 0,10 -7.5,0 z m -22.5,0 7.5,0 0,10 -7.5,0 z m 7.5,0 7.5,0 0,10 -7.5,0 z m 0,10 7.5,0 0,10 -7.5,0 z m 0,10 7.5,0 0,10 -7.5,0 z m 0,10 7.5,0 0,10 -7.5,0 z m 0,10 7.5,0 0,10 -7.5,0 z m -7.5,0 7.5,0 0,10 -7.5,0 z m -7.5,0 7.5,0 0,10 -7.5,0 z m 0,-10 7.5,0 0,10 -7.5,0 z m 0,-10 7.5,0 0,10 -7.5,0 z m 0,-10 7.5,0 0,10 -7.5,0 z m 0,-10 7.5,0 0,10 -7.5,0 z m -30,20 7.5,0 0,10 -7.5,0 z m 7.5,0 7.5,0 0,10 -7.5,0 z m 0,-20 7.5,0 0,10 -7.5,0 z m 0,10 7.5,0 0,10 -7.5,0 z m -7.5,-10 7.5,0 0,10 -7.5,0 z m -7.5,0 7.5,0 0,50 -7.5,0 z m -15,40 7.5,0 0,10 -7.5,0 z m -7.5,0 7.5,0 0,10 -7.5,0 z m 7.5,-20 7.5,0 0,10 -7.5,0 z m -7.5,0 7.5,0 0,10 -7.5,0 z m 7.5,-20 7.5,0 0,10 -7.5,0 z m -7.5,0 7.5,0 0,10 -7.5,0 z m -7.5,40 7.5,0 0,10 -7.5,0 z m 0,-10 7.5,0 0,10 -7.5,0 z m 0,-10 7.5,0 0,10 -7.5,0 z m 0,-10 7.5,0 0,10 -7.5,0 z m 0,-10 7.5,0 0,10 -7.5,0 z m -15,40 7.5,0 0,10 -7.5,0 z m -7.5,0 7.5,0 0,10 -7.5,0 z m 7.5,-20 7.5,0 0,10 -7.5,0 z m -7.5,0 7.5,0 0,10 -7.5,0 z m 7.5,-20 7.5,0 0,10 -7.5,0 z m -7.5,0 7.5,0 0,10 -7.5,0 z m -7.5,40 7.5,0 0,10 -7.5,0 z m 0,-10 7.5,0 0,10 -7.5,0 z m 0,-10 7.5,0 0,10 -7.5,0 z m 0,-10 7.5,0 0,10 -7.5,0 z m 0,-10 7.5,0 0,10 -7.5,0 z m -15,40 7.5,0 0,10 -7.5,0 z m 0,-10 7.5,0 0,10 -7.5,0 z m 0,-30 7.5,0 0,10 -7.5,0 z m 0,10 7.5,0 0,10 -7.5,0 z m -7.5,10 7.5,0 0,10 -7.5,0 z m -7.5,-20 7.5,0 0,50 -7.5,0 z"
       inkscape:connector-curvature="0" />
    <rect
       style="fill:#007290;fill-opacity:1"
       id="rect3109-4"
       width="25"
       height="25"
       x="175"
       y="902.36218" />
    <rect
       style="fill:#007290;fill-opacity:1"
       id="rect3109-5"
       width="25"
       height="25"
       x="275"
       y="902.36218" />
    <rect
       style="fill:#007290;fill-opacity:1"
       id="rect3109-51"
       width="25"
       height="25"
       x="375"
       y="902.36218" />
  </g>
</svg>
