<?xml version="1.0" encoding="UTF-8" standalone="no"?>
<!-- Created with Inkscape (http://www.inkscape.org/) -->

<svg
   xmlns:dc="http://purl.org/dc/elements/1.1/"
   xmlns:cc="http://creativecommons.org/ns#"
   xmlns:rdf="http://www.w3.org/1999/02/22-rdf-syntax-ns#"
   xmlns:svg="http://www.w3.org/2000/svg"
   xmlns="http://www.w3.org/2000/svg"
   xmlns:sodipodi="http://sodipodi.sourceforge.net/DTD/sodipodi-0.dtd"
   xmlns:inkscape="http://www.inkscape.org/namespaces/inkscape"
   width="700"
   height="400"
   id="svg2"
   version="1.1"
   inkscape:version="0.48.5 r10040"
   sodipodi:docname="tube.svg"
   inkscape:export-filename="H:\AdventureTime\ProgrammingTime\team-project\Assets\Textures\arts\Enviroment\level3_underground\tube.png"
   inkscape:export-xdpi="100"
   inkscape:export-ydpi="100">
  <defs
     id="defs4" />
  <sodipodi:namedview
     id="base"
     pagecolor="#ffffff"
     bordercolor="#666666"
     borderopacity="1.0"
     inkscape:pageopacity="0.0"
     inkscape:pageshadow="2"
     inkscape:zoom="0.86520672"
     inkscape:cx="41.743906"
     inkscape:cy="180.01454"
     inkscape:document-units="px"
     inkscape:current-layer="layer1"
     showgrid="true"
     inkscape:window-width="1215"
     inkscape:window-height="1002"
     inkscape:window-x="57"
     inkscape:window-y="-8"
     inkscape:window-maximized="1"
     inkscape:showpageshadow="false"
     inkscape:snap-bbox="true"
     inkscape:bbox-nodes="true">
    <inkscape:grid
       type="xygrid"
       id="grid2985"
       empspacing="1"
       visible="true"
       enabled="true"
       snapvisiblegridlinesonly="true"
       spacingx="25px"
       spacingy="25px" />
  </sodipodi:namedview>
  <metadata
     id="metadata7">
    <rdf:RDF>
      <cc:Work
         rdf:about="">
        <dc:format>image/svg+xml</dc:format>
        <dc:type
           rdf:resource="http://purl.org/dc/dcmitype/StillImage" />
        <dc:title></dc:title>
      </cc:Work>
    </rdf:RDF>
  </metadata>
  <g
     inkscape:label="Layer 1"
     inkscape:groupmode="layer"
     id="layer1"
     transform="translate(0,-652.36218)">
    <rect
       style="fill:#5599ff;fill-opacity:1"
       id="rect3043"
       width="100"
       height="25"
       x="300"
       y="175"
       transform="translate(0,652.36218)" />
    <rect
       style="fill:#002255;fill-opacity:1"
       id="rect3041"
       width="50"
       height="350"
       x="325"
       y="702.36218" />
    <path
       style="fill:#5599ff;fill-opacity:1"
       d="m 0,877.36218 275,0 0,125.00002 -275,0 z"
       id="rect2985"
       inkscape:connector-curvature="0" />
    <path
       style="fill:#5599ff;fill-opacity:1"
       d="m 425,877.36218 275.59137,0 0,125.00002 -275.59137,0 z"
       id="rect2985-1"
       inkscape:connector-curvature="0" />
    <path
       style="fill:#5599ff;fill-opacity:1"
       d="m 250,902.72766 200.59137,0 0,75.00002 -200.59137,0 z"
       id="rect2985-1-7"
       inkscape:connector-curvature="0" />
    <rect
       style="fill:#0044aa;fill-opacity:1"
       id="rect3039"
       width="100"
       height="25"
       x="300"
       y="350"
       transform="translate(0,652.36218)" />
    <path
       id="rect3055-9"
       style="fill:#d40000;fill-opacity:1"
       d="m 375,677.36218 25,0 0,25 -25,0 z m -75,75 25,0 0,25 -25,0 z m 75,0 25,0 0,25 -25,0 z m -75,-75 25,0 0,25 -25,0 z m -25,0 25,0 0,100 -25,0 z m 25,100 100,0 0,25 -100,0 z m 100,-100 25,0 0,100 -25,0 z m -100,-25 100,0 0,25 -100,0 z m 25,50 50,0 0,50 -50,0 z"
       inkscape:connector-curvature="0" />
    <rect
       style="fill:#0055d4;fill-opacity:1"
       id="rect3037"
       width="150"
       height="150"
       x="275"
       y="200"
       transform="translate(0,652.36218)" />
    <rect
       style="fill:#2a7fff;fill-opacity:1"
       id="rect3106"
       width="700"
       height="75"
       x="0"
       y="250"
       transform="translate(0,652.36218)" />
    <rect
       style="fill:#0066ff;fill-opacity:1"
       id="rect3108"
       width="700"
       height="25"
       x="0"
       y="275"
       transform="translate(0,652.36218)" />
  </g>
</svg>
