<?xml version="1.0" encoding="UTF-8" standalone="no"?>
<!-- Created with Inkscape (http://www.inkscape.org/) -->

<svg
   xmlns:dc="http://purl.org/dc/elements/1.1/"
   xmlns:cc="http://creativecommons.org/ns#"
   xmlns:rdf="http://www.w3.org/1999/02/22-rdf-syntax-ns#"
   xmlns:svg="http://www.w3.org/2000/svg"
   xmlns="http://www.w3.org/2000/svg"
   xmlns:sodipodi="http://sodipodi.sourceforge.net/DTD/sodipodi-0.dtd"
   xmlns:inkscape="http://www.inkscape.org/namespaces/inkscape"
   width="1600"
   height="700"
   id="svg2"
   version="1.1"
   inkscape:version="0.48.5 r10040"
   sodipodi:docname="marsel-walk-and-aim.svg"
   inkscape:export-filename="H:\AdventureTime\ProgrammingTime\team-project\Assets\Animation\marsel-walk-and-aim.png"
   inkscape:export-xdpi="90"
   inkscape:export-ydpi="90">
  <defs
     id="defs4" />
  <sodipodi:namedview
     id="base"
     pagecolor="#ffffff"
     bordercolor="#666666"
     borderopacity="1.0"
     inkscape:pageopacity="0.0"
     inkscape:pageshadow="2"
     inkscape:zoom="0.49497475"
     inkscape:cx="792.9228"
     inkscape:cy="52.085242"
     inkscape:document-units="px"
     inkscape:current-layer="layer1"
     showgrid="true"
     inkscape:showpageshadow="false"
     inkscape:window-width="1215"
     inkscape:window-height="1002"
     inkscape:window-x="57"
     inkscape:window-y="-8"
     inkscape:window-maximized="1">
    <inkscape:grid
       type="xygrid"
       id="grid2985"
       empspacing="1"
       visible="true"
       enabled="true"
       snapvisiblegridlinesonly="true"
       spacingx="25px"
       spacingy="25px" />
  </sodipodi:namedview>
  <metadata
     id="metadata7">
    <rdf:RDF>
      <cc:Work
         rdf:about="">
        <dc:format>image/svg+xml</dc:format>
        <dc:type
           rdf:resource="http://purl.org/dc/dcmitype/StillImage" />
        <dc:title></dc:title>
      </cc:Work>
    </rdf:RDF>
  </metadata>
  <g
     inkscape:label="Layer 1"
     inkscape:groupmode="layer"
     id="layer1"
     transform="translate(0,-352.36217)">
    <rect
       style="fill:#784421;fill-opacity:1;stroke:none;display:inline"
       id="rect4205-00-7-33-4"
       width="25"
       height="25"
       x="126.32719"
       y="477.6196" />
    <path
       id="rect4205-00-7-5-9-1-4-7-0"
       style="fill:#28170b;fill-opacity:1;stroke:none;display:inline"
       d="m 76.32701,477.61962 25.00001,0 0,25 -25.00001,0 z m 0,-25.00012 25.00001,0 0,25 -25.00001,0 z m 25.00002,0 25,0 0,25 -25,0 z m 25.00002,0 25,0 0,25 -25,0 z"
       inkscape:connector-curvature="0" />
    <path
       id="rect4205-00-7-5-9-0-2"
       style="fill:#e9ddaf;fill-opacity:1;stroke:none;display:inline"
       d="m 76.32701,552.61913 25.00001,0 0,25 -25.00001,0 z m 0,-24.9999 25.00001,0 0,25 -25.00001,0 z m 0,-24.9998 25.00001,0 0,25 -25.00001,0 z m 25.00002,0 25,0 0,25 -25,0 z m 0,24.9998 25,0 0,25 -25,0 z m 50.00003,-24.9998 25,0 0,25 -25,0 z m -25.00001,0 25,0 0,25 -25,0 z m 0,24.9998 25,0 0,25 -25,0 z m 0,25.02106 25,0 0,25 -25,0 z m -25.00002,-0.0212 25,0 0,25 -25,0 z m 0,25.00004 25,0 0,25 -25,0 z m 0,-99.99951 25,0 0,25 -25,0 z"
       inkscape:connector-curvature="0" />
    <rect
       style="fill:#800000;fill-opacity:1;stroke:none;display:inline"
       id="rect4880-97-9-3"
       width="25"
       height="25"
       x="126.32719"
       y="602.49658" />
    <rect
       style="fill:#241f1c;fill-opacity:1;stroke:none;display:inline"
       id="rect4880-97-8-33-6-5"
       width="25"
       height="25"
       x="76.327164"
       y="777.46381" />
    <rect
       style="fill:#784421;fill-opacity:1;stroke:none;display:inline"
       id="rect4880-97-8-33-7-7"
       width="25"
       height="25"
       x="101.32716"
       y="777.46381" />
    <rect
       style="fill:#241f1c;fill-opacity:1;stroke:none;display:inline"
       id="rect4880-97-8-33-1-2"
       width="25"
       height="25"
       x="126.32719"
       y="777.46381" />
    <path
       id="rect4880-97-91-8-8-6"
       style="fill:#000049;fill-opacity:1;stroke:none;display:inline"
       d="m 76.32701,802.46382 25.00001,0 0,25 -25.00001,0 z m 50.00004,0 25,0 0,25 -25,0 z m -25.00002,0 25,0 0,25 -25,0 z m 27.02031,174.99967 25,0 0,25.00001 -25,0 z m 0,-25 25,0 0,25 -25,0 z m 2.0203,-25 25,0 0,25 -25,0 z m 0,-25 25,0 0,25 -25,0 z m -2.0203,-25 25,0 0,25 -25,0 z m -65.95937,100 25,0 0,25.00001 -25,0 z m 0,-25 25,0 0,25 -25,0 z m 8.88828,-25 25,0 0,25 -25,0 z m 0,-25 25,0 0,25 -25,0 z m 5.05076,-25 25.00001,0 0,25 -25.00001,0 z m 0,-24.99967 25.00001,0 0,25 -25.00001,0 z m 52.02033,0 25,0 0,25 -25,0 z m -52.02033,-25 25.00001,0 0,25 -25.00001,0 z m 50.00004,0 25,0 0,25 -25,0 z m -25.00002,0 25,0 0,25 -25,0 z"
       inkscape:connector-curvature="0" />
    <rect
       style="fill:#25201d;fill-opacity:1;stroke:none;display:inline"
       id="rect4880-97-8-33-6-1-8-85"
       width="25"
       height="25"
       x="87.388077"
       y="1027.4635" />
    <path
       id="rect4880-97-8-33-6-1-5-0"
       style="fill:#020101;fill-opacity:1;stroke:none;display:inline"
       d="m 128.34734,1027.4635 25,0 0,25 -25,0 z m 0,-25 25,0 0,25 -25,0 z"
       inkscape:connector-curvature="0" />
    <path
       id="rect4880-97-8-33-6-1-9-6-4"
       style="fill:#000000;fill-opacity:1;stroke:none;display:inline"
       d="m 62.38797,1027.4635 25,0 0,25 -25,0 z m 0,-25 25,0 0,25 -25,0 z"
       inkscape:connector-curvature="0" />
    <rect
       style="fill:#25201d;fill-opacity:1;stroke:none;display:inline"
       id="rect4880-97-8-33-6-1-8-9-7"
       width="25"
       height="25"
       x="153.34735"
       y="1027.4635" />
    <path
       id="rect4880-97-6-4-6-4"
       style="fill:#950000;fill-opacity:1;stroke:none;display:inline"
       d="m 101.32703,652.49736 25,0 0,25 -25,0 z m 0,99.96646 25,0 0,25 -25,0 z m 0,-49.96637 25,0 0,25 -25,0 z m 0,25 25,0 0,25 -25,0 z m 0,-50 25,0 0,25 -25,0 z m 0,-50.00064 25,0 0,25 -25,0 z"
       inkscape:connector-curvature="0" />
    <path
       id="rect4880-97-3-13-1"
       style="fill:#800000;fill-opacity:1;stroke:none;display:inline"
       d="m 106.63026,602.48844 25,0 0,25 -25,0 z m -24.58901,0.0605 25.00001,0 0,25 -25.00001,0 z m -5.71424,-0.0523 25.00001,0 0,25 -25.00001,0 z m 25.00002,0.12256 25,0 0,25 -25,0 z m -25.00002,74.87816 25.00001,0 0,25 -25.00001,0 z m 0,-25 25.00001,0 0,25 -25.00001,0 z m 0,99.96646 25.00001,0 0,25 -25.00001,0 z m 0,-49.96637 25.00001,0 0,25 -25.00001,0 z m 0,25 25.00001,0 0,25 -25.00001,0 z m 0,-100.00064 25.00001,0 0,25 -25.00001,0 z"
       inkscape:connector-curvature="0" />
    <path
       id="rect4880-97-36-62-6-1-8-8-7"
       style="fill:#6a0000;fill-opacity:1;stroke:none;display:inline"
       d="m 231.68381,602.56809 25,0 0,25 -25,0 z m -24.64284,0 25,0 0,25 -25,0 z m -25,-0.0253 25,0 0,25 -25,0 z m -24.99977,-0.0104 25,0 0,25 -25,0 z m -24.2856,0 25,0 0,25 -25,0 z"
       inkscape:connector-curvature="0" />
    <path
       id="rect4880-97-66-4-0"
       style="fill:#800000;fill-opacity:1;stroke:none;display:inline"
       d="m 157.04152,637.49663 25,0 0,25 -25,0 z m -30.71447,15.00073 25,0 0,25 -25,0 z m 0,99.96646 25,0 0,25 -25,0 z m 0,-49.96637 25,0 0,25 -25,0 z m 0,25 25,0 0,25 -25,0 z m 0,-50 25,0 0,25 -25,0 z m 0,-50.00064 25,0 0,25 -25,0 z m 25.00001,0 25,0 0,25 -25,0 z"
       inkscape:connector-curvature="0" />
    <path
       id="rect4880-97-36-62-6-1-8-81"
       style="fill:#6a0000;fill-opacity:1;stroke:none;display:inline"
       d="m 221.07672,645.24672 25,0 0,25 -25,0 z m -34.60719,-0.3215 25,0 0,25 -25,0 z m -13.71421,-4.8573 25,0 0,25 -25,0 z m 31.3214,10.46457 25,0 0,25 -25,0 z"
       inkscape:connector-curvature="0" />
    <rect
       style="fill:#6a0000;fill-opacity:1;stroke:none;display:inline"
       id="rect4880-97-36-62-6-1-8-6"
       width="25"
       height="25"
       x="236.00507"
       y="633.78241" />
    <rect
       style="fill:#000000;fill-opacity:1;stroke:none;display:inline"
       id="rect4205-00-7-25-4-7-9"
       width="25"
       height="25"
       x="261.32681"
       y="588.43378" />
    <rect
       style="fill:#000000;fill-opacity:1;stroke:none;display:inline"
       id="rect4205-00-7-25-4-7-9-3"
       width="25"
       height="25"
       x="267.39832"
       y="575.93359" />
    <rect
       style="fill:#000000;fill-opacity:1;stroke:none;display:inline"
       id="rect4205-00-7-25-4-7-9-3-6"
       width="25"
       height="25"
       x="292.39832"
       y="575.82898" />
    <rect
       style="fill:#181818;fill-opacity:1;stroke:none;display:inline"
       id="rect4205-00-7-25-4-7-9-6"
       width="25"
       height="25"
       x="264.89828"
       y="579.76233" />
    <rect
       style="fill:#181818;fill-opacity:1;stroke:none;display:inline"
       id="rect4205-00-7-25-4-7-9-6-4"
       width="25"
       height="25"
       x="289.89828"
       y="579.76233" />
    <rect
       style="fill:#000000;fill-opacity:1;stroke:none;display:inline"
       id="rect4205-00-7-25-4-7-9-3-2"
       width="25"
       height="25"
       x="317.39828"
       y="575.93359" />
    <rect
       style="fill:#e9ddaf;fill-opacity:1;stroke:none;display:inline"
       id="rect4205-00-7-25-4-7"
       width="25"
       height="25"
       x="257.04135"
       y="602.36218" />
    <rect
       style="fill:#e9ddaf;fill-opacity:1;stroke:none;display:inline"
       id="rect4205-00-7-25-4-7-1"
       width="25"
       height="25"
       x="257.04135"
       y="627.36218" />
    <rect
       style="fill:#000000;fill-opacity:1;stroke:none;display:inline"
       id="rect4880-97-36-62-6-1-5"
       width="25"
       height="25"
       x="341.32697"
       y="575.85394" />
    <rect
       style="fill:#784421;fill-opacity:1;stroke:none;display:inline"
       id="rect4205-00-7-33-4-1"
       width="25"
       height="25"
       x="526.32721"
       y="477.6196" />
    <path
       id="rect4205-00-7-5-9-1-4-7-0-7"
       style="fill:#28170b;fill-opacity:1;stroke:none;display:inline"
       d="m 476.32701,477.61962 25.00001,0 0,25 -25.00001,0 z m 0,-25.00012 25.00001,0 0,25 -25.00001,0 z m 25.00002,0 25,0 0,25 -25,0 z m 25.00002,0 25,0 0,25 -25,0 z"
       inkscape:connector-curvature="0" />
    <path
       id="rect4205-00-7-5-9-0-2-4"
       style="fill:#e9ddaf;fill-opacity:1;stroke:none;display:inline"
       d="m 476.32701,552.61913 25.00001,0 0,25 -25.00001,0 z m 0,-24.9999 25.00001,0 0,25 -25.00001,0 z m 0,-24.9998 25.00001,0 0,25 -25.00001,0 z m 25.00002,0 25,0 0,25 -25,0 z m 0,24.9998 25,0 0,25 -25,0 z m 50.00003,-24.9998 25,0 0,25 -25,0 z m -25.00001,0 25,0 0,25 -25,0 z m 0,24.9998 25,0 0,25 -25,0 z m 0,25.02106 25,0 0,25 -25,0 z m -25.00002,-0.0212 25,0 0,25 -25,0 z m 0,25.00004 25,0 0,25 -25,0 z m 0,-99.99951 25,0 0,25 -25,0 z"
       inkscape:connector-curvature="0" />
    <rect
       style="fill:#800000;fill-opacity:1;stroke:none;display:inline"
       id="rect4880-97-9-3-0"
       width="25"
       height="25"
       x="526.32721"
       y="602.49658" />
    <rect
       style="fill:#241f1c;fill-opacity:1;stroke:none;display:inline"
       id="rect4880-97-8-33-6-5-9"
       width="25"
       height="25"
       x="476.32715"
       y="777.46381" />
    <rect
       style="fill:#784421;fill-opacity:1;stroke:none;display:inline"
       id="rect4880-97-8-33-7-7-4"
       width="25"
       height="25"
       x="501.32715"
       y="777.46381" />
    <rect
       style="fill:#241f1c;fill-opacity:1;stroke:none;display:inline"
       id="rect4880-97-8-33-1-2-8"
       width="25"
       height="25"
       x="526.32721"
       y="777.46381" />
    <path
       style="fill:#000049;fill-opacity:1;stroke:none;display:inline"
       d="m 476.32701,802.46382 25.00001,0 0,25 -25.00001,0 z"
       id="path3429" />
    <path
       style="fill:#000049;fill-opacity:1;stroke:none;display:inline"
       d="m 526.32705,802.46382 25,0 0,25 -25,0 z"
       id="path3427" />
    <path
       style="fill:#000049;fill-opacity:1;stroke:none;display:inline"
       d="m 501.32703,802.46382 25,0 0,25 -25,0 z"
       id="path3425" />
    <path
       style="fill:#000049;fill-opacity:1;stroke:none;display:inline"
       d="m 528.34734,977.46349 25,0 0,25.00001 -25,0 z"
       id="path3423" />
    <path
       style="fill:#000049;fill-opacity:1;stroke:none;display:inline"
       d="m 528.34734,952.46349 25,0 0,25 -25,0 z"
       id="path3421" />
    <path
       style="fill:#000049;fill-opacity:1;stroke:none;display:inline"
       d="m 530.36764,927.46349 25,0 0,25 -25,0 z"
       id="path3419" />
    <path
       style="fill:#000049;fill-opacity:1;stroke:none;display:inline"
       d="m 530.36764,902.46349 25,0 0,25 -25,0 z"
       id="path3417" />
    <path
       style="fill:#000049;fill-opacity:1;stroke:none;display:inline"
       d="m 528.34734,877.46349 25,0 0,25 -25,0 z"
       id="path3415" />
    <path
       style="fill:#000049;fill-opacity:1;stroke:none;display:inline"
       d="m 475.51992,977.46349 25,0 0,25.00001 -25,0 z"
       id="path3413"
       inkscape:connector-curvature="0" />
    <path
       style="fill:#000049;fill-opacity:1;stroke:none;display:inline"
       d="m 475.51992,952.46349 25,0 0,25 -25,0 z"
       id="path3411"
       inkscape:connector-curvature="0" />
    <path
       style="fill:#000049;fill-opacity:1;stroke:none;display:inline"
       d="m 476.327,927.46349 25,0 0,25 -25,0 z"
       id="path3409"
       inkscape:connector-curvature="0" />
    <path
       style="fill:#000049;fill-opacity:1;stroke:none;display:inline"
       d="m 476.327,902.46349 25,0 0,25 -25,0 z"
       id="path3407"
       inkscape:connector-curvature="0" />
    <path
       style="fill:#000049;fill-opacity:1;stroke:none;display:inline"
       d="m 476.32701,877.46349 25.00001,0 0,25 -25.00001,0 z"
       id="path3405" />
    <path
       style="fill:#000049;fill-opacity:1;stroke:none;display:inline"
       d="m 476.32701,852.46382 25.00001,0 0,25 -25.00001,0 z"
       id="path3403" />
    <path
       style="fill:#000049;fill-opacity:1;stroke:none;display:inline"
       d="m 528.34734,852.46382 25,0 0,25 -25,0 z"
       id="path3401" />
    <path
       style="fill:#000049;fill-opacity:1;stroke:none;display:inline"
       d="m 476.32701,827.46382 25.00001,0 0,25 -25.00001,0 z"
       id="path3399" />
    <path
       style="fill:#000049;fill-opacity:1;stroke:none;display:inline"
       d="m 526.32705,827.46382 25,0 0,25 -25,0 z"
       id="path3397" />
    <path
       style="fill:#000049;fill-opacity:1;stroke:none;display:inline"
       d="m 501.32703,827.46382 25,0 0,25 -25,0 z"
       id="rect4880-97-91-8-8-6-8" />
    <rect
       style="fill:#25201d;fill-opacity:1;stroke:none;display:inline"
       id="rect4880-97-8-33-6-1-8-85-2"
       width="25"
       height="25"
       x="500.52017"
       y="1027.4635" />
    <path
       id="rect4880-97-8-33-6-1-5-0-4"
       style="fill:#020101;fill-opacity:1;stroke:none;display:inline"
       d="m 528.34734,1027.4635 25,0 0,25 -25,0 z m 0,-25 25,0 0,25 -25,0 z"
       inkscape:connector-curvature="0" />
    <path
       id="rect4880-97-8-33-6-1-9-6-4-5"
       style="fill:#000000;fill-opacity:1;stroke:none;display:inline"
       d="m 475.51992,1027.4635 25,0 0,25 -25,0 z m 0,-25 25,0 0,25 -25,0 z"
       inkscape:connector-curvature="0" />
    <rect
       style="fill:#25201d;fill-opacity:1;stroke:none;display:inline"
       id="rect4880-97-8-33-6-1-8-9-7-5"
       width="25"
       height="25"
       x="553.34735"
       y="1027.4635" />
    <path
       id="rect4880-97-6-4-6-4-1"
       style="fill:#950000;fill-opacity:1;stroke:none;display:inline"
       d="m 501.32703,652.49736 25,0 0,25 -25,0 z m 0,99.96646 25,0 0,25 -25,0 z m 0,-49.96637 25,0 0,25 -25,0 z m 0,25 25,0 0,25 -25,0 z m 0,-50 25,0 0,25 -25,0 z m 0,-50.00064 25,0 0,25 -25,0 z"
       inkscape:connector-curvature="0" />
    <path
       id="rect4880-97-3-13-1-7"
       style="fill:#800000;fill-opacity:1;stroke:none;display:inline"
       d="m 506.63026,602.48844 25,0 0,25 -25,0 z m -24.58901,0.0605 25.00001,0 0,25 -25.00001,0 z m -5.71424,-0.0523 25.00001,0 0,25 -25.00001,0 z m 25.00002,0.12256 25,0 0,25 -25,0 z m -25.00002,74.87816 25.00001,0 0,25 -25.00001,0 z m 0,-25 25.00001,0 0,25 -25.00001,0 z m 0,99.96646 25.00001,0 0,25 -25.00001,0 z m 0,-49.96637 25.00001,0 0,25 -25.00001,0 z m 0,25 25.00001,0 0,25 -25.00001,0 z m 0,-100.00064 25.00001,0 0,25 -25.00001,0 z"
       inkscape:connector-curvature="0" />
    <path
       id="rect4880-97-36-62-6-1-8-8-7-1"
       style="fill:#6a0000;fill-opacity:1;stroke:none;display:inline"
       d="m 631.68381,602.56809 25,0 0,25 -25,0 z m -24.64284,0 25,0 0,25 -25,0 z m -25,-0.0253 25,0 0,25 -25,0 z m -24.99977,-0.0104 25,0 0,25 -25,0 z m -24.2856,0 25,0 0,25 -25,0 z"
       inkscape:connector-curvature="0" />
    <path
       id="rect4880-97-66-4-0-1"
       style="fill:#800000;fill-opacity:1;stroke:none;display:inline"
       d="m 557.04152,637.49663 25,0 0,25 -25,0 z m -30.71447,15.00073 25,0 0,25 -25,0 z m 0,99.96646 25,0 0,25 -25,0 z m 0,-49.96637 25,0 0,25 -25,0 z m 0,25 25,0 0,25 -25,0 z m 0,-50 25,0 0,25 -25,0 z m 0,-50.00064 25,0 0,25 -25,0 z m 25.00001,0 25,0 0,25 -25,0 z"
       inkscape:connector-curvature="0" />
    <path
       id="rect4880-97-36-62-6-1-8-81-5"
       style="fill:#6a0000;fill-opacity:1;stroke:none;display:inline"
       d="m 621.07672,645.24672 25,0 0,25 -25,0 z m -34.60719,-0.3215 25,0 0,25 -25,0 z m -13.71421,-4.8573 25,0 0,25 -25,0 z m 31.3214,10.46457 25,0 0,25 -25,0 z"
       inkscape:connector-curvature="0" />
    <rect
       style="fill:#6a0000;fill-opacity:1;stroke:none;display:inline"
       id="rect4880-97-36-62-6-1-8-6-2"
       width="25"
       height="25"
       x="636.00507"
       y="633.78241" />
    <rect
       style="fill:#000000;fill-opacity:1;stroke:none;display:inline"
       id="rect4205-00-7-25-4-7-9-7"
       width="25"
       height="25"
       x="661.32678"
       y="588.43378" />
    <rect
       style="fill:#000000;fill-opacity:1;stroke:none;display:inline"
       id="rect4205-00-7-25-4-7-9-3-61"
       width="25"
       height="25"
       x="667.39832"
       y="575.93359" />
    <rect
       style="fill:#000000;fill-opacity:1;stroke:none;display:inline"
       id="rect4205-00-7-25-4-7-9-3-6-4"
       width="25"
       height="25"
       x="692.39832"
       y="575.82898" />
    <rect
       style="fill:#181818;fill-opacity:1;stroke:none;display:inline"
       id="rect4205-00-7-25-4-7-9-6-2"
       width="25"
       height="25"
       x="664.89825"
       y="579.76233" />
    <rect
       style="fill:#181818;fill-opacity:1;stroke:none;display:inline"
       id="rect4205-00-7-25-4-7-9-6-4-3"
       width="25"
       height="25"
       x="689.89832"
       y="579.76233" />
    <rect
       style="fill:#000000;fill-opacity:1;stroke:none;display:inline"
       id="rect4205-00-7-25-4-7-9-3-2-2"
       width="25"
       height="25"
       x="717.39832"
       y="575.93359" />
    <rect
       style="fill:#e9ddaf;fill-opacity:1;stroke:none;display:inline"
       id="rect4205-00-7-25-4-7-2"
       width="25"
       height="25"
       x="657.04132"
       y="602.36218" />
    <rect
       style="fill:#e9ddaf;fill-opacity:1;stroke:none;display:inline"
       id="rect4205-00-7-25-4-7-1-1"
       width="25"
       height="25"
       x="657.04132"
       y="627.36218" />
    <rect
       style="fill:#000000;fill-opacity:1;stroke:none;display:inline"
       id="rect4880-97-36-62-6-1-5-6"
       width="25"
       height="25"
       x="741.32697"
       y="575.85394" />
    <rect
       style="fill:#784421;fill-opacity:1;stroke:none;display:inline"
       id="rect4205-00-7-33-4-1-8"
       width="25"
       height="25"
       x="951.32721"
       y="477.61963" />
    <path
       id="rect4205-00-7-5-9-1-4-7-0-7-5"
       style="fill:#28170b;fill-opacity:1;stroke:none;display:inline"
       d="m 901.32701,477.61962 25.00001,0 0,25 -25.00001,0 z m 0,-25.00012 25.00001,0 0,25 -25.00001,0 z m 25.00002,0 25,0 0,25 -25,0 z m 25.00002,0 24.99995,0 0,25 -24.99995,0 z"
       inkscape:connector-curvature="0" />
    <path
       id="rect4205-00-7-5-9-0-2-4-7"
       style="fill:#e9ddaf;fill-opacity:1;stroke:none;display:inline"
       d="m 901.32701,552.61913 25.00001,0 0,25 -25.00001,0 z m 0,-24.9999 25.00001,0 0,25 -25.00001,0 z m 0,-24.9998 25.00001,0 0,25 -25.00001,0 z m 25.00002,0 25,0 0,25 -25,0 z m 0,24.9998 25,0 0,25 -25,0 z m 50.00007,-24.9998 25,0 0,25 -25,0 z m -25.00005,0 24.99995,0 0,25 -24.99995,0 z m 0,24.9998 24.99995,0 0,25 -24.99995,0 z m 0,25.02106 24.99995,0 0,25 -24.99995,0 z m -25.00002,-0.0212 25,0 0,25 -25,0 z m 0,25.00004 25,0 0,25 -25,0 z m 0,-99.99951 25,0 0,25 -25,0 z"
       inkscape:connector-curvature="0" />
    <rect
       style="fill:#800000;fill-opacity:1;stroke:none;display:inline"
       id="rect4880-97-9-3-0-6"
       width="25"
       height="25"
       x="951.32721"
       y="602.49658" />
    <rect
       style="fill:#241f1c;fill-opacity:1;stroke:none;display:inline"
       id="rect4880-97-8-33-6-5-9-1"
       width="25"
       height="25"
       x="901.32715"
       y="777.46381" />
    <rect
       style="fill:#784421;fill-opacity:1;stroke:none;display:inline"
       id="rect4880-97-8-33-7-7-4-8"
       width="25"
       height="25"
       x="926.32715"
       y="777.46381" />
    <rect
       style="fill:#241f1c;fill-opacity:1;stroke:none;display:inline"
       id="rect4880-97-8-33-1-2-8-9"
       width="25"
       height="25"
       x="951.32721"
       y="777.46381" />
    <path
       style="fill:#000049;fill-opacity:1;stroke:none;display:inline"
       d="m 901.32701,802.46382 25.00001,0 0,25 -25.00001,0 z"
       id="path3491" />
    <path
       style="fill:#000049;fill-opacity:1;stroke:none;display:inline"
       d="m 951.32705,802.46382 24.99995,0 0,25 -24.99995,0 z"
       id="path3489" />
    <path
       style="fill:#000049;fill-opacity:1;stroke:none;display:inline"
       d="m 926.32703,802.46382 25,0 0,25 -25,0 z"
       id="path3487" />
    <path
       style="fill:#000049;fill-opacity:1;stroke:none;display:inline"
       d="m 901.32701,827.46382 25.00001,0 0,25 -25.00001,0 z"
       id="path3461" />
    <path
       style="fill:#000049;fill-opacity:1;stroke:none;display:inline"
       d="m 951.32705,827.46382 24.99995,0 0,25 -24.99995,0 z"
       id="path3459" />
    <path
       style="fill:#000049;fill-opacity:1;stroke:none;display:inline"
       d="m 926.32703,827.46382 25,0 0,25 -25,0 z"
       id="rect4880-97-91-8-8-6-8-2" />
    <path
       id="rect4880-97-6-4-6-4-1-3"
       style="fill:#950000;fill-opacity:1;stroke:none;display:inline"
       d="m 926.32703,652.49736 25,0 0,25 -25,0 z m 0,99.96646 25,0 0,25 -25,0 z m 0,-49.96637 25,0 0,25 -25,0 z m 0,25 25,0 0,25 -25,0 z m 0,-50 25,0 0,25 -25,0 z m 0,-50.00064 25,0 0,25 -25,0 z"
       inkscape:connector-curvature="0" />
    <path
       id="rect4880-97-3-13-1-7-1"
       style="fill:#800000;fill-opacity:1;stroke:none;display:inline"
       d="m 931.63026,602.48844 25,0 0,25 -25,0 z m -24.58901,0.0605 25.00001,0 0,25 -25.00001,0 z m -5.71424,-0.0523 25.00001,0 0,25 -25.00001,0 z m 25.00002,0.12256 25,0 0,25 -25,0 z m -25.00002,74.87816 25.00001,0 0,25 -25.00001,0 z m 0,-25 25.00001,0 0,25 -25.00001,0 z m 0,99.96646 25.00001,0 0,25 -25.00001,0 z m 0,-49.96637 25.00001,0 0,25 -25.00001,0 z m 0,25 25.00001,0 0,25 -25.00001,0 z m 0,-100.00064 25.00001,0 0,25 -25.00001,0 z"
       inkscape:connector-curvature="0" />
    <path
       id="rect4880-97-36-62-6-1-8-8-7-1-2"
       style="fill:#6a0000;fill-opacity:1;stroke:none;display:inline"
       d="m 1056.6838,602.56809 25,0 0,25 -25,0 z m -24.6428,0 25,0 0,25 -25,0 z m -25,-0.0253 25,0 0,25 -25,0 z m -24.9998,-0.0104 25,0 0,25 -25,0 z m -24.2856,0 25,0 0,25 -25,0 z"
       inkscape:connector-curvature="0" />
    <path
       id="rect4880-97-66-4-0-1-3"
       style="fill:#800000;fill-opacity:1;stroke:none;display:inline"
       d="m 982.0415,637.49663 25,0 0,25 -25,0 z m -30.71445,15.00073 24.99995,0 0,25 -24.99995,0 z m 0,99.96646 24.99995,0 0,25 -24.99995,0 z m 0,-49.96637 24.99995,0 0,25 -24.99995,0 z m 0,25 24.99995,0 0,25 -24.99995,0 z m 0,-50 24.99995,0 0,25 -24.99995,0 z m 0,-50.00064 24.99995,0 0,25 -24.99995,0 z m 25.00005,0 25,0 0,25 -25,0 z"
       inkscape:connector-curvature="0" />
    <path
       id="rect4880-97-36-62-6-1-8-81-5-3"
       style="fill:#6a0000;fill-opacity:1;stroke:none;display:inline"
       d="m 1046.0767,645.24672 25,0 0,25 -25,0 z m -34.6072,-0.3215 25,0 0,25 -25,0 z m -13.7142,-4.8573 25,0 0,25 -25,0 z m 31.3214,10.46457 25,0 0,25 -25,0 z"
       inkscape:connector-curvature="0" />
    <rect
       style="fill:#6a0000;fill-opacity:1;stroke:none;display:inline"
       id="rect4880-97-36-62-6-1-8-6-2-4"
       width="25"
       height="25"
       x="1061.0051"
       y="633.78241" />
    <rect
       style="fill:#000000;fill-opacity:1;stroke:none;display:inline"
       id="rect4205-00-7-25-4-7-9-7-1"
       width="25"
       height="25"
       x="1086.3268"
       y="588.43378" />
    <rect
       style="fill:#000000;fill-opacity:1;stroke:none;display:inline"
       id="rect4205-00-7-25-4-7-9-3-61-1"
       width="25"
       height="25"
       x="1092.3983"
       y="575.93359" />
    <rect
       style="fill:#000000;fill-opacity:1;stroke:none;display:inline"
       id="rect4205-00-7-25-4-7-9-3-6-4-3"
       width="25"
       height="25"
       x="1117.3983"
       y="575.82898" />
    <rect
       style="fill:#181818;fill-opacity:1;stroke:none;display:inline"
       id="rect4205-00-7-25-4-7-9-6-2-8"
       width="25"
       height="25"
       x="1089.8983"
       y="579.76233" />
    <rect
       style="fill:#181818;fill-opacity:1;stroke:none;display:inline"
       id="rect4205-00-7-25-4-7-9-6-4-3-7"
       width="25"
       height="25"
       x="1114.8983"
       y="579.76233" />
    <rect
       style="fill:#000000;fill-opacity:1;stroke:none;display:inline"
       id="rect4205-00-7-25-4-7-9-3-2-2-4"
       width="25"
       height="25"
       x="1142.3983"
       y="575.93359" />
    <rect
       style="fill:#e9ddaf;fill-opacity:1;stroke:none;display:inline"
       id="rect4205-00-7-25-4-7-2-2"
       width="25"
       height="25"
       x="1082.0414"
       y="602.36218" />
    <rect
       style="fill:#e9ddaf;fill-opacity:1;stroke:none;display:inline"
       id="rect4205-00-7-25-4-7-1-1-7"
       width="25"
       height="25"
       x="1082.0414"
       y="627.36218" />
    <rect
       style="fill:#000000;fill-opacity:1;stroke:none;display:inline"
       id="rect4880-97-36-62-6-1-5-6-7"
       width="25"
       height="25"
       x="1166.327"
       y="575.85394" />
    <rect
       style="fill:#784421;fill-opacity:1;stroke:none;display:inline"
       id="rect4205-00-7-33-4-1-9"
       width="25"
       height="25"
       x="1326.3273"
       y="477.6196" />
    <path
       id="rect4205-00-7-5-9-1-4-7-0-7-3"
       style="fill:#28170b;fill-opacity:1;stroke:none;display:inline"
       d="m 1276.327,477.61962 25,0 0,25 -25,0 z m 0,-25.00012 25,0 0,25 -25,0 z m 25,0 25,0 0,25 -25,0 z m 25.0001,0 24.9999,0 0,25 -25,0 z"
       inkscape:connector-curvature="0" />
    <path
       id="rect4205-00-7-5-9-0-2-4-1"
       style="fill:#e9ddaf;fill-opacity:1;stroke:none;display:inline"
       d="m 1276.327,552.61913 25,0 0,25 -25,0 z m 0,-24.9999 25,0 0,25 -25,0 z m 0,-24.9998 25,0 0,25 -25,0 z m 25,0 25,0 0,25 -25,0 z m 0,24.9998 25,0 0,25 -25,0 z m 50.0001,-24.9998 25,0 0,25 -25,0 z m -25.0001,0 25,0 0,25 -25,0 z m 0,24.9998 25,0 0,25 -25,0 z m 0,25.02106 25,0 0,25 -25,0 z m -25,-0.0212 25,0 0,25 -25,0 z m 0,25.00004 25,0 0,25 -25,0 z m 0,-99.99951 25,0 0,25 -25,0 z"
       inkscape:connector-curvature="0" />
    <rect
       style="fill:#800000;fill-opacity:1;stroke:none;display:inline"
       id="rect4880-97-9-3-0-9"
       width="25"
       height="25"
       x="1326.3273"
       y="602.49658" />
    <rect
       style="fill:#241f1c;fill-opacity:1;stroke:none;display:inline"
       id="rect4880-97-8-33-6-5-9-8"
       width="25"
       height="25"
       x="1276.3271"
       y="777.46381" />
    <rect
       style="fill:#784421;fill-opacity:1;stroke:none;display:inline"
       id="rect4880-97-8-33-7-7-4-6"
       width="25"
       height="25"
       x="1301.3271"
       y="777.46381" />
    <rect
       style="fill:#241f1c;fill-opacity:1;stroke:none;display:inline"
       id="rect4880-97-8-33-1-2-8-5"
       width="25"
       height="25"
       x="1326.3273"
       y="777.46381" />
    <path
       id="rect4880-97-91-8-8-6-8-0"
       style="fill:#000049;fill-opacity:1;stroke:none;display:inline"
       d="m 1276.327,802.46382 25,0 0,25 -25,0 z m 50.0001,0 24.9999,0 0,25 -25,0 z m -25.0001,0 25,0 0,25 -25,0 z m 27.0203,174.99967 25,0 0,25.00001 -25,0 z m 0,-25 25,0 0,25 -25,0 z m 2.0203,-25 25,0 0,25 -25,0 z m 0,-25 25,0 0,25 -25,0 z m -2.0203,-25 25,0 0,25 -25,0 z m -65.9593,100 25,0 0,25.00001 -25,0 z m 0,-25 25,0 0,25 -25,0 z m 8.8882,-25 25,0 0,25 -25,0 z m 0,-25 25,0 0,25 -25,0 z m 5.0508,-25 25,0 0,25 -25,0 z m 0,-24.99967 25,0 0,25 -25,0 z m 52.0203,0 25,0 0,25 -25,0 z m -52.0203,-25 25,0 0,25 -25,0 z m 50,0 25,0 0,25 -25,0 z m -25,0 25,0 0,25 -25,0 z"
       inkscape:connector-curvature="0" />
    <rect
       style="fill:#25201d;fill-opacity:1;stroke:none;display:inline"
       id="rect4880-97-8-33-6-1-8-85-2-2"
       width="25"
       height="25"
       x="1287.3881"
       y="1027.4635" />
    <path
       id="rect4880-97-8-33-6-1-5-0-4-8"
       style="fill:#020101;fill-opacity:1;stroke:none;display:inline"
       d="m 1328.3473,1027.4635 25,0 0,25 -25,0 z m 0,-25 25,0 0,25 -25,0 z"
       inkscape:connector-curvature="0" />
    <path
       id="rect4880-97-8-33-6-1-9-6-4-5-6"
       style="fill:#000000;fill-opacity:1;stroke:none;display:inline"
       d="m 1262.388,1027.4635 25,0 0,25 -25,0 z m 0,-25 25,0 0,25 -25,0 z"
       inkscape:connector-curvature="0" />
    <rect
       style="fill:#25201d;fill-opacity:1;stroke:none;display:inline"
       id="rect4880-97-8-33-6-1-8-9-7-5-0"
       width="25"
       height="25"
       x="1353.3474"
       y="1027.4635" />
    <path
       id="rect4880-97-6-4-6-4-1-2"
       style="fill:#950000;fill-opacity:1;stroke:none;display:inline"
       d="m 1301.327,652.49736 25,0 0,25 -25,0 z m 0,99.96646 25,0 0,25 -25,0 z m 0,-49.96637 25,0 0,25 -25,0 z m 0,25 25,0 0,25 -25,0 z m 0,-50 25,0 0,25 -25,0 z m 0,-50.00064 25,0 0,25 -25,0 z"
       inkscape:connector-curvature="0" />
    <path
       id="rect4880-97-3-13-1-7-4"
       style="fill:#800000;fill-opacity:1;stroke:none;display:inline"
       d="m 1306.6303,602.48844 25,0 0,25 -25,0 z m -24.589,0.0605 25,0 0,25 -25,0 z m -5.7143,-0.0523 25,0 0,25 -25,0 z m 25,0.12256 25,0 0,25 -25,0 z m -25,74.87816 25,0 0,25 -25,0 z m 0,-25 25,0 0,25 -25,0 z m 0,99.96646 25,0 0,25 -25,0 z m 0,-49.96637 25,0 0,25 -25,0 z m 0,25 25,0 0,25 -25,0 z m 0,-100.00064 25,0 0,25 -25,0 z"
       inkscape:connector-curvature="0" />
    <path
       id="rect4880-97-36-62-6-1-8-8-7-1-8"
       style="fill:#6a0000;fill-opacity:1;stroke:none;display:inline"
       d="m 1431.6838,602.56809 25,0 0,25 -25,0 z m -24.6428,0 25,0 0,25 -25,0 z m -25,-0.0253 25,0 0,25 -25,0 z m -24.9998,-0.0104 25,0 0,25 -25,0 z m -24.2856,0 25,0 0,25 -25,0 z"
       inkscape:connector-curvature="0" />
    <path
       id="rect4880-97-66-4-0-1-6"
       style="fill:#800000;fill-opacity:1;stroke:none;display:inline"
       d="m 1357.0415,637.49663 25,0 0,25 -25,0 z m -30.7144,15.00073 24.9999,0 0,25 -25,0 z m 0,99.96646 24.9999,0 0,25 -25,0 z m 0,-49.96637 24.9999,0 0,25 -25,0 z m 0,25 24.9999,0 0,25 -25,0 z m 0,-50 24.9999,0 0,25 -25,0 z m 0,-50.00064 24.9999,0 0,25 -25,0 z m 25,0 25,0 0,25 -25,0 z"
       inkscape:connector-curvature="0" />
    <path
       id="rect4880-97-36-62-6-1-8-81-5-5"
       style="fill:#6a0000;fill-opacity:1;stroke:none;display:inline"
       d="m 1421.0767,645.24672 25,0 0,25 -25,0 z m -34.6072,-0.3215 25,0 0,25 -25,0 z m -13.7142,-4.8573 25,0 0,25 -25,0 z m 31.3214,10.46457 25,0 0,25 -25,0 z"
       inkscape:connector-curvature="0" />
    <rect
       style="fill:#6a0000;fill-opacity:1;stroke:none;display:inline"
       id="rect4880-97-36-62-6-1-8-6-2-0"
       width="25"
       height="25"
       x="1436.0051"
       y="633.78241" />
    <rect
       style="fill:#000000;fill-opacity:1;stroke:none;display:inline"
       id="rect4205-00-7-25-4-7-9-7-9"
       width="25"
       height="25"
       x="1461.3268"
       y="588.43378" />
    <rect
       style="fill:#000000;fill-opacity:1;stroke:none;display:inline"
       id="rect4205-00-7-25-4-7-9-3-61-0"
       width="25"
       height="25"
       x="1467.3983"
       y="575.93359" />
    <rect
       style="fill:#000000;fill-opacity:1;stroke:none;display:inline"
       id="rect4205-00-7-25-4-7-9-3-6-4-0"
       width="25"
       height="25"
       x="1492.3983"
       y="575.82898" />
    <rect
       style="fill:#181818;fill-opacity:1;stroke:none;display:inline"
       id="rect4205-00-7-25-4-7-9-6-2-6"
       width="25"
       height="25"
       x="1464.8983"
       y="579.76233" />
    <rect
       style="fill:#181818;fill-opacity:1;stroke:none;display:inline"
       id="rect4205-00-7-25-4-7-9-6-4-3-1"
       width="25"
       height="25"
       x="1489.8983"
       y="579.76233" />
    <rect
       style="fill:#000000;fill-opacity:1;stroke:none;display:inline"
       id="rect4205-00-7-25-4-7-9-3-2-2-3"
       width="25"
       height="25"
       x="1517.3983"
       y="575.93359" />
    <rect
       style="fill:#e9ddaf;fill-opacity:1;stroke:none;display:inline"
       id="rect4205-00-7-25-4-7-2-8"
       width="25"
       height="25"
       x="1457.0414"
       y="602.36218" />
    <rect
       style="fill:#e9ddaf;fill-opacity:1;stroke:none;display:inline"
       id="rect4205-00-7-25-4-7-1-1-9"
       width="25"
       height="25"
       x="1457.0414"
       y="627.36218" />
    <rect
       style="fill:#000000;fill-opacity:1;stroke:none;display:inline"
       id="rect4880-97-36-62-6-1-5-6-3"
       width="25"
       height="25"
       x="1541.327"
       y="575.85394" />
    <path
       inkscape:connector-curvature="0"
       style="fill:#000049;fill-opacity:1;stroke:none;display:inline"
       d="m 966.91885,977.46349 25,0 0,25.00001 -25,0 z"
       id="path3423-1" />
    <path
       inkscape:connector-curvature="0"
       style="fill:#000049;fill-opacity:1;stroke:none;display:inline"
       d="m 966.91885,952.46349 25,0 0,25 -25,0 z"
       id="path3421-3" />
    <path
       inkscape:connector-curvature="0"
       style="fill:#000049;fill-opacity:1;stroke:none;display:inline"
       d="m 963.22483,927.46349 25,0 0,25 -25,0 z"
       id="path3419-5" />
    <path
       inkscape:connector-curvature="0"
       style="fill:#000049;fill-opacity:1;stroke:none;display:inline"
       d="m 963.22483,902.46349 25,0 0,25 -25,0 z"
       id="path3417-9" />
    <path
       inkscape:connector-curvature="0"
       style="fill:#000049;fill-opacity:1;stroke:none;display:inline"
       d="m 959.06166,877.46349 25,0 0,25 -25,0 z"
       id="path3415-8" />
    <path
       style="fill:#000049;fill-opacity:1;stroke:none;display:inline"
       d="m 900.51992,977.46349 25,0 0,25.00001 -25,0 z"
       id="path3413-4"
       inkscape:connector-curvature="0" />
    <path
       style="fill:#000049;fill-opacity:1;stroke:none;display:inline"
       d="m 900.51992,952.46349 25,0 0,25 -25,0 z"
       id="path3411-0"
       inkscape:connector-curvature="0" />
    <path
       style="fill:#000049;fill-opacity:1;stroke:none;display:inline"
       d="m 901.327,927.46349 25,0 0,25 -25,0 z"
       id="path3409-7"
       inkscape:connector-curvature="0" />
    <path
       style="fill:#000049;fill-opacity:1;stroke:none;display:inline"
       d="m 901.327,902.46349 25,0 0,25 -25,0 z"
       id="path3407-6"
       inkscape:connector-curvature="0" />
    <path
       inkscape:connector-curvature="0"
       style="fill:#000049;fill-opacity:1;stroke:none;display:inline"
       d="m 901.32701,877.46349 25.00001,0 0,25 -25.00001,0 z"
       id="path3405-3" />
    <path
       inkscape:connector-curvature="0"
       style="fill:#000049;fill-opacity:1;stroke:none;display:inline"
       d="m 901.32701,852.46382 25.00001,0 0,25 -25.00001,0 z"
       id="path3403-6" />
    <path
       inkscape:connector-curvature="0"
       style="fill:#000049;fill-opacity:1;stroke:none;display:inline"
       d="m 959.06166,852.46382 25,0 0,25 -25,0 z"
       id="path3401-1" />
    <rect
       style="fill:#25201d;fill-opacity:1;stroke:none;display:inline"
       id="rect4880-97-8-33-6-1-8-85-2-5"
       width="25"
       height="25"
       x="925.52014"
       y="1027.4635" />
    <path
       id="rect4880-97-8-33-6-1-5-0-4-4"
       style="fill:#020101;fill-opacity:1;stroke:none;display:inline"
       d="m 966.91885,1027.4635 25,0 0,25 -25,0 z m 0,-25 25,0 0,25 -25,0 z"
       inkscape:connector-curvature="0" />
    <path
       id="rect4880-97-8-33-6-1-9-6-4-5-2"
       style="fill:#000000;fill-opacity:1;stroke:none;display:inline"
       d="m 900.51992,1027.4635 25,0 0,25 -25,0 z m 0,-25 25,0 0,25 -25,0 z"
       inkscape:connector-curvature="0" />
    <rect
       style="fill:#25201d;fill-opacity:1;stroke:none;display:inline"
       id="rect4880-97-8-33-6-1-8-9-7-5-09"
       width="25"
       height="25"
       x="991.91895"
       y="1027.4635" />
  </g>
</svg>
