<?xml version="1.0" encoding="UTF-8" standalone="no"?>
<!-- Created with Inkscape (http://www.inkscape.org/) -->

<svg
   xmlns:dc="http://purl.org/dc/elements/1.1/"
   xmlns:cc="http://creativecommons.org/ns#"
   xmlns:rdf="http://www.w3.org/1999/02/22-rdf-syntax-ns#"
   xmlns:svg="http://www.w3.org/2000/svg"
   xmlns="http://www.w3.org/2000/svg"
   xmlns:sodipodi="http://sodipodi.sourceforge.net/DTD/sodipodi-0.dtd"
   xmlns:inkscape="http://www.inkscape.org/namespaces/inkscape"
   width="600"
   height="375"
   id="svg3055"
   version="1.1"
   inkscape:version="0.48.5 r10040"
   sodipodi:docname="hatch.svg"
   inkscape:export-filename="H:\AdventureTime\ProgrammingTime\team-project\Assets\Textures\arts\Enviroment\level2_training_room\closedhatch.png"
   inkscape:export-xdpi="300"
   inkscape:export-ydpi="300">
  <defs
     id="defs3057" />
  <sodipodi:namedview
     id="base"
     pagecolor="#ffffff"
     bordercolor="#666666"
     borderopacity="1.0"
     inkscape:pageopacity="0.0"
     inkscape:pageshadow="2"
     inkscape:zoom="1.1005859"
     inkscape:cx="270.5102"
     inkscape:cy="121.00296"
     inkscape:document-units="px"
     inkscape:current-layer="g3065"
     showgrid="true"
     inkscape:showpageshadow="false"
     inkscape:window-width="1215"
     inkscape:window-height="1002"
     inkscape:window-x="57"
     inkscape:window-y="-8"
     inkscape:window-maximized="1">
    <inkscape:grid
       type="xygrid"
       id="grid3063"
       empspacing="1"
       visible="true"
       enabled="true"
       snapvisiblegridlinesonly="true"
       spacingx="25px"
       spacingy="25px" />
  </sodipodi:namedview>
  <metadata
     id="metadata3060">
    <rdf:RDF>
      <cc:Work
         rdf:about="">
        <dc:format>image/svg+xml</dc:format>
        <dc:type
           rdf:resource="http://purl.org/dc/dcmitype/StillImage" />
        <dc:title></dc:title>
      </cc:Work>
    </rdf:RDF>
  </metadata>
  <g
     transform="translate(0,-677.36218)"
     id="g3065"
     inkscape:groupmode="layer"
     inkscape:label="ClosedHatch"
     style="display:inline">
    <path
       id="rect3069"
       transform="translate(0,677.36218)"
       style="fill:#1a1a1a;fill-opacity:1;stroke:none"
       d="m 100,325 400,0 0,25 -400,0 z m -25,25 450,0 0,25 -450,0 z"
       inkscape:connector-curvature="0" />
    <path
       id="rect3073"
       style="fill:#4d4d4d;fill-opacity:1;stroke:none"
       d="m 125,977.36218 350,0 0,25.00002 -350,0 z m 25,-25 300,0 0,25 -300,0 z"
       inkscape:connector-curvature="0" />
    <path
       id="rect3112-7-4"
       style="fill:#333333;fill-opacity:1;stroke:none"
       d="m 325,927.36218 25,0 0,25 -25,0 z m -75,0 25,0 0,25 -25,0 z m 0,-25 100,0 0,25 -100,0 z"
       inkscape:connector-curvature="0" />
    <rect
       style="fill:#333333;fill-opacity:1;stroke:none"
       id="rect3154"
       width="25"
       height="50"
       x="425"
       y="952.36218" />
    <rect
       style="fill:#333333;fill-opacity:1;stroke:none"
       id="rect3112-7"
       width="25"
       height="25"
       x="425"
       y="927.36218" />
    <rect
       style="fill:#333333;fill-opacity:1;stroke:none"
       id="rect3112-7-0"
       width="25"
       height="25"
       x="400"
       y="952.36218" />
    <rect
       style="fill:#333333;fill-opacity:1;stroke:none"
       id="rect3112-7-48"
       width="25"
       height="25"
       x="450"
       y="977.36218" />
  </g>
  <g
     inkscape:label="OpenedHatch"
     inkscape:groupmode="layer"
     id="g3184"
     transform="translate(0,-677.36218)"
     style="display:none"
     sodipodi:insensitive="true">
    <path
       id="rect3188"
       transform="translate(0,677.36218)"
       style="fill:#1a1a1a;fill-opacity:1;stroke:none"
       d="m 100,325 400,0 0,25 -400,0 z m -25,25 450,0 0,25 -450,0 z"
       inkscape:connector-curvature="0" />
    <path
       d="m 425.18278,677.33962 -0.31984,349.99988 -25.00001,-0.023 0.31984,-349.99983 z m 24.97715,25.02283 -0.27416,299.99985 -24.99999,-0.023 0.27416,-299.99989 z"
       style="fill:#4d4d4d;fill-opacity:1;stroke:none"
       id="path3190"
       inkscape:connector-curvature="0" />
    <path
       d="m 474.99999,877.38523 -0.0228,24.99997 -24.99999,-0.023 L 450,877.36218 z m 0.0685,-74.99997 -0.0228,24.99999 -24.99999,-0.0228 0.0228,-24.99999 z m 24.99999,0.0228 -0.0914,100 -24.99999,-0.023 0.0914,-99.99994 z"
       style="fill:#333333;fill-opacity:1;stroke:none"
       id="path3192"
       inkscape:connector-curvature="0" />
    <rect
       y="-450.80157"
       x="976.95081"
       height="50"
       width="25"
       id="rect3194"
       style="fill:#333333;fill-opacity:1;stroke:none"
       transform="matrix(-9.1384431e-4,0.99999958,-0.99999958,-9.1384431e-4,0,0)" />
    <rect
       y="-475.80157"
       x="976.95081"
       height="25"
       width="25"
       id="rect3196"
       style="fill:#333333;fill-opacity:1;stroke:none"
       transform="matrix(-9.1384431e-4,0.99999958,-0.99999958,-9.1384431e-4,0,0)" />
    <rect
       y="-450.80157"
       x="951.95081"
       height="25"
       width="25"
       id="rect3198"
       style="fill:#333333;fill-opacity:1;stroke:none"
       transform="matrix(-9.1384431e-4,0.99999958,-0.99999958,-9.1384431e-4,0,0)" />
    <rect
       y="-425.80157"
       x="1001.9507"
       height="25"
       width="25"
       id="rect3200"
       style="fill:#333333;fill-opacity:1;stroke:none"
       transform="matrix(-9.1384431e-4,0.99999958,-0.99999958,-9.1384431e-4,0,0)" />
  </g>
</svg>
