<?xml version="1.0" encoding="UTF-8" standalone="no"?>
<!-- Created with Inkscape (http://www.inkscape.org/) -->

<svg
   xmlns:dc="http://purl.org/dc/elements/1.1/"
   xmlns:cc="http://creativecommons.org/ns#"
   xmlns:rdf="http://www.w3.org/1999/02/22-rdf-syntax-ns#"
   xmlns:svg="http://www.w3.org/2000/svg"
   xmlns="http://www.w3.org/2000/svg"
   xmlns:sodipodi="http://sodipodi.sourceforge.net/DTD/sodipodi-0.dtd"
   xmlns:inkscape="http://www.inkscape.org/namespaces/inkscape"
   width="600"
   height="800"
   id="svg2"
   version="1.1"
   inkscape:version="0.48.5 r10040"
   sodipodi:docname="nogzor-portair-for-walls.svg"
   inkscape:export-filename="H:\AdventureTime\ProgrammingTime\team-project\Assets\Textures\arts\Enviroment\level2_training_room\nogzor-portair-for-walls.png"
   inkscape:export-xdpi="300"
   inkscape:export-ydpi="300">
  <defs
     id="defs4" />
  <sodipodi:namedview
     id="base"
     pagecolor="#ffffff"
     bordercolor="#666666"
     borderopacity="1.0"
     inkscape:pageopacity="0.0"
     inkscape:pageshadow="2"
     inkscape:zoom="0.91314373"
     inkscape:cx="535.42066"
     inkscape:cy="343.18826"
     inkscape:document-units="px"
     inkscape:current-layer="layer1"
     showgrid="true"
     inkscape:window-width="1215"
     inkscape:window-height="1002"
     inkscape:window-x="57"
     inkscape:window-y="-8"
     inkscape:window-maximized="1"
     inkscape:showpageshadow="false">
    <inkscape:grid
       type="xygrid"
       id="grid2985"
       empspacing="1"
       visible="true"
       enabled="true"
       snapvisiblegridlinesonly="true"
       spacingx="25px"
       spacingy="25px" />
  </sodipodi:namedview>
  <metadata
     id="metadata7">
    <rdf:RDF>
      <cc:Work
         rdf:about="">
        <dc:format>image/svg+xml</dc:format>
        <dc:type
           rdf:resource="http://purl.org/dc/dcmitype/StillImage" />
        <dc:title />
      </cc:Work>
    </rdf:RDF>
  </metadata>
  <g
     inkscape:label="Layer 1"
     inkscape:groupmode="layer"
     id="layer1"
     transform="translate(0,-252.36218)"
     style="display:inline">
    <rect
       style="fill:#00b9c6;fill-opacity:1;stroke:none"
       id="rect4033"
       width="500"
       height="200"
       x="50"
       y="302.2699" />
    <rect
       style="fill:#00d0de;fill-opacity:1;stroke:none"
       id="rect4033-8"
       width="500"
       height="175"
       x="50"
       y="502.2699" />
    <rect
       style="fill:#00edff;fill-opacity:1;stroke:none"
       id="rect4033-82"
       width="500"
       height="250"
       x="50"
       y="652.26978" />
    <rect
       style="fill:#ffdd55;fill-opacity:1;stroke:none;enable-background:new"
       id="rect5984-0"
       width="75"
       height="75"
       x="425"
       y="714.76978" />
    <rect
       style="fill:#ffdd55;fill-opacity:1;stroke:none;enable-background:new"
       id="rect5984-5"
       width="75"
       height="75"
       x="100"
       y="714.76978" />
    <rect
       style="fill:#333333;fill-opacity:1;stroke:none;enable-background:new"
       id="rect6564-2"
       width="25"
       height="25"
       x="182.25"
       y="492.5199" />
    <rect
       style="fill:#333333;fill-opacity:1;stroke:none;enable-background:new"
       id="rect6564-4"
       width="25"
       height="25"
       x="188.75"
       y="484.0199" />
    <path
       id="rect3178-0-3"
       style="fill:#e9ddaf;fill-opacity:1;stroke:none;enable-background:new"
       d="m 225,564.76928 150,0 0,75 -150,0 z m -25,-150.00001 200,0 0,150.00001 -200,0 z" />
    <rect
       style="fill:#f9f9f9;fill-opacity:1;stroke:none;enable-background:new"
       id="rect3558-4"
       width="50"
       height="50"
       x="225"
       y="489.7699" />
    <rect
       style="fill:#f9f9f9;fill-opacity:1;stroke:none;enable-background:new"
       id="rect3558-8"
       width="50"
       height="50"
       x="325"
       y="489.7699" />
    <rect
       style="fill:#5c5cff;fill-opacity:1;stroke:none;enable-background:new"
       id="rect3399-65"
       width="25"
       height="25"
       x="337.12146"
       y="502.5376" />
    <path
       id="path3533-1"
       style="fill:#5a2ca0;fill-opacity:1;stroke:none;enable-background:new"
       d="m 200,464.76928 25,0 0,25 -25,0 z m 175,-25.00001 25,0 0,25.00001 -25,0 z m 25,-25 25,0 0,25 -25,0 z m -25,0 25,0 0,25 -25,0 z m -50,-25 25,0 0,25 -25,0 z m 25,0 25,0 0,25 -25,0 z m -50,25 25,0 0,25 -25,0 z m -25,-25 25,0 0,25 -25,0 z m -25,25 25,0 0,25 -25,0 z m -50,0 25,0 0,25 -25,0 z m 25,-25 25,0 0,25 -25,0 z m -25,0 25,0 0,25 -25,0 z m 100,50 25,0 0,25.00001 -25,0 z m 25,-25 25,0 0,25 -25,0 z m -100,25 25,0 0,25.00001 -25,0 z m 25,-50 25,0 0,25 -25,0 z m -25,25 25,0 0,25 -25,0 z m -25,25 25,0 0,25.00001 -25,0 z m 75,0 25,0 0,25.00001 -25,0 z m 25,-50 25,0 0,25 -25,0 z m -25,25 25,0 0,25 -25,0 z m -25,25 25,0 0,25.00001 -25,0 z m 100,0 25,0 0,25.00001 -25,0 z m 25,-50 25,0 0,25 -25,0 z m -25,25 25,0 0,25 -25,0 z m -25,25 25,0 0,25.00001 -25,0 z m 50,25.00001 25,0 0,25 -25,0 z m 25,-25.00001 25,0 0,25.00001 -25,0 z m 25,-25 25,0 0,25 -25,0 z m -25,-25 25,0 0,25 -25,0 z m 25,-25 25,0 0,25 -25,0 z m 25,-25 25,0 0,25 -25,0 z m -250,25 25,0 0,25 -25,0 z m 25,-25 25,0 0,25 -25,0 z m 25,-25 25,0 0,25 -25,0 z m -25,50 25,0 0,25 -25,0 z m 75,0 25,0 0,25 -25,0 z m 25,-50 25,0 0,25 -25,0 z m -25,25 25,0 0,25 -25,0 z m -25,25 25,0 0,25 -25,0 z m 100,0 25,0 0,25 -25,0 z m 25,-50 25,0 0,25 -25,0 z m -25,25 25,0 0,25 -25,0 z m -25,25 25,0 0,25 -25,0 z"
       inkscape:connector-curvature="0" />
    <rect
       style="fill:#000000;fill-opacity:1;stroke:none;enable-background:new"
       id="rect4378-0"
       width="25"
       height="25"
       x="225"
       y="458.40594" />
    <rect
       style="fill:#000000;fill-opacity:1;stroke:none;enable-background:new"
       id="rect4378-0-0"
       width="25"
       height="25"
       x="250"
       y="464.7699" />
    <rect
       style="fill:#000000;fill-opacity:1;stroke:none;enable-background:new"
       id="rect4378-0-6"
       width="25"
       height="25"
       x="350"
       y="458.40594" />
    <rect
       style="fill:#000000;fill-opacity:1;stroke:none;enable-background:new"
       id="rect4378-0-61"
       width="25"
       height="25"
       x="325"
       y="464.7699" />
    <path
       style="fill:#e9ddaf;fill-opacity:1;stroke:none;enable-background:new"
       d="m 250,639.76928 100,0 0,25 -100,0 z"
       id="rect3178-0-3-5"
       inkscape:connector-curvature="0" />
    <path
       style="fill:#d5bf6b;fill-opacity:1;stroke:none;enable-background:new"
       d="m 300,564.76928 -25,0 0,25 25,0 z"
       id="path5744"
       inkscape:connector-curvature="0" />
    <path
       style="fill:#d5bf6b;fill-opacity:1;stroke:none;enable-background:new"
       d="m 300,539.76928 -25,0 0,25 25,0 z"
       id="path5742"
       inkscape:connector-curvature="0" />
    <path
       style="fill:#d5bf6b;fill-opacity:1;stroke:none;enable-background:new"
       d="m 309.4437,514.76928 -25,0 0,25 25,0 z"
       id="path3533-0"
       inkscape:connector-curvature="0" />
    <path
       style="fill:#b80900;fill-opacity:1;stroke:none;enable-background:new"
       d="m 300,614.76928 25,0 0,25 -25,0 z"
       id="path6409"
       inkscape:connector-curvature="0" />
    <path
       style="fill:#b80900;fill-opacity:1;stroke:none;enable-background:new"
       d="m 275,614.76928 25,0 0,25 -25,0 z"
       id="path4418-3-1-2-84"
       inkscape:connector-curvature="0" />
    <path
       style="fill:#e9ddaf;fill-opacity:1;stroke:none;enable-background:new"
       d="m 275,664.76928 25,0 0,25 -25,0 z"
       id="path4418-3-1-2-43"
       inkscape:connector-curvature="0" />
    <path
       style="fill:#e9ddaf;fill-opacity:1;stroke:none;enable-background:new"
       d="m 300,664.76928 25,0 0,25 -25,0 z"
       id="path4418-3-1-2-98"
       inkscape:connector-curvature="0" />
    <path
       style="fill:#e9ddaf;fill-opacity:1;stroke:none;enable-background:new"
       d="m 275,689.76928 25,0 0,25 -25,0 z"
       id="path4418-3-1-2-80"
       inkscape:connector-curvature="0" />
    <path
       style="fill:#e9ddaf;fill-opacity:1;stroke:none;enable-background:new"
       d="m 300,689.76928 25,0 0,25 -25,0 z"
       id="path4418-3-1-2-78"
       inkscape:connector-curvature="0" />
    <rect
       style="fill:#f9f9f9;fill-opacity:1;stroke:none;enable-background:new"
       id="rect3558-8-3"
       width="50"
       height="375"
       x="275"
       y="714.76978" />
    <path
       id="path6111"
       style="fill:#ffdd55;fill-opacity:1;stroke:none;enable-background:new"
       d="m 225,684.76928 50,0 0,404.99832 -50,0 z m 150,0 50,0 0,404.99832 -50,0 z m -50,0 50,0 0,404.99832 -50,0 z m 25,-22.5 25,0 0,22.5 -25,0 z m -25,0 25,0 0,22.5 -25,0 z m -75,0 25,0 0,22.5 -25,0 z m -25,-22.5 25,0 0,22.5 -25,0 z m -50,45 50,0 0,404.99832 -50,0 z m 175,-45 25,0 0,22.5 -25,0 z m -125,22.5 25,0 0,22.5 -25,0 z"
       inkscape:connector-curvature="0" />
    <rect
       style="fill:#ffdd55;fill-opacity:1;stroke:none;enable-background:new"
       id="rect5984-6"
       width="25"
       height="25"
       x="175"
       y="689.76978" />
    <rect
       style="fill:#ffdd55;fill-opacity:1;stroke:none;enable-background:new"
       id="rect5984-1"
       width="25"
       height="25"
       x="400"
       y="689.76978" />
    <rect
       style="fill:#2a7fff;fill-opacity:1;stroke:none;enable-background:new"
       id="rect5984-9"
       width="25"
       height="25"
       x="150"
       y="689.76978" />
    <rect
       style="fill:#2a7fff;fill-opacity:1;stroke:none;enable-background:new"
       id="rect5984-96"
       width="25"
       height="25"
       x="425"
       y="689.76978" />
    <rect
       style="fill:#800000;fill-opacity:1;stroke:none;enable-background:new"
       id="rect5984-89"
       width="12.5"
       height="12.5"
       x="337.5"
       y="789.76978" />
    <path
       id="rect5984-28"
       style="fill:#2aff2a;fill-opacity:1;stroke:none;enable-background:new"
       d="m 337.5,764.76928 12.5,0 0,12.5 -12.5,0 z m 0,12.5 12.5,0 0,12.5 -12.5,0 z"
       inkscape:connector-curvature="0" />
    <path
       id="rect5984-289"
       style="fill:#ff0000;fill-opacity:1;stroke:none;enable-background:new"
       d="m 400,764.76928 12.5,0 0,12.5 -12.5,0 z m -25,0 12.5,0 0,12.5 -12.5,0 z m 25,12.5 12.5,0 0,12.5 -12.5,0 z m -25,0 12.5,0 0,12.5 -12.5,0 z"
       inkscape:connector-curvature="0" />
    <path
       inkscape:connector-curvature="0"
       id="rect5984-0-5"
       style="fill:#ff0000;fill-opacity:1;stroke:none;enable-background:new"
       d="m 337.5,814.76928 c 4.1667,0 8.3333,0 12.5,0 0,4.16666 0,8.33334 0,12.5 -4.1667,0 -8.3333,0 -12.5,0 0,-4.16666 0,-8.33334 0,-12.5 z m 0,12.5 c 4.1667,0 8.3333,0 12.5,0 0,4.16666 0,8.33334 0,12.5 -4.1667,0 -8.3333,0 -12.5,0 0,-4.16666 0,-8.33334 0,-12.5 z m 12.5,-12.5 c 4.1667,0 8.3333,0 12.5,0 0,4.16666 0,8.33334 0,12.5 -4.1667,0 -8.3333,0 -12.5,0 0,-4.16666 0,-8.33334 0,-12.5 z m -25,0 c 4.1667,0 8.3333,0 12.5,0 0,4.16666 0,8.33334 0,12.5 -4.1667,0 -8.3333,0 -12.5,0 0,-4.16666 0,-8.33334 0,-12.5 z m 12.5,-12.5 c 4.1667,0 8.3333,0 12.5,0 0,4.16666 0,8.33334 0,12.5 -4.1667,0 -8.3333,0 -12.5,0 0,-4.16666 0,-8.33334 0,-12.5 z" />
    <path
       id="rect6425-5"
       style="fill:#333333;fill-opacity:1;stroke:none;enable-background:new"
       d="m 258.3333,506.10262 16.6667,0 0,16.66666 -16.6667,0 z m 0,-16.66667 16.6667,0 0,16.66667 -16.6667,0 z m -16.6666,0 16.6666,0 0,16.66667 -16.6666,0 z m -16.6667,0 16.6667,0 0,16.66667 -16.6667,0 z m 0,16.66667 16.6667,0 0,16.66666 -16.6667,0 z m 0,16.66666 16.6667,0 0,16.66667 -16.6667,0 z m 16.6667,0 16.6666,0 0,16.66667 -16.6666,0 z m 16.6666,0 16.6667,0 0,16.66667 -16.6667,0 z"
       inkscape:connector-curvature="0" />
    <rect
       style="fill:#333333;fill-opacity:1;stroke:none;enable-background:new"
       id="rect6564"
       width="25"
       height="25"
       x="190.75"
       y="503.0199" />
    <rect
       style="fill:#333333;fill-opacity:1;stroke:none;enable-background:new"
       id="rect6564-3"
       width="25"
       height="25"
       x="215.75"
       y="503.0199" />
    <path
       inkscape:connector-curvature="0"
       style="fill:#ff0000;fill-opacity:1;stroke:none;enable-background:new"
       d="m 237.5,501.26928 25,0 0,25 -25,0 z"
       id="path4418-3-1-2-84-9" />
    <rect
       style="fill:#d45500;fill-opacity:1;stroke:none;enable-background:new"
       id="rect5984-9-3-6"
       width="33.333324"
       height="12.5"
       x="175"
       y="764.76978" />
    <rect
       style="fill:#0000ff;fill-opacity:1;stroke:none;enable-background:new"
       id="rect5984-9-3-1"
       width="33.333324"
       height="12.5"
       x="208.33325"
       y="764.76978" />
    <rect
       style="fill:#ff0000;fill-opacity:1;stroke:none;enable-background:new"
       id="rect5984-9-3-8"
       width="33.333324"
       height="12.5"
       x="241.66675"
       y="764.76978" />
    <rect
       style="fill:#ff0000;fill-opacity:1;stroke:none;enable-background:new"
       id="rect5984-9-3-2"
       width="33.333324"
       height="12.5"
       x="241.66675"
       y="777.26978" />
    <rect
       style="fill:#00ff00;fill-opacity:1;stroke:none;enable-background:new"
       id="rect5984-9-3-11"
       width="33.333324"
       height="12.5"
       x="208.33325"
       y="777.26978" />
    <rect
       style="fill:#800080;fill-opacity:1;stroke:none;enable-background:new"
       id="rect5984-9-3-9"
       width="33.333324"
       height="12.5"
       x="175"
       y="777.26978" />
    <rect
       style="fill:#ffdd55;fill-opacity:1;stroke:none;enable-background:new"
       id="rect5984-5-6-2"
       width="75"
       height="200"
       x="450"
       y="739.76978" />
    <rect
       style="fill:#808080;fill-opacity:1;stroke:none;enable-background:new"
       id="rect5984-5-6-9-2"
       width="50"
       height="250"
       x="1189.8622"
       y="-425"
       transform="matrix(0,1,-1,0,0,0)" />
    <rect
       style="fill:#000000;fill-opacity:1;stroke:none;enable-background:new"
       id="rect5984-5-6-9-2-0"
       width="50"
       height="50"
       x="1189.8622"
       y="-325"
       transform="matrix(0,1,-1,0,0,0)" />
    <rect
       style="fill:#ffdd55;fill-opacity:1;stroke:none;enable-background:new"
       id="rect5984-5-6-9-5-8"
       width="100"
       height="200"
       x="325"
       y="1289.8622" />
    <rect
       style="fill:#ffdd55;fill-opacity:1;stroke:none;enable-background:new"
       id="rect5984-5-6-9-5-8-4"
       width="100"
       height="200"
       x="175"
       y="1289.8622" />
    <rect
       style="fill:#ffdd55;fill-opacity:1;stroke:none;enable-background:new"
       id="rect5984-5-6-9-5-8-9"
       width="100"
       height="250"
       x="150"
       y="1464.8622" />
    <rect
       style="fill:#ffdd55;fill-opacity:1;stroke:none;enable-background:new"
       id="rect5984-5-6-9-5-8-9-2"
       width="100"
       height="250"
       x="350"
       y="1464.8622" />
    <rect
       style="fill:#ffdd55;fill-opacity:1;stroke:none;enable-background:new"
       id="rect5984-5-6-2-0"
       width="75"
       height="200"
       x="75"
       y="739.76978" />
    <path
       style="fill:#333333;fill-opacity:1;stroke:none;enable-background:new"
       d="m 525,1739.8622 0,50 -100,0 0,-50 z"
       id="path8482"
       inkscape:connector-curvature="0" />
    <path
       style="fill:#333333;fill-opacity:1;stroke:none;enable-background:new"
       d="m 450,1564.8622 0,225 -100,0 0,-225 z"
       id="rect5984-5-6-9-2-0-0-0-0-6"
       inkscape:connector-curvature="0" />
    <path
       style="fill:#333333;fill-opacity:1;stroke:none;enable-background:new"
       d="m 75,1739.8622 0,50 100,0 0,-50 z"
       id="path8369"
       inkscape:connector-curvature="0" />
    <path
       style="fill:#333333;fill-opacity:1;stroke:none;enable-background:new"
       d="m 150,1564.8622 0,225 100,0 0,-225 z"
       id="rect5984-5-6-9-2-0-0-0-0-6-7"
       inkscape:connector-curvature="0" />
    <rect
       style="fill:#ffdd55;fill-opacity:1;stroke:none;enable-background:new"
       id="rect5984-5-6-9-5-8-3"
       width="100"
       height="250"
       x="-1341.7401"
       y="161.13673"
       transform="matrix(-0.01117249,-0.99993759,0.99993759,-0.01117249,0,0)" />
    <path
       style="fill:#000000;fill-opacity:1;stroke:none;enable-background:new"
       d="m 200,1789.8622 0,25 50,0 0,-25 z"
       id="rect5984-5-6-9-2-0-0-0-0-6-7-8-4"
       inkscape:connector-curvature="0" />
    <path
       style="fill:#000000;fill-opacity:1;stroke:none;enable-background:new"
       d="m 75,1789.8622 0,25 100,0 0,-25 z"
       id="rect5984-5-6-9-2-0-0-0-0-6-7-8-4-9"
       inkscape:connector-curvature="0" />
    <path
       style="fill:#000000;fill-opacity:1;stroke:none;enable-background:new"
       d="m 400,1789.8622 0,25 -50,0 0,-25 z"
       id="rect5984-5-6-9-2-0-0-0-0-6-7-8-4-2"
       inkscape:connector-curvature="0" />
    <path
       style="fill:#000000;fill-opacity:1;stroke:none;enable-background:new"
       d="m 525,1789.8622 0,25 -100,0 0,-25 z"
       id="rect5984-5-6-9-2-0-0-0-0-6-7-8-4-9-6"
       inkscape:connector-curvature="0" />
    <rect
       style="fill:#ffdd55;fill-opacity:1;stroke:none;enable-background:new"
       id="rect5984-5-6-9-5-5"
       width="75"
       height="125"
       x="-1014.7672"
       y="75"
       transform="matrix(0,-1,1,0,0,0)" />
    <rect
       style="fill:#ffdd55;fill-opacity:1;stroke:none;enable-background:new"
       id="rect5984-5-6-9-5-5-7"
       width="75"
       height="75"
       x="-1014.7672"
       y="175.53577"
       transform="matrix(0,-1,1,0,0,0)" />
    <rect
       style="fill:#006f2d;fill-opacity:1;stroke:none;enable-background:new"
       id="rect6889-4-8"
       width="49.988316"
       height="25"
       x="-299.23553"
       y="-1039.7573"
       transform="matrix(-0.99999972,7.422501e-4,-7.3781993e-4,-0.99999973,0,0)" />
    <rect
       style="fill:#006f2d;fill-opacity:1;stroke:none;enable-background:new"
       id="rect6889-9-4-9-3-2"
       width="24.931301"
       height="24.999001"
       x="-305.99661"
       y="-945.9137"
       transform="matrix(-0.99980441,0.01977737,0.00558863,-0.99998438,0,0)" />
    <rect
       style="fill:#006f2d;fill-opacity:1;stroke:none;enable-background:new"
       id="rect6889-9-4-5-4-3"
       width="75"
       height="25"
       x="-1016.0071"
       y="299.22147"
       transform="matrix(-7.4003001e-4,-0.99999973,0.99999973,-7.4003001e-4,0,0)" />
    <rect
       style="fill:#333333;fill-opacity:1;stroke:none;enable-background:new"
       id="rect5984-5-6-9-2-0-0-5"
       width="75"
       height="75"
       x="939.77002"
       y="-300"
       transform="matrix(0,1,-1,0,0,0)" />
    <rect
       style="fill:#00cb53;fill-opacity:1;stroke:none;enable-background:new"
       id="rect6889-1-7-0"
       width="25"
       height="25"
       x="-324.23062"
       y="-1040.0065"
       transform="matrix(-0.99999973,7.4003001e-4,-7.4003001e-4,-0.99999973,0,0)" />
    <rect
       style="fill:#006f2d;fill-opacity:1;stroke:none;enable-background:new"
       id="rect6889-9-0-3"
       width="49.86208"
       height="24.999372"
       x="-377.32394"
       y="-1042.078"
       transform="matrix(-0.99998477,0.00551881,0.00243712,-0.99999703,0,0)" />
    <rect
       style="fill:#006f2d;fill-opacity:1;stroke:none;enable-background:new"
       id="rect6889-9-4-0-2"
       width="75.691025"
       height="25.000021"
       x="-1014.9734"
       y="249.33704"
       transform="matrix(-6.5349752e-4,-0.99999979,0.99999966,-8.2736248e-4,0,0)" />
    <rect
       style="fill:#006f2d;fill-opacity:1;stroke:none;enable-background:new"
       id="rect6889-9-4-5-0-0-6"
       width="26.018669"
       height="49.843815"
       x="-940.8454"
       y="272.40561"
       transform="matrix(-0.00283533,-0.99999598,0.99999998,-1.9314856e-4,0,0)" />
    <rect
       style="fill:#00d4a9;fill-opacity:1;stroke:none;enable-background:new"
       id="rect8725"
       width="16.666666"
       height="626"
       x="-320.26987"
       y="-1765.9021"
       transform="matrix(-0.99999999,1.306583e-4,-1.306583e-4,-0.99999999,0,0)" />
    <rect
       style="fill:#00f4c6;fill-opacity:1;stroke:none;enable-background:new"
       id="rect8725-8"
       width="16.666666"
       height="626"
       x="-303.60312"
       y="-1765.9021"
       transform="matrix(-0.99999999,1.306583e-4,-1.306583e-4,-0.99999999,0,0)" />
    <rect
       style="fill:#00f4c6;fill-opacity:1;stroke:none;enable-background:new"
       id="rect8725-8-8"
       width="16.666666"
       height="626"
       x="-336.93649"
       y="-1765.9021"
       transform="matrix(-0.99999999,1.306583e-4,-1.306583e-4,-0.99999999,0,0)" />
    <rect
       style="fill:#2a7fff;fill-opacity:1;stroke:none;enable-background:new"
       id="rect5984-9-3-5"
       width="25"
       height="25"
       x="175"
       y="664.76978" />
    <rect
       style="fill:#2a7fff;fill-opacity:1;stroke:none;enable-background:new"
       id="rect5984-9-3"
       width="25"
       height="25"
       x="200"
       y="664.76978" />
    <rect
       style="fill:#2a7fff;fill-opacity:1;stroke:none;enable-background:new"
       id="rect5984-9-3-7"
       width="25"
       height="25"
       x="375"
       y="664.76978" />
    <rect
       style="fill:#2a7fff;fill-opacity:1;stroke:none;enable-background:new"
       id="rect5984-9-3-70"
       width="25"
       height="25"
       x="400"
       y="664.76978" />
    <rect
       style="fill:#00f4c6;fill-opacity:1;stroke:none;enable-background:new"
       id="rect5984-93"
       width="16.666666"
       height="25"
       x="-320.10324"
       y="-1790.9021"
       transform="matrix(-0.99999999,1.306583e-4,-1.306583e-4,-0.99999999,0,0)" />
    <path
       id="rect5984-289-0"
       style="fill:#008000;fill-opacity:1;stroke:none;enable-background:new"
       d="m 350,764.76928 12.5,0 0,12.5 -12.5,0 z m -25,0 12.5,0 0,12.5 -12.5,0 z m 25,12.5 12.5,0 0,12.5 -12.5,0 z m -25,0 12.5,0 0,12.5 -12.5,0 z"
       inkscape:connector-curvature="0" />
    <path
       id="rect5984-28-7"
       style="fill:#000080;fill-opacity:1;stroke:none;enable-background:new"
       d="m 387.5,764.76928 12.5,0 0,12.5 -12.5,0 z m 0,12.5 12.5,0 0,12.5 -12.5,0 z"
       inkscape:connector-curvature="0" />
    <rect
       style="fill:#800000;fill-opacity:1;stroke:none;enable-background:new"
       id="rect5984-89-4"
       width="12.5"
       height="12.5"
       x="387.5"
       y="789.76978" />
    <path
       inkscape:connector-curvature="0"
       id="rect5984-0-1-7-7"
       style="fill:#000080;fill-opacity:1;stroke:none;enable-background:new"
       d="m 375.1953,827.26928 c 4.1667,0 8.3334,0 12.5,0 0,4.16666 0,8.33334 0,12.5 -4.1666,0 -8.3333,0 -12.5,0 0,-4.16666 0,-8.33334 0,-12.5 z m 12.3047,0 c 4.1667,0 8.3333,0 12.5,0 0,4.16666 0,8.33334 0,12.5 -4.1667,0 -8.3333,0 -12.5,0 0,-4.16666 0,-8.33334 0,-12.5 z m -12.5,-25 c 4.1667,0 8.3333,0 12.5,0 0,4.16666 0,8.33334 0,12.5 -4.1667,0 -8.3333,0 -12.5,0 0,-4.16666 0,-8.33334 0,-12.5 z m 25,25 c 4.1667,0 8.3333,0 12.5,0 0,4.16666 0,8.33334 0,12.5 -4.1667,0 -8.3333,0 -12.5,0 0,-4.16666 0,-8.33334 0,-12.5 z m 0,-25 c 4.1667,0 8.3333,0 12.5,0 0,4.16666 0,8.33334 0,12.5 -4.1667,0 -8.3333,0 -12.5,0 0,-4.16666 0,-8.33334 0,-12.5 z m -12.5,12.5 c 4.1667,0 8.3333,0 12.5,0 0,4.16666 0,8.33334 0,12.5 -4.1667,0 -8.3333,0 -12.5,0 0,-4.16666 0,-8.33334 0,-12.5 z m 0,12.5 c 4.1667,0 8.3333,0 12.5,0 0,4.16666 0,8.33334 0,12.5 -4.1667,0 -8.3333,0 -12.5,0 0,-4.16666 0,-8.33334 0,-12.5 z m 12.5,-12.5 c 4.1667,0 8.3333,0 12.5,0 0,4.16666 0,8.33334 0,12.5 -4.1667,0 -8.3333,0 -12.5,0 0,-4.16666 0,-8.33334 0,-12.5 z m -12.5,-12.5 c 4.1667,0 8.3333,0 12.5,0 0,4.16666 0,8.33334 0,12.5 -4.1667,0 -8.3333,0 -12.5,0 0,-4.16666 0,-8.33334 0,-12.5 z m -12.5,12.5 c 4.1667,0 8.3333,0 12.5,0 0,4.16666 0,8.33334 0,12.5 -4.1667,0 -8.3333,0 -12.5,0 0,-4.16666 0,-8.33334 0,-12.5 z" />
    <rect
       style="fill:#ffdd55;fill-opacity:1;stroke:none;enable-background:new"
       id="rect5984-5-6-9-5-5-4"
       width="75"
       height="125"
       x="-1014.7672"
       y="-525"
       transform="matrix(0,-1,-1,0,0,0)" />
    <rect
       style="fill:#ffdd55;fill-opacity:1;stroke:none;enable-background:new"
       id="rect5984-5-6-9-5-5-7-0"
       width="75"
       height="75"
       x="-1014.7672"
       y="-474.46423"
       transform="matrix(0,-1,-1,0,0,0)" />
    <rect
       style="fill:#333333;fill-opacity:1;stroke:none;enable-background:new"
       id="rect5984-5-6-9-2-0-0-5-9"
       width="75"
       height="75"
       x="939.77002"
       y="300"
       transform="matrix(0,1,1,0,0,0)" />
    <rect
       style="fill:#006f2d;fill-opacity:1;stroke:none;enable-background:new"
       id="rect6889-9-4-5-0-0-6-4"
       width="26.018591"
       height="24.880711"
       x="-915.90546"
       y="298.74042"
       transform="matrix(-0.00141533,-0.999999,0.99999993,-3.8693675e-4,0,0)" />
    <path
       id="rect3777"
       style="fill:#2b1100;fill-opacity:1;stroke:none"
       d="m 575,252.26928 25,0 0,699.99915 -25,0 z m -575,0 25,0 0,699.99915 -25,0 z m 0,674.99957 600,0 0,24.99958 -600,0 z m 0,-674.99957 600,0 0,25 -600,0 z"
       inkscape:connector-curvature="0" />
    <path
       id="rect3777-7"
       style="fill:#4f1f00;fill-opacity:1;stroke:none"
       d="m 549.87225,277.26928 25.12776,0 0,649.99957 -25.12776,0 z m -524.87225,0 25.348866,0 0,649.99957 -25.348866,0 z m 0,624.99999 550,0 0,24.99958 -550,0 z m 0,-624.99999 550,0 0,24.93411 -550,0 z"
       inkscape:connector-curvature="0" />
    <rect
       style="fill:#000000;fill-opacity:1;stroke:none"
       id="rect4696"
       width="450"
       height="100"
       x="75"
       y="952.26935" />
    <path
       id="rect4060-7-0-6-279"
       style="fill:#00edff;fill-opacity:1;stroke:none"
       d="m 463.75832,1022.2964 11.6077,0 0,12.5 -11.6077,0 z m 0,-12.5 11.6077,0 0,12.5 -11.6077,0 z m 0,-12.49995 11.6077,0 0,12.49995 -11.6077,0 z m 0,-12.49976 11.6077,0 0,12.49976 -11.6077,0 z m -23.21541,0 11.60771,0 0,12.49976 -11.60771,0 z m 11.60771,0 11.6077,0 0,12.49976 -11.6077,0 z m 0,-12.49979 11.6077,0 0,12.49979 -11.6077,0 z m 0,-12.49979 11.6077,0 0,12.49979 -11.6077,0 z m -11.60771,0 11.60771,0 0,12.49979 -11.60771,0 z m -11.6077,62.49929 11.6077,0 0,12.5 -11.6077,0 z m 0,-12.5 11.6077,0 0,12.5 -11.6077,0 z m 0,-12.49995 11.6077,0 0,12.49995 -11.6077,0 z m 0,-12.49976 11.6077,0 0,12.49976 -11.6077,0 z m 0,-12.49979 11.6077,0 0,12.49979 -11.6077,0 z m 0,-12.49979 11.6077,0 0,12.49979 -11.6077,0 z m -34.82311,-0.1873 11.6077,0 0,12.49979 -11.6077,0 z m -11.6077,0 11.6077,0 0,12.49979 -11.6077,0 z m 11.6077,62.49929 11.6077,0 0,12.5 -11.6077,0 z m -11.6077,0 11.6077,0 0,12.5 -11.6077,0 z m 23.2154,0.1873 11.60771,0 0,12.5 -11.60771,0 z m 0,-24.99995 11.60771,0 0,12.49995 -11.60771,0 z m 0,12.49995 11.60771,0 0,12.5 -11.60771,0 z m 0,-24.99971 11.60771,0 0,12.49976 -11.60771,0 z m 0,-12.49979 11.60771,0 0,12.49979 -11.60771,0 z m 0,-12.49979 11.60771,0 0,12.49979 -11.60771,0 z m -34.82282,62.49929 11.6077,0 0,12.5 -11.6077,0 z m 0,-24.99995 11.6077,0 0,12.49995 -11.6077,0 z m 0,12.49995 11.6077,0 0,12.5 -11.6077,0 z m 0,-24.99971 11.6077,0 0,12.49976 -11.6077,0 z m 0,-12.49979 11.6077,0 0,12.49979 -11.6077,0 z m 0,-12.49979 11.6077,0 0,12.49979 -11.6077,0 z m -23.2293,62.22039 11.6077,0 0,12.5 -11.6077,0 z m -11.6077,0 11.6077,0 0,12.5 -11.6077,0 z m -11.60771,0 11.60771,0 0,12.5 -11.60771,0 z m -11.6077,0 11.6077,0 0,12.5 -11.6077,0 z m 0,-12.5 11.6077,0 0,12.5 -11.6077,0 z m 11.6077,-12.49992 11.60771,0 0,12.49992 -11.60771,0 z m 11.60771,-12.49979 11.6077,0 0,12.49979 -11.6077,0 z m 11.6077,-12.49979 11.6077,0 0,12.49979 -11.6077,0 z m 0,-12.49979 11.6077,0 0,12.49979 -11.6077,0 z m -11.6077,0 11.6077,0 0,12.49979 -11.6077,0 z m -11.60771,0 11.60771,0 0,12.49979 -11.60771,0 z m -11.6077,0 11.6077,0 0,12.49979 -11.6077,0 z m -34.82311,-0.1106 11.6077,0 0,12.49979 -11.6077,0 z m -11.6077,0 11.6077,0 0,12.49979 -11.6077,0 z m 11.6077,37.60997 11.6077,0 0,12.49992 -11.6077,0 z m 11.6077,-0.2211 11.60771,0 0,12.49992 -11.60771,0 z m 0,12.49992 11.60771,0 0,12.4999 -11.60771,0 z m -11.6077,12.4999 11.6077,0 0,12.5 -11.6077,0 z m -11.6077,0 11.6077,0 0,12.5 -11.6077,0 z m -11.60771,-12.4999 11.60771,0 0,12.4999 -11.60771,0 z m 0,-12.49992 11.60771,0 0,12.49992 -11.60771,0 z m 0,-12.49979 11.60771,0 0,12.49979 -11.60771,0 z m 0,-12.49979 11.60771,0 0,12.49979 -11.60771,0 z m -34.82311,-12.49979 11.60771,0 0,12.49979 -11.60771,0 z m -11.6077,0 11.6077,0 0,12.49979 -11.6077,0 z m 11.6077,62.49919 11.60771,0 0,12.5 -11.60771,0 z m -11.6077,0 11.6077,0 0,12.5 -11.6077,0 z m 23.21541,0.1874 11.6077,0 0,12.5 -11.6077,0 z m 0,-24.99992 11.6077,0 0,12.49992 -11.6077,0 z m 0,12.49992 11.6077,0 0,12.5 -11.6077,0 z m 0,-24.99971 11.6077,0 0,12.49979 -11.6077,0 z m 0,-12.49979 11.6077,0 0,12.49979 -11.6077,0 z m 0,-12.49979 11.6077,0 0,12.49979 -11.6077,0 z m -34.82311,62.49929 11.6077,0 0,12.5 -11.6077,0 z m 0,-24.99992 11.6077,0 0,12.49992 -11.6077,0 z m 0,12.49992 11.6077,0 0,12.5 -11.6077,0 z m 0,-24.99971 11.6077,0 0,12.49979 -11.6077,0 z m 0,-12.49979 11.6077,0 0,12.49979 -11.6077,0 z m 0,-12.49979 11.6077,0 0,12.49979 -11.6077,0 z m -23.21541,62.49929 11.6077,0 0,12.5 -11.6077,0 z m -34.82311,0 11.6077,0 0,12.5 -11.6077,0 z m 34.82311,-24.99992 11.6077,0 0,12.49992 -11.6077,0 z m 0,12.49992 11.6077,0 0,12.5 -11.6077,0 z m 0,-24.99971 11.6077,0 0,12.49979 -11.6077,0 z m 0,-12.49979 11.6077,0 0,12.49979 -11.6077,0 z m 0,-12.49979 11.6077,0 0,12.49979 -11.6077,0 z m -11.6077,37.31207 11.6077,0 0,12.49992 -11.6077,0 z m -11.60771,-12.18719 11.60771,0 0,12.49979 -11.60771,0 z m -11.6077,24.87441 11.6077,0 0,12.5 -11.6077,0 z m 0,-12.49992 11.6077,0 0,12.49992 -11.6077,0 z m 0,-12.49979 11.6077,0 0,12.49979 -11.6077,0 z m 0,-12.49979 11.6077,0 0,12.49979 -11.6077,0 z m 0,-12.49979 11.6077,0 0,12.49979 -11.6077,0 z"
       inkscape:connector-curvature="0" />
  </g>
</svg>
