<?xml version="1.0" encoding="UTF-8" standalone="no"?>
<!-- Created with Inkscape (http://www.inkscape.org/) -->

<svg
   xmlns:dc="http://purl.org/dc/elements/1.1/"
   xmlns:cc="http://creativecommons.org/ns#"
   xmlns:rdf="http://www.w3.org/1999/02/22-rdf-syntax-ns#"
   xmlns:svg="http://www.w3.org/2000/svg"
   xmlns="http://www.w3.org/2000/svg"
   xmlns:sodipodi="http://sodipodi.sourceforge.net/DTD/sodipodi-0.dtd"
   xmlns:inkscape="http://www.inkscape.org/namespaces/inkscape"
   width="775"
   height="775"
   id="svg3261"
   version="1.1"
   inkscape:version="0.48.5 r10040"
   sodipodi:docname="shoot-station.svg"
   inkscape:export-filename="H:\AdventureTime\ProgrammingTime\team-project\Assets\Textures\arts\Enviroment\level2_training_room\shoot-station.png"
   inkscape:export-xdpi="90"
   inkscape:export-ydpi="90">
  <defs
     id="defs3263" />
  <sodipodi:namedview
     id="base"
     pagecolor="#ffffff"
     bordercolor="#666666"
     borderopacity="1.0"
     inkscape:pageopacity="0.0"
     inkscape:pageshadow="2"
     inkscape:zoom="0.79950023"
     inkscape:cx="213.24744"
     inkscape:cy="388.3028"
     inkscape:document-units="px"
     inkscape:current-layer="layer1"
     showgrid="true"
     inkscape:showpageshadow="false"
     inkscape:snap-bbox="true"
     inkscape:bbox-nodes="true"
     inkscape:window-width="1215"
     inkscape:window-height="1002"
     inkscape:window-x="57"
     inkscape:window-y="-8"
     inkscape:window-maximized="1">
    <inkscape:grid
       type="xygrid"
       id="grid3269"
       empspacing="1"
       visible="true"
       enabled="true"
       snapvisiblegridlinesonly="true"
       spacingx="25px"
       spacingy="25px" />
  </sodipodi:namedview>
  <metadata
     id="metadata3266">
    <rdf:RDF>
      <cc:Work
         rdf:about="">
        <dc:format>image/svg+xml</dc:format>
        <dc:type
           rdf:resource="http://purl.org/dc/dcmitype/StillImage" />
        <dc:title></dc:title>
      </cc:Work>
    </rdf:RDF>
  </metadata>
  <g
     inkscape:label="Layer 1"
     inkscape:groupmode="layer"
     id="layer1"
     transform="translate(0,-277.36218)">
    <path
       style="fill:#000000;fill-opacity:1;display:inline"
       d="m 0.12867,1028.3622 775.87133,0 0,25 -775.87133,0 z"
       id="path4822" />
    <path
       style="fill:#1a1a1a;fill-opacity:1;display:inline"
       d="m 25.32236,1003.3622 725.81512,0 0,25 -725.81512,0 z"
       id="path4820" />
    <path
       id="rect3411"
       style="fill:#333333;fill-opacity:1"
       d="m 600.06195,327.10312 25,0 0,25 -25,0 z m -400.00005,0.22107 25,0 0,25 -25,0 z m -50,24.6716 525,0 0,125 -525,0 z M 50,302.36218 l 675.12866,0 0,25.00501 -675.12866,0 z m 651.12866,1 25,0 0,700.00002 -25,0 z m -424.87793,474.4422 0,25 -225.999998,0 0,-25 z m -100.74504,24.5578 25,0 0,201.12382 -25,0 z m -125.339529,0 25,0 0,201.00002 -25,0 z m 224.705179,175 375.12866,0 0,26.00002 -375.12866,0 z" />
    <rect
       style="fill:#4d4d4d;fill-opacity:1"
       id="rect3415"
       width="475"
       height="75"
       x="175.0619"
       y="376.11139" />
    <path
       id="rect3417-5-86-196"
       style="fill:#ff6600;fill-opacity:1"
       d="m 595.67947,441.72012 8.76016,0 0,9.39128 -8.76016,0 z m 0,-18.78256 8.76016,0 0,9.39128 -8.76016,0 z m 0,-9.39128 8.76016,0 0,9.39128 -8.76016,0 z m 0,-9.3913 8.76016,0 0,9.3913 -8.76016,0 z m 0,-9.39128 8.76016,0 0,9.39128 -8.76016,0 z m 0,-9.39128 8.76016,0 0,9.39128 -8.76016,0 z m 0,-9.39128 8.76016,0 0,9.39128 -8.76016,0 z m -17.52032,65.73898 8.76016,0 0,9.39128 -8.76016,0 z m 0,-18.78256 8.76016,0 0,9.39128 -8.76016,0 z m 0,-9.39128 8.76016,0 0,9.39128 -8.76016,0 z m 0,-9.3913 8.76016,0 0,9.3913 -8.76016,0 z m 0,-9.39128 8.76016,0 0,9.39128 -8.76016,0 z m 0,-9.39128 8.76016,0 0,9.39128 -8.76016,0 z m 0,-9.39128 8.76016,0 0,9.39128 -8.76016,0 z m -17.52032,65.73898 8.76016,0 0,9.39128 -8.76016,0 z m 0,-18.78256 8.76016,0 0,9.39128 -8.76016,0 z m 0,-9.39128 8.76016,0 0,9.39128 -8.76016,0 z m 0,-9.3913 8.76016,0 0,9.3913 -8.76016,0 z m 0,-9.39128 8.76016,0 0,9.39128 -8.76016,0 z m 0,-9.39128 8.76016,0 0,9.39128 -8.76016,0 z m 0,-9.39128 8.76016,0 0,9.39128 -8.76016,0 z m -17.52031,28.17384 8.76016,0 0,9.3913 -8.76016,0 z m 0,37.56514 8.76016,0 0,9.39128 -8.76016,0 z m 0,-9.39128 8.76016,0 0,9.39128 -8.76016,0 z m 0,-9.39128 8.76016,0 0,9.39128 -8.76016,0 z m 0,-9.39128 8.76016,0 0,9.39128 -8.76016,0 z m 0,0 8.76016,0 0,9.39128 -8.76016,0 z m -17.52032,-9.3913 8.76016,0 0,9.3913 -8.76016,0 z m 8.76016,0 8.76016,0 0,9.3913 -8.76016,0 z m 0,-9.39128 8.76016,0 0,9.39128 -8.76016,0 z m 0,-9.39128 8.76016,0 0,9.39128 -8.76016,0 z m 0,-9.39128 8.76016,0 0,9.39128 -8.76016,0 z m -8.76016,0 8.76016,0 0,9.39128 -8.76016,0 z m -8.76016,65.73898 8.76016,0 0,9.39128 -8.76016,0 z m 0,-9.39128 8.76016,0 0,9.39128 -8.76016,0 z m 0,-9.39128 8.76016,0 0,9.39128 -8.76016,0 z m 0,-9.39128 8.76016,0 0,9.39128 -8.76016,0 z m 0,-9.3913 8.76016,0 0,9.3913 -8.76016,0 z m 0,-9.39128 8.76016,0 0,9.39128 -8.76016,0 z m 0,-9.39128 8.76016,0 0,9.39128 -8.76016,0 z m 0,-9.39128 8.76016,0 0,9.39128 -8.76016,0 z m -17.62431,28.17384 8.76016,0 0,9.3913 -8.76016,0 z m -8.76016,0 8.76016,0 0,9.3913 -8.76016,0 z m 8.76016,37.56514 8.76016,0 0,9.39128 -8.76016,0 z m -8.76016,0 8.76016,0 0,9.39128 -8.76016,0 z m -8.76016,0 8.76016,0 0,9.39128 -8.76016,0 z m 0,-9.39128 8.76016,0 0,9.39128 -8.76016,0 z m 0,-9.39128 8.76016,0 0,9.39128 -8.76016,0 z m 0,-9.39128 8.76016,0 0,9.39128 -8.76016,0 z m 0,-9.3913 8.76016,0 0,9.3913 -8.76016,0 z m 0,-9.39128 8.76016,0 0,9.39128 -8.76016,0 z m 0,-9.39128 8.76016,0 0,9.39128 -8.76016,0 z m 17.52032,-9.39128 8.76016,0 0,9.39128 -8.76016,0 z m -8.76016,0 8.76016,0 0,9.39128 -8.76016,0 z m -8.76016,0 8.76016,0 0,9.39128 -8.76016,0 z m -25.82608,65.73898 8.76016,0 0,9.39128 -8.76016,0 z m 0,-9.39128 8.76016,0 0,9.39128 -8.76016,0 z m 0,-9.39128 8.76016,0 0,9.39128 -8.76016,0 z m 0,-9.39128 8.76016,0 0,9.39128 -8.76016,0 z m 0,-9.3913 8.76016,0 0,9.3913 -8.76016,0 z m 0,-9.39128 8.76016,0 0,9.39128 -8.76016,0 z m 0,-9.39128 8.76016,0 0,9.39128 -8.76016,0 z m 8.40975,-9.39128 8.76016,0 0,9.39128 -8.76016,0 z m -8.76015,0 8.76015,0 0,9.39128 -8.76015,0 z m -8.76016,0 8.76016,0 0,9.39128 -8.76016,0 z m -25.93007,65.73898 8.76015,0 0,9.39128 -8.76015,0 z m 0,-9.39128 8.76015,0 0,9.39128 -8.76015,0 z m 0,-9.39128 8.76015,0 0,9.39128 -8.76015,0 z m 0,-9.39128 8.76015,0 0,9.39128 -8.76015,0 z m 0,-9.3913 8.76015,0 0,9.3913 -8.76015,0 z m 0,-9.39128 8.76015,0 0,9.39128 -8.76015,0 z m 0,-9.39128 8.76015,0 0,9.39128 -8.76015,0 z m 8.40975,-9.39128 8.76016,0 0,9.39128 -8.76016,0 z m -8.76016,0 8.76016,0 0,9.39128 -8.76016,0 z m -8.76017,0 8.76017,0 0,9.39128 -8.76017,0 z m -17.52032,28.17384 8.76016,0 0,9.3913 -8.76016,0 z m -8.76016,0 8.76016,0 0,9.3913 -8.76016,0 z m 8.76016,37.56514 8.76016,0 0,9.39128 -8.76016,0 z m -8.76016,0 8.76016,0 0,9.39128 -8.76016,0 z m -8.76016,0 8.76016,0 0,9.39128 -8.76016,0 z m 0,-9.39128 8.76016,0 0,9.39128 -8.76016,0 z m 0,-9.39128 8.76016,0 0,9.39128 -8.76016,0 z m 0,-9.39128 8.76016,0 0,9.39128 -8.76016,0 z m 0,-9.3913 8.76016,0 0,9.3913 -8.76016,0 z m 0,-9.39128 8.76016,0 0,9.39128 -8.76016,0 z m 0,-9.39128 8.76016,0 0,9.39128 -8.76016,0 z m 17.52032,-9.39128 8.76016,0 0,9.39128 -8.76016,0 z m -8.76016,0 8.76016,0 0,9.39128 -8.76016,0 z m -8.76016,0 8.76016,0 0,9.39128 -8.76016,0 z m -26.28047,28.17384 8.76016,0 0,9.3913 -8.76016,0 z m -8.76016,0 8.76016,0 0,9.3913 -8.76016,0 z m -8.76016,28.04181 8.76016,0 0,9.39128 -8.76016,0 z m 0,9.39128 8.76016,0 0,9.39128 -8.76016,0 z m 8.76016,0 8.76016,0 0,9.39128 -8.76016,0 z m 8.76016,0 8.76016,0 0,9.39128 -8.76016,0 z m 8.76016,0 8.76015,0 0,9.39128 -8.76015,0 z m 0,-9.39128 8.76015,0 0,9.39128 -8.76015,0 z m 0,-9.39128 8.76015,0 0,9.39128 -8.76015,0 z m -52.56096,18.78256 8.76016,0 0,9.39128 -8.76016,0 z m 0,-9.39128 8.76016,0 0,9.39128 -8.76016,0 z m -35.04064,9.39128 8.76016,0 0,9.39128 -8.76016,0 z m 0,-9.39128 8.76016,0 0,9.39128 -8.76016,0 z m -17.52031,9.39128 8.76016,0 0,9.39128 -8.76016,0 z m 0,-9.39128 8.76016,0 0,9.39128 -8.76016,0 z m 105.12191,-18.65051 8.76015,0 0,9.39128 -8.76015,0 z m 0,-9.3913 8.76015,0 0,9.3913 -8.76015,0 z m -8.76016,-9.39128 8.76016,0 0,9.39128 -8.76016,0 z m 0,-9.3913 8.76016,0 0,9.39128 -8.76016,0 z m 0,-9.39133 8.76016,0 0,9.39128 -8.76016,0 z m -8.76016,0 8.76016,0 0,9.39128 -8.76016,0 z m -8.76016,46.95649 8.76016,0 0,9.39128 -8.76016,0 z m 0,-9.39128 8.76016,0 0,9.39128 -8.76016,0 z m 0,-9.3913 8.76016,0 0,9.3913 -8.76016,0 z m 0,-9.39128 8.76016,0 0,9.39128 -8.76016,0 z m 0,-9.3913 8.76016,0 0,9.39128 -8.76016,0 z m 0,-9.39133 8.76016,0 0,9.39128 -8.76016,0 z m -113.88207,9.2593 8.76016,0 0,9.39128 -8.76016,0 z m 8.76016,-9.39128 8.76016,0 0,9.39128 -8.76016,0 z m 8.76016,9.39128 8.76016,0 0,9.39128 -8.76016,0 z m 0,9.39128 8.76016,0 0,9.39128 -8.76016,0 z m -17.52032,0 8.76016,0 0,9.39128 -8.76016,0 z m 8.76016,18.78256 8.76016,0 0,9.3913 -8.76016,0 z m 78.84143,9.56857 8.76016,0 0,9.39128 -8.76016,0 z m 0,-18.78256 8.76016,0 0,9.39128 -8.76016,0 z m 0,9.39128 8.76016,0 0,9.39128 -8.76016,0 z m 0,-18.78257 8.76016,0 0,9.39128 -8.76016,0 z m 0,-9.39134 8.76016,0 0,9.39128 -8.76016,0 z m 0,-9.39132 8.76016,0 0,9.39129 -8.76016,0 z m -8.76016,9.39132 8.76016,0 0,9.39128 -8.76016,0 z m -8.76016,9.39134 8.76016,0 0,9.39128 -8.76016,0 z m -8.76016,-9.39134 8.76016,0 0,9.39128 -8.76016,0 z m -8.76016,37.56519 8.76016,0 0,9.39128 -8.76016,0 z m 0,-9.39128 8.76016,0 0,9.39128 -8.76016,0 z m 0,-9.39128 8.76016,0 0,9.39128 -8.76016,0 z m 0,-9.39129 8.76016,0 0,9.39128 -8.76016,0 z m 0,-9.39134 8.76016,0 0,9.39128 -8.76016,0 z m 0,-9.39132 8.76016,0 0,9.39129 -8.76016,0 z m -17.52031,46.95651 8.76016,0 0,9.39128 -8.76016,0 z m 0,-9.39128 8.76016,0 0,9.39128 -8.76016,0 z m 0,-9.39128 8.76016,0 0,9.39128 -8.76016,0 z m 0,-9.39129 8.76016,0 0,9.39128 -8.76016,0 z m 0,-18.78266 8.76016,0 0,9.39129 -8.76016,0 z m -35.04064,65.5618 8.76016,0 0,9.39128 -8.76016,0 z m 0,-9.39128 8.76016,0 0,9.39128 -8.76016,0 z m 0,-18.78258 8.76016,0 0,9.3913 -8.76016,0 z m 0,9.3913 8.76016,0 0,9.39128 -8.76016,0 z m 17.52032,18.78256 8.76016,0 0,9.39128 -8.76016,0 z m 0,-9.39128 8.76016,0 0,9.39128 -8.76016,0 z m 0,-9.39128 8.76016,0 0,9.39128 -8.76016,0 z m 0,-9.3913 8.76016,0 0,9.3913 -8.76016,0 z m 0,-9.39128 8.76016,0 0,9.39128 -8.76016,0 z m -17.52032,0 8.76016,0 0,9.39128 -8.76016,0 z"
       inkscape:connector-curvature="0" />
    <path
       inkscape:connector-curvature="0"
       id="path3600"
       d="m 78.738024,566.28048 19.731804,0.0568 -0.04973,22.55884 -19.731805,-0.0568 z"
       style="fill:#fff331;fill-opacity:1;stroke:none;display:inline" />
    <path
       inkscape:connector-curvature="0"
       id="path3602"
       d="m 70.835348,570.76948 7.892722,0.0225 -0.05972,27.07066 -7.892722,-0.0225 z"
       style="fill:#fff331;fill-opacity:1;stroke:none;display:inline" />
    <path
       inkscape:connector-curvature="0"
       id="path3604"
       d="m 98.459875,570.8491 7.892515,0.0225 -0.0597,27.07065 -7.892492,-0.0225 z"
       style="fill:#fff331;fill-opacity:1;stroke:none;display:inline" />
    <path
       inkscape:connector-curvature="0"
       id="path3606"
       d="m 98.420085,588.89618 -0.02982,13.53533 -19.731804,-0.0568 0.02982,-13.53534 z"
       style="fill:#fff331;fill-opacity:1;stroke:none;display:inline" />
    <rect
       transform="matrix(0.99999585,0.00288214,-0.00220504,0.99999757,0,0)"
       y="570.56378"
       x="72.093857"
       height="31.582489"
       width="35.517395"
       id="rect3608"
       style="fill:#fff99d;fill-opacity:1;stroke:none;display:inline" />
    <path
       inkscape:connector-curvature="0"
       id="path3610"
       d="m 70.845302,566.25773 7.892722,0.0225 -0.01,4.51175 -7.892722,-0.0225 z"
       style="fill:#fff331;fill-opacity:1;stroke:none;display:inline" />
    <path
       inkscape:connector-curvature="0"
       id="path3612"
       d="m 98.469828,566.33734 7.892502,0.0225 -0.01,4.51175 -7.892518,-0.0225 z"
       style="fill:#fff331;fill-opacity:1;stroke:none;display:inline" />
    <rect
       transform="matrix(0.99999585,0.00288214,-0.00220504,0.99999757,0,0)"
       y="593.12268"
       x="107.61122"
       height="4.5117855"
       width="3.9463773"
       id="rect3614"
       style="fill:#000000;fill-opacity:1;stroke:none;display:inline" />
    <rect
       transform="matrix(-0.00220504,0.99999757,-0.99999585,-0.00288214,0,0)"
       y="-99.718491"
       x="602.14636"
       height="19.731886"
       width="4.5117841"
       id="rect3616"
       style="fill:#000000;fill-opacity:1;stroke:none;display:inline" />
    <rect
       transform="matrix(0.99999585,0.00288214,-0.00220504,0.99999757,0,0)"
       y="597.63458"
       x="99.718491"
       height="4.5117841"
       width="7.8927546"
       id="rect3618"
       style="fill:#000000;fill-opacity:1;stroke:none;display:inline" />
    <rect
       transform="matrix(0.99999585,0.00288214,-0.00220504,0.99999757,0,0)"
       y="597.63458"
       x="72.093857"
       height="4.5117841"
       width="7.8927546"
       id="rect3620"
       style="fill:#000000;fill-opacity:1;stroke:none;display:inline" />
    <rect
       transform="matrix(0.99999585,0.00288214,-0.00220504,0.99999757,0,0)"
       y="566.052"
       x="79.986618"
       height="4.5117841"
       width="19.731886"
       id="rect3622"
       style="fill:#000000;fill-opacity:1;stroke:none;display:inline" />
    <rect
       transform="matrix(0.99999585,0.00288214,-0.00220504,0.99999757,0,0)"
       y="575.07562"
       x="76.040237"
       height="22.55892"
       width="27.624641"
       id="rect3624"
       style="fill:#fffdd6;fill-opacity:1;stroke:none;display:inline" />
    <rect
       transform="matrix(0.99999585,0.00288214,-0.00220504,0.99999757,0,0)"
       y="570.56378"
       x="83.932991"
       height="4.5117841"
       width="3.9463773"
       id="rect3626"
       style="fill:#000000;fill-opacity:1;stroke:none;display:inline" />
    <rect
       transform="matrix(0.99999585,0.00288214,-0.00220504,0.99999757,0,0)"
       y="570.56378"
       x="91.825752"
       height="4.5117841"
       width="3.9463773"
       id="rect3628"
       style="fill:#000000;fill-opacity:1;stroke:none;display:inline" />
    <rect
       transform="matrix(0.99999585,0.00288214,-0.00220504,0.99999757,0,0)"
       y="575.07562"
       x="91.825752"
       height="4.5117841"
       width="3.9463773"
       id="rect3630"
       style="fill:#161616;fill-opacity:1;stroke:none;display:inline" />
    <rect
       transform="matrix(0.99999585,0.00288214,-0.00220504,0.99999757,0,0)"
       y="575.07562"
       x="83.932991"
       height="4.5117841"
       width="3.9463773"
       id="rect3632"
       style="fill:#161616;fill-opacity:1;stroke:none;display:inline" />
    <path
       inkscape:connector-curvature="0"
       d="m 94.473724,588.88488 3.946361,0.0111 -0.0099,4.51182 -3.946361,-0.0111 z m -3.946361,-0.0111 3.946361,0.0111 -0.0099,4.51175 -3.946361,-0.0111 z m -3.936415,-4.52319 3.94636,0.0111 -0.0099,4.51182 -3.946361,-0.0111 z m -3.956307,4.50038 3.946361,0.0111 -0.0099,4.51182 -3.946361,-0.0111 z m -3.946361,-0.0111 3.946361,0.0111 -0.0099,4.51182 -3.946361,-0.0111 z"
       style="fill:#666666;fill-opacity:1;stroke:none;display:inline"
       id="path3634" />
    <path
       inkscape:connector-curvature="0"
       d="m 94.493623,579.8613 3.946361,0.0111 -0.0099,4.51175 -3.946361,-0.0111 z m -0.01,4.51176 3.946361,0.0111 -0.0099,4.51176 -3.946361,-0.0111 z m -15.785444,-0.0456 3.946361,0.0111 -0.0099,4.51175 -3.946361,-0.0111 z m 0.0099,-4.51176 3.946361,0.0111 -0.01,4.51176 -3.946361,-0.0111 z"
       style="fill:#4c4c4c;fill-opacity:1;stroke:none;display:inline"
       id="path3636" />
    <rect
       transform="matrix(0.99999585,0.00288214,-0.00220504,0.99999757,0,0)"
       y="593.12268"
       x="68.147453"
       height="4.5117855"
       width="3.9463773"
       id="rect3638"
       style="fill:#000000;fill-opacity:1;stroke:none;display:inline" />
    <rect
       transform="matrix(0.99999585,0.00288214,-0.00220504,0.99999757,0,0)"
       y="566.052"
       x="68.147453"
       height="4.5117836"
       width="3.9463773"
       id="rect3640"
       style="fill:#000000;fill-opacity:1;stroke:none;display:inline" />
    <rect
       transform="matrix(0.99999585,0.00288214,-0.00220504,0.99999757,0,0)"
       y="566.052"
       x="107.61122"
       height="4.5117836"
       width="3.9463773"
       id="rect3642"
       style="fill:#000000;fill-opacity:1;stroke:none;display:inline" />
    <rect
       transform="matrix(0.99999585,0.00288214,-0.00220504,0.99999757,0,0)"
       y="579.58734"
       x="115.50391"
       height="9.0235672"
       width="3.9463773"
       id="rect3644"
       style="fill:#000000;fill-opacity:1;stroke:none;display:inline" />
    <rect
       transform="matrix(0.99999585,0.00288214,-0.00220504,0.99999757,0,0)"
       y="570.56378"
       x="111.55756"
       height="9.0235672"
       width="3.9463773"
       id="rect3646"
       style="fill:#000000;fill-opacity:1;stroke:none;display:inline" />
    <rect
       transform="matrix(0.99999585,0.00288214,-0.00220504,0.99999757,0,0)"
       y="588.61096"
       x="111.55756"
       height="4.5117841"
       width="3.9463773"
       id="rect3648"
       style="fill:#000000;fill-opacity:1;stroke:none;display:inline" />
    <rect
       transform="matrix(0.99999585,0.00288214,-0.00220504,0.99999757,0,0)"
       y="570.56378"
       x="64.200951"
       height="9.0235672"
       width="3.9463773"
       id="rect3650"
       style="fill:#000000;fill-opacity:1;stroke:none;display:inline" />
    <rect
       transform="matrix(0.99999585,0.00288214,-0.00220504,0.99999757,0,0)"
       y="579.58734"
       x="60.25462"
       height="9.0235672"
       width="3.9463773"
       id="rect3652"
       style="fill:#000000;fill-opacity:1;stroke:none;display:inline" />
    <rect
       transform="matrix(0.99999585,0.00288214,-0.00220504,0.99999757,0,0)"
       y="588.61096"
       x="64.200951"
       height="4.5117855"
       width="3.9463773"
       id="rect3654"
       style="fill:#000000;fill-opacity:1;stroke:none;display:inline" />
    <path
       inkscape:connector-curvature="0"
       d="m 62.922744,579.77031 3.94636,0.0111 -0.01991,9.02352 -3.946361,-0.0111 z m 3.966244,-9.0122 3.94636,0.0111 -0.04973,22.55891 -3.946361,-0.0111 z"
       style="fill:#fff331;fill-opacity:1;stroke:none;display:inline"
       id="path3656" />
    <path
       d="m 114.22521,579.91817 -3.94636,-0.0111 -0.0199,9.02358 3.94635,0.0111 z m -3.92647,-9.03494 -3.94635,-0.0111 -0.0497,22.55891 3.94637,0.0111 z"
       style="fill:#fff331;fill-opacity:1;stroke:none;display:inline"
       id="path3658"
       inkscape:connector-curvature="0" />
    <path
       inkscape:connector-curvature="0"
       d="m 69.981692,327.2126 35.517138,0 0,11.21422 -35.517138,0 z m 3.946369,11.21422 27.624539,0 0,11.21421 -27.624539,0 z m 3.946377,11.21421 19.731868,0 0,5.60711 -19.731868,0 z m 3.946369,5.60711 11.839122,0 0,179.42744 -11.839122,0 z"
       style="fill:#000000;fill-opacity:1;stroke:none;display:inline"
       id="path3666" />
    <path
       id="rect3855-8"
       style="fill:#d45500;fill-opacity:1;display:inline"
       d="m 51.063651,548.24464 74.980869,0 0,13.53533 -74.980869,0 z m -7.876162,9.05756 3.946369,0 0,4.51182 -3.946369,0 z m 3.94974,-4.55262 3.946368,0 0,4.51175 -3.946368,0 z m 0,4.51175 3.946368,0 0,4.51182 -3.946368,0 z m 78.903921,-4.5376 3.9464,0 0,4.51181 -3.9464,0 z m 0,4.51181 3.9464,0 0,4.51176 -3.9464,0 z m 3.9464,0 3.94634,0 0,4.51176 -3.94634,0 z"
       inkscape:connector-curvature="0" />
    <path
       id="rect3855-77"
       style="fill:#ff7f2a;fill-opacity:1;display:inline"
       d="m 114.20541,543.73282 3.94637,0 0,4.51182 -3.94637,0 z m -51.37381,-9.02358 51.37381,0 0,13.55326 -51.37381,0 z m 51.37381,4.51182 3.94637,0 0,4.51176 -3.94637,0 z m 3.94637,4.51176 3.94637,0 0,4.51182 -3.94637,0 z m -59.195384,0 3.946377,0 0,4.51182 -3.946377,0 z m 0,-4.51176 3.946377,0 0,4.51176 -3.946377,0 z m -3.946376,4.51176 3.946376,0 0,4.51182 -3.946376,0 z"
       inkscape:connector-curvature="0" />
    <path
       id="rect3855-2-3"
       style="fill:#aa4400;fill-opacity:1;display:inline"
       d="m 31.331783,575.31535 3.946377,0 0,4.51176 -3.946377,0 z m 3.946377,-4.51181 3.946369,0 0,4.51181 -3.946369,0 z m 0,4.51181 3.946369,0 0,4.51176 -3.946369,0 z m 106.55193,0 3.94638,0 0,4.51176 -3.94638,0 z m -3.94641,0 3.94641,0 0,4.51176 -3.94641,0 z m 0,-4.51181 3.94641,0 0,4.51181 -3.94641,0 z m -98.659151,-9.08461 98.830971,0 0,18.04715 -98.830971,0 z"
       inkscape:connector-curvature="0" />
  </g>
</svg>
