<?xml version="1.0" encoding="UTF-8" standalone="no"?>
<!-- Created with Inkscape (http://www.inkscape.org/) -->

<svg
   xmlns:dc="http://purl.org/dc/elements/1.1/"
   xmlns:cc="http://creativecommons.org/ns#"
   xmlns:rdf="http://www.w3.org/1999/02/22-rdf-syntax-ns#"
   xmlns:svg="http://www.w3.org/2000/svg"
   xmlns="http://www.w3.org/2000/svg"
   xmlns:sodipodi="http://sodipodi.sourceforge.net/DTD/sodipodi-0.dtd"
   xmlns:inkscape="http://www.inkscape.org/namespaces/inkscape"
   width="700"
   height="400"
   id="svg2"
   version="1.1"
   inkscape:version="0.48.5 r10040"
   sodipodi:docname="sword.svg"
   inkscape:export-filename="H:\AdventureTime\ProgrammingTime\team-project\Assets\Textures\arts\Enviroment\level2_training_room\sword.png"
   inkscape:export-xdpi="90"
   inkscape:export-ydpi="90">
  <defs
     id="defs4" />
  <sodipodi:namedview
     id="base"
     pagecolor="#ffffff"
     bordercolor="#666666"
     borderopacity="1.0"
     inkscape:pageopacity="0.0"
     inkscape:pageshadow="2"
     inkscape:zoom="0.38911589"
     inkscape:cx="665.26572"
     inkscape:cy="616.66193"
     inkscape:document-units="px"
     inkscape:current-layer="layer1"
     showgrid="true"
     inkscape:showpageshadow="false"
     inkscape:window-width="1215"
     inkscape:window-height="1002"
     inkscape:window-x="57"
     inkscape:window-y="-8"
     inkscape:window-maximized="1">
    <inkscape:grid
       type="xygrid"
       id="grid2985"
       empspacing="1"
       visible="true"
       enabled="true"
       snapvisiblegridlinesonly="true"
       spacingx="25px"
       spacingy="25px" />
  </sodipodi:namedview>
  <metadata
     id="metadata7">
    <rdf:RDF>
      <cc:Work
         rdf:about="">
        <dc:format>image/svg+xml</dc:format>
        <dc:type
           rdf:resource="http://purl.org/dc/dcmitype/StillImage" />
        <dc:title></dc:title>
      </cc:Work>
    </rdf:RDF>
  </metadata>
  <g
     inkscape:label="Layer 1"
     inkscape:groupmode="layer"
     id="layer1"
     transform="translate(0,-652.36218)">
    <rect
       style="color:#000000;fill:#ffd5d5;fill-opacity:1;fill-rule:nonzero;stroke:none;stroke-width:1px;marker:none;visibility:visible;display:inline;overflow:visible;enable-background:accumulate"
       id="rect4281"
       width="600"
       height="300"
       x="50"
       y="50"
       transform="translate(0,652.36218)" />
    <rect
       style="color:#000000;fill:#808080;fill-opacity:1;fill-rule:nonzero;stroke:none;stroke-width:1px;marker:none;visibility:visible;display:inline;overflow:visible;enable-background:accumulate"
       id="rect4279"
       width="525"
       height="50"
       x="125"
       y="175"
       transform="translate(0,652.36218)" />
    <path
       id="rect3007-7"
       style="color:#000000;fill:#550000;fill-opacity:1;fill-rule:nonzero;stroke:none;stroke-width:1px;marker:none;visibility:visible;display:inline;overflow:visible;enable-background:accumulate"
       d="m 675,652.36218 25,0 0,400.00002 -25,0 z m -675,0 25,0 0,400.00002 -25,0 z m 0,375.00002 700,0 0,25 -700,0 z m 0,-375.00002 700,0 0,25 -700,0 z" />
    <rect
       style="color:#000000;fill:#800000;fill-opacity:1;fill-rule:nonzero;stroke:none;stroke-width:1px;marker:none;visibility:visible;display:inline;overflow:visible;enable-background:accumulate"
       id="rect3032"
       width="25"
       height="350"
       x="25"
       y="25"
       transform="translate(0,652.36218)" />
    <rect
       style="color:#000000;fill:#800000;fill-opacity:1;fill-rule:nonzero;stroke:none;stroke-width:1px;marker:none;visibility:visible;display:inline;overflow:visible;enable-background:accumulate"
       id="rect3032-4"
       width="25"
       height="350"
       x="650"
       y="677.36218" />
    <rect
       style="color:#000000;fill:#800000;fill-opacity:1;fill-rule:nonzero;stroke:none;stroke-width:1px;marker:none;visibility:visible;display:inline;overflow:visible;enable-background:accumulate"
       id="rect3052"
       width="650"
       height="25"
       x="25"
       y="25"
       transform="translate(0,652.36218)" />
    <rect
       style="color:#000000;fill:#800000;fill-opacity:1;fill-rule:nonzero;stroke:none;stroke-width:1px;marker:none;visibility:visible;display:inline;overflow:visible;enable-background:accumulate"
       id="rect3054"
       width="650"
       height="25"
       x="25"
       y="1002.3622" />
    <rect
       style="color:#000000;fill:#800000;fill-opacity:1;fill-rule:nonzero;stroke:none;stroke-width:1px;marker:none;visibility:visible;display:inline;overflow:visible;enable-background:accumulate"
       id="rect4222"
       width="400"
       height="75"
       x="150"
       y="325"
       transform="translate(0,652.36218)" />
    <path
       id="rect3056-0-28-6-2"
       style="color:#000000;fill:#00abab;fill-opacity:1;fill-rule:nonzero;stroke:none;stroke-width:1px;marker:none;visibility:visible;display:inline;overflow:visible;enable-background:accumulate"
       d="m 487.1504,1039.8717 13.71875,0 0,10.2041 -13.71875,0 z m -6.85938,-61.22456 6.85938,0 0,71.42866 -6.85938,0 z m -20.57812,61.22456 13.71875,0 0,10.2041 -13.71875,0 z m -6.85938,-61.22456 6.85938,0 0,71.42866 -6.85938,0 z m -13.71875,0 6.85938,0 0,61.22456 -6.85938,0 z m -13.71875,61.22456 13.71875,0 0,10.2041 -13.71875,0 z m -6.85937,-61.22456 6.85937,0 0,61.22456 -6.85937,0 z m -13.71875,61.22456 6.85937,0 0,10.2041 -6.85937,0 z m 0,-10.2041 6.85937,0 0,10.2041 -6.85937,0 z m -6.85938,-10.2041 6.85938,0 0,10.2041 -6.85938,0 z m 6.85938,-40.81636 6.85937,0 0,10.20409 -6.85937,0 z m 0,10.20409 6.85937,0 0,10.20407 -6.85937,0 z m -6.85938,10.20407 6.85938,0 0,10.2041 -6.85938,0 z m -6.85937,10.2041 6.85937,0 0,10.2041 -6.85937,0 z m -6.85938,30.6123 6.85938,0 0,10.2041 -6.85938,0 z m 0,-10.2041 6.85938,0 0,10.2041 -6.85938,0 z m 0,-10.2041 6.85938,0 0,10.2041 -6.85938,0 z m 0,-10.2041 6.85938,0 0,10.2041 -6.85938,0 z m 0,-10.2041 6.85938,0 0,10.2041 -6.85938,0 z m 0,-10.20407 6.85938,0 0,10.20407 -6.85938,0 z m 0,-10.20409 6.85938,0 0,10.20409 -6.85938,0 z m -34.29687,61.22456 6.85937,0 0,10.2041 -6.85937,0 z m 6.85937,0 6.85938,0 0,10.2041 -6.85938,0 z m 6.85938,0 6.85937,0 0,10.2041 -6.85937,0 z m 6.85937,-10.2041 6.85938,0 0,10.2041 -6.85938,0 z m -6.85937,-10.2041 6.85937,0 0,10.2041 -6.85937,0 z m -6.85938,-10.2041 6.85938,0 0,10.2041 -6.85938,0 z m -6.85937,-10.2041 6.85937,0 0,10.2041 -6.85937,0 z m 0,-10.20407 6.85937,0 0,10.20407 -6.85937,0 z m 20.57812,-10.20409 6.85938,0 0,10.20409 -6.85938,0 z m -6.85937,0 6.85937,0 0,10.20409 -6.85937,0 z m -6.85938,0 6.85938,0 0,10.20409 -6.85938,0 z m -41.15625,61.22456 6.85938,0 0,10.204 -6.85938,0 z m 6.85938,-10.2041 6.85937,0 0,10.2041 -6.85937,0 z m 6.85937,-51.02046 6.85938,0 0,10.20409 -6.85938,0 z m 0,10.20409 6.85938,0 0,10.20407 -6.85938,0 z m 0,10.20407 6.85938,0 0,10.2041 -6.85938,0 z m 0,10.2041 6.85938,0 0,10.2041 -6.85938,0 z m -6.85937,10.2041 6.85937,0 0,10.2041 -6.85937,0 z m -6.85938,0 6.85938,0 0,10.2041 -6.85938,0 z m -6.85937,-10.2041 6.85937,0 0,10.2041 -6.85937,0 z m 0,-10.2041 6.85937,0 0,10.2041 -6.85937,0 z m 0,-10.20407 6.85937,0 0,10.20407 -6.85937,0 z m 0,-10.20409 6.85937,0 0,10.20409 -6.85937,0 z m -75.45313,20.40816 6.85938,0 0,10.2041 -6.85938,0 z m -20.57812,30.6123 6.85937,0 0,10.2041 -6.85937,0 z m 20.57812,0 6.85938,0 0,10.2041 -6.85938,0 z m -6.85937,-51.02046 6.85937,0 0,10.20409 -6.85937,0 z m -6.85938,0 6.85938,0 0,10.20409 -6.85938,0 z m -6.85937,10.20409 6.85937,0 0,10.20407 -6.85937,0 z m 0,10.20407 6.85937,0 0,10.2041 -6.85937,0 z m 13.71875,0 6.85937,0 0,10.2041 -6.85937,0 z m 6.85937,10.2041 6.85938,0 0,10.2041 -6.85938,0 z m 0,10.2041 6.85938,0 0,10.2041 -6.85938,0 z m -6.85937,20.4082 6.85937,0 0,10.2041 -6.85937,0 z m -6.85938,0 6.85938,0 0,10.2041 -6.85938,0 z m -6.85937,-20.4082 6.85937,0 0,10.2041 -6.85937,0 z m 0,-10.2041 6.85937,0 0,10.2041 -6.85937,0 z m 54.875,30.6123 6.85937,0 0,10.2041 -6.85937,0 z m -20.57813,0 6.85938,0 0,10.2041 -6.85938,0 z m 6.85938,-30.6123 6.85937,0 0,10.2041 -6.85937,0 z m 6.85937,-10.2041 6.85938,0 0,10.2041 -6.85938,0 z m 0,10.2041 6.85938,0 0,10.2041 -6.85938,0 z m 6.85938,20.4082 6.85937,0 0,10.2041 -6.85937,0 z m 0,-10.2041 6.85937,0 0,10.2041 -6.85937,0 z m 0,-10.2041 6.85937,0 0,10.2041 -6.85937,0 z m -6.85938,-20.40817 6.85938,0 0,10.20407 -6.85938,0 z m 0,-10.20409 6.85938,0 0,10.20409 -6.85938,0 z m -6.85937,0 6.85937,0 0,10.20409 -6.85937,0 z m -6.85938,51.02046 6.85938,0 0,10.2041 -6.85938,0 z m 0,-10.2041 6.85938,0 0,10.2041 -6.85938,0 z m 0,-10.2041 6.85938,0 0,10.2041 -6.85938,0 z m 0,-10.2041 6.85938,0 0,10.2041 -6.85938,0 z m 0,-10.20407 6.85938,0 0,10.20407 -6.85938,0 z m 0,-10.20409 6.85938,0 0,10.20409 -6.85938,0 z m 48.01563,61.22456 6.85937,0 0,10.2041 -6.85937,0 z m -6.85938,0 6.85938,0 0,10.2041 -6.85938,0 z m -6.85937,0 6.85937,0 0,10.2041 -6.85937,0 z m 13.71875,-30.6123 6.85937,0 0,10.2041 -6.85937,0 z m -6.85938,0 6.85938,0 0,10.2041 -6.85938,0 z m -6.85937,20.4082 6.85937,0 0,10.2041 -6.85937,0 z m 0,-10.2041 6.85937,0 0,10.2041 -6.85937,0 z m 0,0 6.85937,0 0,10.2041 -6.85937,0 z m 0,-10.2041 6.85937,0 0,10.2041 -6.85937,0 z m 0,-10.2041 6.85937,0 0,10.2041 -6.85937,0 z m 0,-10.20407 6.85937,0 0,10.20407 -6.85937,0 z m 13.71875,-10.20409 6.85937,0 0,10.20409 -6.85937,0 z m -6.85938,0 6.85938,0 0,10.20409 -6.85938,0 z m -6.85937,0 6.85937,0 0,10.20409 -6.85937,0 z"
       inkscape:connector-curvature="0" />
    <rect
       style="color:#000000;fill:#000000;fill-opacity:1;fill-rule:nonzero;stroke:none;stroke-width:1px;marker:none;visibility:visible;display:inline;overflow:visible;enable-background:accumulate"
       id="rect4228"
       width="25"
       height="100"
       x="50"
       y="802.36218" />
    <rect
       style="color:#000000;fill:#333333;fill-opacity:1;fill-rule:nonzero;stroke:none;stroke-width:1px;marker:none;visibility:visible;display:inline;overflow:visible;enable-background:accumulate"
       id="rect4228-4"
       width="50"
       height="50.000004"
       x="75"
       y="827.36218" />
    <rect
       style="color:#000000;fill:#1a1a1a;fill-opacity:1;fill-rule:nonzero;stroke:none;stroke-width:1px;marker:none;visibility:visible;display:inline;overflow:visible;enable-background:accumulate"
       id="rect4228-2"
       width="25"
       height="150"
       x="125"
       y="777.36218" />
    <rect
       style="color:#000000;fill:#b3b3b3;fill-opacity:1;fill-rule:nonzero;stroke:none;stroke-width:1px;marker:none;visibility:visible;display:inline;overflow:visible;enable-background:accumulate"
       id="rect4277"
       width="50"
       height="50"
       x="125"
       y="175"
       transform="translate(0,652.36218)" />
  </g>
</svg>
