<?xml version="1.0" encoding="UTF-8" standalone="no"?>
<!-- Created with Inkscape (http://www.inkscape.org/) -->

<svg
   xmlns:dc="http://purl.org/dc/elements/1.1/"
   xmlns:cc="http://creativecommons.org/ns#"
   xmlns:rdf="http://www.w3.org/1999/02/22-rdf-syntax-ns#"
   xmlns:svg="http://www.w3.org/2000/svg"
   xmlns="http://www.w3.org/2000/svg"
   xmlns:sodipodi="http://sodipodi.sourceforge.net/DTD/sodipodi-0.dtd"
   xmlns:inkscape="http://www.inkscape.org/namespaces/inkscape"
   width="700"
   height="600"
   id="svg2"
   version="1.1"
   inkscape:version="0.48.5 r10040"
   sodipodi:docname="training-target.svg"
   inkscape:export-filename="H:\AdventureTime\ProgrammingTime\team-project\Assets\Textures\arts\Enviroment\level2_training_room\training-target.png"
   inkscape:export-xdpi="90"
   inkscape:export-ydpi="90">
  <defs
     id="defs4" />
  <sodipodi:namedview
     id="base"
     pagecolor="#ffffff"
     bordercolor="#666666"
     borderopacity="1.0"
     inkscape:pageopacity="0.0"
     inkscape:pageshadow="2"
     inkscape:zoom="0.56533203"
     inkscape:cx="304.02588"
     inkscape:cy="363.05349"
     inkscape:document-units="px"
     inkscape:current-layer="layer1"
     showgrid="true"
     inkscape:showpageshadow="false"
     objecttolerance="10000"
     guidetolerance="10000"
     inkscape:snap-bbox="true"
     inkscape:bbox-nodes="true"
     inkscape:window-width="1215"
     inkscape:window-height="1002"
     inkscape:window-x="57"
     inkscape:window-y="-8"
     inkscape:window-maximized="1">
    <inkscape:grid
       type="xygrid"
       id="grid2985"
       empspacing="1"
       visible="true"
       enabled="true"
       snapvisiblegridlinesonly="true"
       spacingx="25px"
       spacingy="25px" />
  </sodipodi:namedview>
  <metadata
     id="metadata7">
    <rdf:RDF>
      <cc:Work
         rdf:about="">
        <dc:format>image/svg+xml</dc:format>
        <dc:type
           rdf:resource="http://purl.org/dc/dcmitype/StillImage" />
        <dc:title></dc:title>
      </cc:Work>
    </rdf:RDF>
  </metadata>
  <g
     inkscape:label="Layer 1"
     inkscape:groupmode="layer"
     id="layer1"
     transform="translate(0,-452.36218)">
    <path
       id="rect3100-82"
       style="fill:#000000;fill-opacity:1"
       d="m 450,802.36218 25,0 0,100 -25,0 z m -225,0 25,0 0,100 -25,0 z m 250,50 25,0 0,100 -25,0 z m -275,0 25,0 0,100 -25,0 z m 300,75 25,0 0,75.00002 -25,0 z m -325,0 25,0 0,75.00002 -25,0 z m 275,75.00002 125,0 0,25 -125,0 z m -25,25 175,0 0,25 -175,0 z m -300,-25 125,0 0,25 -125,0 z m -25,25 175,0 0,25 -175,0 z" />
    <rect
       style="fill:#000000;fill-opacity:1"
       id="rect3157"
       width="350"
       height="350"
       x="175"
       y="50"
       transform="translate(0,452.36218)" />
    <rect
       style="fill:#ffff00;fill-opacity:1"
       id="rect3159"
       width="300"
       height="300"
       x="200"
       y="75"
       transform="translate(0,452.36218)" />
    <rect
       style="fill:#d40000;fill-opacity:1"
       id="rect3161"
       width="250"
       height="250"
       x="225"
       y="100"
       transform="translate(0,452.36218)" />
    <rect
       style="fill:#ffff00;fill-opacity:1"
       id="rect3163"
       width="200"
       height="200"
       x="250"
       y="125"
       transform="translate(0,452.36218)" />
    <rect
       style="fill:#d40000;fill-opacity:1"
       id="rect3165"
       width="150"
       height="150"
       x="275"
       y="150"
       transform="translate(0,452.36218)" />
    <rect
       style="fill:#00ffff;fill-opacity:1"
       id="rect3167"
       width="50"
       height="50"
       x="325"
       y="200"
       transform="translate(0,452.36218)" />
    <rect
       style="fill:#ffff00;fill-opacity:1"
       id="rect3169"
       width="25"
       height="25"
       x="300"
       y="250"
       transform="translate(0,452.36218)" />
    <rect
       style="fill:#ffff00;fill-opacity:1"
       id="rect3169-4"
       width="25"
       height="25"
       x="275"
       y="727.36218" />
    <rect
       style="fill:#d40000;fill-opacity:1"
       id="rect3169-5"
       width="25"
       height="25"
       x="250"
       y="752.36218" />
    <rect
       style="fill:#ffff00;fill-opacity:1"
       id="rect3169-51"
       width="25"
       height="25"
       x="225"
       y="777.36218" />
    <rect
       style="fill:#d40000;fill-opacity:1"
       id="rect3169-7"
       width="25"
       height="25"
       x="200"
       y="802.36218" />
    <rect
       style="fill:#ffff00;fill-opacity:1"
       id="rect3169-1"
       width="25"
       height="25"
       x="375"
       y="627.36218" />
    <rect
       style="fill:#ffff00;fill-opacity:1"
       id="rect3169-15"
       width="25"
       height="25"
       x="400"
       y="602.36218" />
    <rect
       style="fill:#d40000;fill-opacity:1"
       id="rect3169-2"
       width="25"
       height="25"
       x="425"
       y="577.36218" />
    <rect
       style="fill:#ffff00;fill-opacity:1"
       id="rect3169-76"
       width="25"
       height="25"
       x="450"
       y="552.36218" />
    <rect
       style="fill:#d40000;fill-opacity:1"
       id="rect3169-14"
       width="25"
       height="25"
       x="475"
       y="527.36218" />
    <rect
       style="fill:#ffff00;fill-opacity:1"
       id="rect3169-23"
       width="25"
       height="25"
       x="375"
       y="702.36218" />
    <rect
       style="fill:#ffff00;fill-opacity:1"
       id="rect3169-22"
       width="25"
       height="25"
       x="400"
       y="727.36218" />
    <rect
       style="fill:#d40000;fill-opacity:1"
       id="rect3169-16"
       width="25"
       height="25"
       x="425"
       y="752.36218" />
    <rect
       style="fill:#ffff00;fill-opacity:1"
       id="rect3169-8"
       width="25"
       height="25"
       x="450"
       y="777.36218" />
    <rect
       style="fill:#d40000;fill-opacity:1"
       id="rect3169-57"
       width="25"
       height="25"
       x="475"
       y="802.36218" />
    <rect
       style="fill:#ffff00;fill-opacity:1"
       id="rect3169-6"
       width="25"
       height="25"
       x="300"
       y="627.36218" />
    <rect
       style="fill:#ffff00;fill-opacity:1"
       id="rect3169-18"
       width="25"
       height="25"
       x="275"
       y="602.36218" />
    <rect
       style="fill:#d40000;fill-opacity:1"
       id="rect3169-9"
       width="25"
       height="25"
       x="250"
       y="577.36218" />
    <rect
       style="fill:#ffff00;fill-opacity:1"
       id="rect3169-27"
       width="25"
       height="25"
       x="225"
       y="552.36218" />
    <rect
       style="fill:#d40000;fill-opacity:1"
       id="rect3169-95"
       width="25"
       height="25"
       x="200"
       y="527.36218" />
  </g>
</svg>
