<?xml version="1.0" encoding="UTF-8" standalone="no"?>
<!-- Created with Inkscape (http://www.inkscape.org/) -->

<svg
   xmlns:dc="http://purl.org/dc/elements/1.1/"
   xmlns:cc="http://creativecommons.org/ns#"
   xmlns:rdf="http://www.w3.org/1999/02/22-rdf-syntax-ns#"
   xmlns:svg="http://www.w3.org/2000/svg"
   xmlns="http://www.w3.org/2000/svg"
   xmlns:sodipodi="http://sodipodi.sourceforge.net/DTD/sodipodi-0.dtd"
   xmlns:inkscape="http://www.inkscape.org/namespaces/inkscape"
   width="1475"
   height="325"
   id="svg2"
   version="1.1"
   inkscape:version="0.48.5 r10040"
   sodipodi:docname="turret-shoot.svg"
   inkscape:export-filename="H:\AdventureTime\ProgrammingTime\team-project\Assets\Animation\turret-shoot.png"
   inkscape:export-xdpi="90"
   inkscape:export-ydpi="90">
  <defs
     id="defs4" />
  <sodipodi:namedview
     id="base"
     pagecolor="#ffffff"
     bordercolor="#666666"
     borderopacity="1.0"
     inkscape:pageopacity="0.0"
     inkscape:pageshadow="2"
     inkscape:zoom="0.35"
     inkscape:cx="817.14784"
     inkscape:cy="263.71964"
     inkscape:document-units="px"
     inkscape:current-layer="layer1"
     showgrid="true"
     inkscape:showpageshadow="false"
     inkscape:window-width="1215"
     inkscape:window-height="1002"
     inkscape:window-x="57"
     inkscape:window-y="-8"
     inkscape:window-maximized="1">
    <inkscape:grid
       type="xygrid"
       id="grid2985"
       empspacing="1"
       visible="true"
       enabled="true"
       snapvisiblegridlinesonly="true"
       spacingx="25px"
       spacingy="25px" />
  </sodipodi:namedview>
  <metadata
     id="metadata7">
    <rdf:RDF>
      <cc:Work
         rdf:about="">
        <dc:format>image/svg+xml</dc:format>
        <dc:type
           rdf:resource="http://purl.org/dc/dcmitype/StillImage" />
        <dc:title></dc:title>
      </cc:Work>
    </rdf:RDF>
  </metadata>
  <g
     inkscape:label="Layer 1"
     inkscape:groupmode="layer"
     id="layer1"
     transform="translate(0,-727.36218)">
    <rect
       style="fill:#000080;fill-opacity:1;stroke:none"
       id="rect3006"
       width="325"
       height="75"
       x="125"
       y="727.36218" />
    <rect
       style="fill:#00009b;fill-opacity:1;stroke:none"
       id="rect3008"
       width="250"
       height="24.999998"
       x="175"
       y="802.36218" />
    <path
       id="rect3407-60-5"
       style="fill:#ff0000;fill-opacity:1;stroke:none"
       d="m 402.5,777.36218 7.5,0 0,10 -7.5,0 z m 0,-40 7.5,0 0,30 -7.5,0 z m -22.5,0 7.5,0 0,50 -7.5,0 z m 7.5,0 7.5,0 0,10 -7.5,0 z m -15,0 7.5,0 0,10 -7.5,0 z m -15,0 7.5,0 0,10 -7.5,0 z m 0,10 7.5,0 0,10 -7.5,0 z m 0,10 7.5,0 0,10 -7.5,0 z m 0,10 7.5,0 0,10 -7.5,0 z m 0,10 7.5,0 0,10 -7.5,0 z m -7.5,0 7.5,0 0,10 -7.5,0 z m -7.5,-10 7.5,0 0,10 -7.5,0 z m 0,10 7.5,0 0,10 -7.5,0 z m 0,-20 7.5,0 0,10 -7.5,0 z m 0,-10 7.5,0 0,10 -7.5,0 z m 0,-10 7.5,0 0,10 -7.5,0 z m -22.5,0 7.5,0 0,10 -7.5,0 z m 7.5,0 7.5,0 0,10 -7.5,0 z m 0,10 7.5,0 0,10 -7.5,0 z m 0,10 7.5,0 0,10 -7.5,0 z m 0,10 7.5,0 0,10 -7.5,0 z m 0,10 7.5,0 0,10 -7.5,0 z m -7.5,0 7.5,0 0,10 -7.5,0 z m -7.5,0 7.5,0 0,10 -7.5,0 z m 0,-10 7.5,0 0,10 -7.5,0 z m 0,-10 7.5,0 0,10 -7.5,0 z m 0,-10 7.5,0 0,10 -7.5,0 z m 0,-10 7.5,0 0,10 -7.5,0 z m -30,20 7.5,0 0,10 -7.5,0 z m 7.5,0 7.5,0 0,10 -7.5,0 z m 0,-20 7.5,0 0,10 -7.5,0 z m 0,10 7.5,0 0,10 -7.5,0 z m -7.5,-10 7.5,0 0,10 -7.5,0 z m -7.5,0 7.5,0 0,50 -7.5,0 z m -15,40 7.5,0 0,10 -7.5,0 z m -7.5,0 7.5,0 0,10 -7.5,0 z m 7.5,-20 7.5,0 0,10 -7.5,0 z m -7.5,0 7.5,0 0,10 -7.5,0 z m 7.5,-20 7.5,0 0,10 -7.5,0 z m -7.5,0 7.5,0 0,10 -7.5,0 z m -7.5,40 7.5,0 0,10 -7.5,0 z m 0,-10 7.5,0 0,10 -7.5,0 z m 0,-10 7.5,0 0,10 -7.5,0 z m 0,-10 7.5,0 0,10 -7.5,0 z m 0,-10 7.5,0 0,10 -7.5,0 z m -15,40 7.5,0 0,10 -7.5,0 z m -7.5,0 7.5,0 0,10 -7.5,0 z m 7.5,-20 7.5,0 0,10 -7.5,0 z m -7.5,0 7.5,0 0,10 -7.5,0 z m 7.5,-20 7.5,0 0,10 -7.5,0 z m -7.5,0 7.5,0 0,10 -7.5,0 z m -7.5,40 7.5,0 0,10 -7.5,0 z m 0,-10 7.5,0 0,10 -7.5,0 z m 0,-10 7.5,0 0,10 -7.5,0 z m 0,-10 7.5,0 0,10 -7.5,0 z m 0,-10 7.5,0 0,10 -7.5,0 z m -15,40 7.5,0 0,10 -7.5,0 z m 0,-10 7.5,0 0,10 -7.5,0 z m 0,-30 7.5,0 0,10 -7.5,0 z m 0,10 7.5,0 0,10 -7.5,0 z m -7.5,10 7.5,0 0,10 -7.5,0 z m -7.5,-20 7.5,0 0,50 -7.5,0 z"
       inkscape:connector-curvature="0" />
    <rect
       style="fill:#333333;fill-opacity:1;stroke:none"
       id="rect4478"
       width="25"
       height="100"
       x="275"
       y="827.36218" />
    <rect
       style="fill:#000000;fill-opacity:1;stroke:none"
       id="rect5290-3"
       width="25"
       height="25"
       x="375"
       y="927.36218" />
    <rect
       style="fill:#000000;fill-opacity:1;stroke:none"
       id="rect5290-1"
       width="25"
       height="25"
       x="400"
       y="952.36218" />
    <rect
       style="fill:#000000;fill-opacity:1;stroke:none"
       id="rect5290-19"
       width="25"
       height="25"
       x="375"
       y="977.36218" />
    <rect
       style="fill:#000000;fill-opacity:1;stroke:none"
       id="rect5290-32"
       width="25"
       height="25"
       x="350"
       y="952.36218" />
    <rect
       style="fill:#000000;fill-opacity:1;stroke:none"
       id="rect5290-3-7"
       width="25"
       height="25"
       x="175"
       y="927.36218" />
    <rect
       style="fill:#000000;fill-opacity:1;stroke:none"
       id="rect5290-1-7"
       width="25"
       height="25"
       x="200"
       y="952.36218" />
    <rect
       style="fill:#000000;fill-opacity:1;stroke:none"
       id="rect5290-19-2"
       width="25"
       height="25"
       x="175"
       y="977.36218" />
    <rect
       style="fill:#000000;fill-opacity:1;stroke:none"
       id="rect5290-32-2"
       width="25"
       height="25"
       x="150"
       y="952.36218" />
    <rect
       style="fill:#666666;fill-opacity:1;stroke:none"
       id="rect5290-1-7-6"
       width="25"
       height="25"
       x="225"
       y="952.36218" />
    <rect
       style="fill:#008080;fill-opacity:1;stroke:none"
       id="rect5290-1-7-9"
       width="25"
       height="25"
       x="175"
       y="952.36218" />
    <rect
       style="fill:#666666;fill-opacity:1;stroke:none"
       id="rect5290-1-7-8"
       width="25"
       height="25"
       x="325"
       y="952.36218" />
    <rect
       style="fill:#008080;fill-opacity:1;stroke:none"
       id="rect5290-1-7-2"
       width="25"
       height="25"
       x="375"
       y="952.36218" />
    <rect
       style="fill:#666666;fill-opacity:1;stroke:none"
       id="rect5290-1-7-6-5"
       width="25"
       height="25"
       x="225"
       y="927.36218" />
    <rect
       style="fill:#666666;fill-opacity:1;stroke:none"
       id="rect5290-1-7-6-9"
       width="25"
       height="25"
       x="250"
       y="902.36218" />
    <rect
       style="fill:#666666;fill-opacity:1;stroke:none"
       id="rect5290-1-7-6-1"
       width="25"
       height="25"
       x="300"
       y="902.36218" />
    <rect
       style="fill:#666666;fill-opacity:1;stroke:none"
       id="rect5290-1-7-6-2"
       width="25"
       height="25"
       x="325"
       y="927.36218" />
    <path
       inkscape:connector-curvature="0"
       style="fill:#00ffff;fill-opacity:1;stroke:none"
       d="m 150,802.36218 25,0 0,25 -25,0 z"
       id="path5808" />
    <path
       inkscape:connector-curvature="0"
       style="fill:#00ffff;fill-opacity:1;stroke:none"
       d="m 125,827.36218 25,0 0,25 -25,0 z"
       id="path5806" />
    <path
       inkscape:connector-curvature="0"
       style="fill:#00ffff;fill-opacity:1;stroke:none"
       d="m 100,852.36218 25,0 0,25 -25,0 z"
       id="path5804" />
    <path
       inkscape:connector-curvature="0"
       style="fill:#00ffff;fill-opacity:1;stroke:none"
       d="m 125,877.36218 25,0 0,25 -25,0 z"
       id="path5802" />
    <path
       inkscape:connector-curvature="0"
       style="fill:#666666;fill-opacity:1;stroke:none"
       d="m 175,902.36218 25,0 0,25 -25,0 z"
       id="path5800" />
    <path
       inkscape:connector-curvature="0"
       style="fill:#00ffff;fill-opacity:1;stroke:none"
       d="m 150,902.36218 25,0 0,25 -25,0 z"
       id="rect5290-1-6-5" />
    <path
       inkscape:connector-curvature="0"
       style="fill:#00ffff;fill-opacity:1;stroke:none"
       d="m 425,802.36218 -25,0 0,25 25,0 z"
       id="path5838" />
    <path
       inkscape:connector-curvature="0"
       style="fill:#00ffff;fill-opacity:1;stroke:none"
       d="m 450,827.36218 -25,0 0,25 25,0 z"
       id="path5836" />
    <path
       inkscape:connector-curvature="0"
       style="fill:#00ffff;fill-opacity:1;stroke:none"
       d="m 475,852.36218 -25,0 0,25 25,0 z"
       id="path5834" />
    <path
       inkscape:connector-curvature="0"
       style="fill:#00ffff;fill-opacity:1;stroke:none"
       d="m 450,877.36218 -25,0 0,25 25,0 z"
       id="path5832" />
    <path
       inkscape:connector-curvature="0"
       style="fill:#00ffff;fill-opacity:1;stroke:none"
       d="m 400,902.36218 25,0 0,25 -25,0 z"
       id="path5830" />
    <path
       inkscape:connector-curvature="0"
       style="fill:#666666;fill-opacity:1;stroke:none"
       d="m 375,902.36218 25,0 0,25 -25,0 z"
       id="rect5290-1-6-5-8" />
    <path
       inkscape:connector-curvature="0"
       style="fill:#666666;fill-opacity:1;stroke:none"
       d="m 200,877.36218 25,0 0,25 -25,0 z"
       id="path5800-8" />
    <path
       inkscape:connector-curvature="0"
       style="fill:#666666;fill-opacity:1;stroke:none"
       d="m 225,852.36218 25,0 0,25 -25,0 z"
       id="path5800-6" />
    <path
       inkscape:connector-curvature="0"
       style="fill:#666666;fill-opacity:1;stroke:none"
       d="m 250,827.36218 25,0 0,25 -25,0 z"
       id="path5800-2" />
    <path
       inkscape:connector-curvature="0"
       style="fill:#666666;fill-opacity:1;stroke:none"
       d="m 300,827.36218 25,0 0,25 -25,0 z"
       id="path5800-1" />
    <path
       inkscape:connector-curvature="0"
       style="fill:#666666;fill-opacity:1;stroke:none"
       d="m 325,852.36218 25,0 0,25 -25,0 z"
       id="path5800-4" />
    <path
       inkscape:connector-curvature="0"
       style="fill:#666666;fill-opacity:1;stroke:none"
       d="m 350,877.36218 25,0 0,25 -25,0 z"
       id="path5800-62" />
    <rect
       style="fill:#666666;fill-opacity:1;stroke:none"
       id="rect5290-1-7-6-5-9"
       width="25"
       height="25"
       x="225"
       y="977.36218" />
    <rect
       style="fill:#666666;fill-opacity:1;stroke:none"
       id="rect5290-1-7-6-5-1"
       width="25"
       height="25"
       x="250"
       y="1002.3622" />
    <rect
       style="fill:#666666;fill-opacity:1;stroke:none"
       id="rect5290-1-7-6-5-5"
       width="25"
       height="25"
       x="275"
       y="1002.3622" />
    <rect
       style="fill:#666666;fill-opacity:1;stroke:none"
       id="rect5290-1-7-6-5-0"
       width="25"
       height="25"
       x="300"
       y="1002.3622" />
    <rect
       style="fill:#666666;fill-opacity:1;stroke:none"
       id="rect5290-1-7-6-5-3"
       width="25"
       height="25"
       x="325"
       y="977.36218" />
    <rect
       style="fill:#ff8080;fill-opacity:1;stroke:none"
       id="rect5290-1-7-6-5-0-6"
       width="75"
       height="75"
       x="250"
       y="927.36218" />
    <rect
       style="fill:#ff0000;fill-opacity:1;stroke:none"
       id="rect5290-1-7-6-5-0-4"
       width="25"
       height="25"
       x="275"
       y="952.36218" />
    <rect
       style="fill:#000080;fill-opacity:1;stroke:none"
       id="rect3006-1"
       width="325"
       height="75"
       x="575"
       y="727.36218" />
    <rect
       style="fill:#00009b;fill-opacity:1;stroke:none"
       id="rect3008-7"
       width="250"
       height="24.999998"
       x="625"
       y="802.36218" />
    <path
       id="rect3407-60-5-4"
       style="fill:#ff0000;fill-opacity:1;stroke:none"
       d="m 852.5,777.36218 7.5,0 0,10 -7.5,0 z m 0,-40 7.5,0 0,30 -7.5,0 z m -22.5,0 7.5,0 0,50 -7.5,0 z m 7.5,0 7.5,0 0,10 -7.5,0 z m -15,0 7.5,0 0,10 -7.5,0 z m -15,0 7.5,0 0,10 -7.5,0 z m 0,10 7.5,0 0,10 -7.5,0 z m 0,10 7.5,0 0,10 -7.5,0 z m 0,10 7.5,0 0,10 -7.5,0 z m 0,10 7.5,0 0,10 -7.5,0 z m -7.5,0 7.5,0 0,10 -7.5,0 z m -7.5,-10 7.5,0 0,10 -7.5,0 z m 0,10 7.5,0 0,10 -7.5,0 z m 0,-20 7.5,0 0,10 -7.5,0 z m 0,-10 7.5,0 0,10 -7.5,0 z m 0,-10 7.5,0 0,10 -7.5,0 z m -22.5,0 7.5,0 0,10 -7.5,0 z m 7.5,0 7.5,0 0,10 -7.5,0 z m 0,10 7.5,0 0,10 -7.5,0 z m 0,10 7.5,0 0,10 -7.5,0 z m 0,10 7.5,0 0,10 -7.5,0 z m 0,10 7.5,0 0,10 -7.5,0 z m -7.5,0 7.5,0 0,10 -7.5,0 z m -7.5,0 7.5,0 0,10 -7.5,0 z m 0,-10 7.5,0 0,10 -7.5,0 z m 0,-10 7.5,0 0,10 -7.5,0 z m 0,-10 7.5,0 0,10 -7.5,0 z m 0,-10 7.5,0 0,10 -7.5,0 z m -30,20 7.5,0 0,10 -7.5,0 z m 7.5,0 7.5,0 0,10 -7.5,0 z m 0,-20 7.5,0 0,10 -7.5,0 z m 0,10 7.5,0 0,10 -7.5,0 z m -7.5,-10 7.5,0 0,10 -7.5,0 z m -7.5,0 7.5,0 0,50 -7.5,0 z m -15,40 7.5,0 0,10 -7.5,0 z m -7.5,0 7.5,0 0,10 -7.5,0 z m 7.5,-20 7.5,0 0,10 -7.5,0 z m -7.5,0 7.5,0 0,10 -7.5,0 z m 7.5,-20 7.5,0 0,10 -7.5,0 z m -7.5,0 7.5,0 0,10 -7.5,0 z m -7.5,40 7.5,0 0,10 -7.5,0 z m 0,-10 7.5,0 0,10 -7.5,0 z m 0,-10 7.5,0 0,10 -7.5,0 z m 0,-10 7.5,0 0,10 -7.5,0 z m 0,-10 7.5,0 0,10 -7.5,0 z m -15,40 7.5,0 0,10 -7.5,0 z m -7.5,0 7.5,0 0,10 -7.5,0 z m 7.5,-20 7.5,0 0,10 -7.5,0 z m -7.5,0 7.5,0 0,10 -7.5,0 z m 7.5,-20 7.5,0 0,10 -7.5,0 z m -7.5,0 7.5,0 0,10 -7.5,0 z m -7.5,40 7.5,0 0,10 -7.5,0 z m 0,-10 7.5,0 0,10 -7.5,0 z m 0,-10 7.5,0 0,10 -7.5,0 z m 0,-10 7.5,0 0,10 -7.5,0 z m 0,-10 7.5,0 0,10 -7.5,0 z m -15,40 7.5,0 0,10 -7.5,0 z m 0,-10 7.5,0 0,10 -7.5,0 z m 0,-30 7.5,0 0,10 -7.5,0 z m 0,10 7.5,0 0,10 -7.5,0 z m -7.5,10 7.5,0 0,10 -7.5,0 z m -7.5,-20 7.5,0 0,50 -7.5,0 z"
       inkscape:connector-curvature="0" />
    <rect
       style="fill:#333333;fill-opacity:1;stroke:none"
       id="rect4478-0"
       width="25"
       height="100"
       x="725"
       y="827.36218" />
    <rect
       style="fill:#000000;fill-opacity:1;stroke:none"
       id="rect5290-3-9"
       width="25"
       height="25"
       x="825"
       y="927.36218" />
    <rect
       style="fill:#000000;fill-opacity:1;stroke:none"
       id="rect5290-1-4"
       width="25"
       height="25"
       x="850"
       y="952.36218" />
    <rect
       style="fill:#000000;fill-opacity:1;stroke:none"
       id="rect5290-19-8"
       width="25"
       height="25"
       x="825"
       y="977.36218" />
    <rect
       style="fill:#000000;fill-opacity:1;stroke:none"
       id="rect5290-32-8"
       width="25"
       height="25"
       x="800"
       y="952.36218" />
    <rect
       style="fill:#000000;fill-opacity:1;stroke:none"
       id="rect5290-3-7-2"
       width="25"
       height="25"
       x="625"
       y="927.36218" />
    <rect
       style="fill:#000000;fill-opacity:1;stroke:none"
       id="rect5290-1-7-4"
       width="25"
       height="25"
       x="650"
       y="952.36218" />
    <rect
       style="fill:#000000;fill-opacity:1;stroke:none"
       id="rect5290-19-2-5"
       width="25"
       height="25"
       x="625"
       y="977.36218" />
    <rect
       style="fill:#000000;fill-opacity:1;stroke:none"
       id="rect5290-32-2-5"
       width="25"
       height="25"
       x="600"
       y="952.36218" />
    <rect
       style="fill:#666666;fill-opacity:1;stroke:none"
       id="rect5290-1-7-6-17"
       width="25"
       height="25"
       x="675"
       y="952.36218" />
    <rect
       style="fill:#39ffff;fill-opacity:1;stroke:none"
       id="rect5290-1-7-9-1"
       width="25"
       height="25"
       x="625"
       y="952.36218" />
    <rect
       style="fill:#666666;fill-opacity:1;stroke:none"
       id="rect5290-1-7-8-1"
       width="25"
       height="25"
       x="775"
       y="952.36218" />
    <rect
       style="fill:#008080;fill-opacity:1;stroke:none"
       id="rect5290-1-7-2-5"
       width="25"
       height="25"
       x="825"
       y="952.36218" />
    <rect
       style="fill:#666666;fill-opacity:1;stroke:none"
       id="rect5290-1-7-6-5-2"
       width="25"
       height="25"
       x="675"
       y="927.36218" />
    <rect
       style="fill:#666666;fill-opacity:1;stroke:none"
       id="rect5290-1-7-6-9-7"
       width="25"
       height="25"
       x="700"
       y="902.36218" />
    <rect
       style="fill:#666666;fill-opacity:1;stroke:none"
       id="rect5290-1-7-6-1-6"
       width="25"
       height="25"
       x="750"
       y="902.36218" />
    <rect
       style="fill:#666666;fill-opacity:1;stroke:none"
       id="rect5290-1-7-6-2-1"
       width="25"
       height="25"
       x="775"
       y="927.36218" />
    <path
       inkscape:connector-curvature="0"
       style="fill:#00ffff;fill-opacity:1;stroke:none"
       d="m 600,802.36218 25,0 0,25 -25,0 z"
       id="path5808-4" />
    <path
       inkscape:connector-curvature="0"
       style="fill:#00ffff;fill-opacity:1;stroke:none"
       d="m 575,827.36218 25,0 0,25 -25,0 z"
       id="path5806-2" />
    <path
       inkscape:connector-curvature="0"
       style="fill:#00ffff;fill-opacity:1;stroke:none"
       d="m 575,852.36218 25,0 0,25 -25,0 z"
       id="path5804-3" />
    <path
       inkscape:connector-curvature="0"
       style="fill:#00ffff;fill-opacity:1;stroke:none"
       d="m 575,877.36218 25,0 0,25 -25,0 z"
       id="path5802-2" />
    <path
       inkscape:connector-curvature="0"
       style="fill:#666666;fill-opacity:1;stroke:none"
       d="m 625,902.36218 25,0 0,25 -25,0 z"
       id="path5800-21" />
    <path
       inkscape:connector-curvature="0"
       style="fill:#00ffff;fill-opacity:1;stroke:none"
       d="m 600,902.36218 25,0 0,25 -25,0 z"
       id="rect5290-1-6-5-6" />
    <path
       inkscape:connector-curvature="0"
       style="fill:#00ffff;fill-opacity:1;stroke:none"
       d="m 875,802.36218 -25,0 0,25 25,0 z"
       id="path5838-8" />
    <path
       inkscape:connector-curvature="0"
       style="fill:#00ffff;fill-opacity:1;stroke:none"
       d="m 900,827.36218 -25,0 0,25 25,0 z"
       id="path5836-5" />
    <path
       inkscape:connector-curvature="0"
       style="fill:#00ffff;fill-opacity:1;stroke:none"
       d="m 925,852.36218 -25,0 0,25 25,0 z"
       id="path5834-7" />
    <path
       inkscape:connector-curvature="0"
       style="fill:#00ffff;fill-opacity:1;stroke:none"
       d="m 900,877.36218 -25,0 0,25 25,0 z"
       id="path5832-6" />
    <path
       inkscape:connector-curvature="0"
       style="fill:#00ffff;fill-opacity:1;stroke:none"
       d="m 850,902.36218 25,0 0,25 -25,0 z"
       id="path5830-1" />
    <path
       inkscape:connector-curvature="0"
       style="fill:#666666;fill-opacity:1;stroke:none"
       d="m 825,902.36218 25,0 0,25 -25,0 z"
       id="rect5290-1-6-5-8-8" />
    <path
       inkscape:connector-curvature="0"
       style="fill:#666666;fill-opacity:1;stroke:none"
       d="m 650,877.36218 25,0 0,25 -25,0 z"
       id="path5800-8-9" />
    <path
       inkscape:connector-curvature="0"
       style="fill:#666666;fill-opacity:1;stroke:none"
       d="m 675,852.36218 25,0 0,25 -25,0 z"
       id="path5800-6-2" />
    <path
       inkscape:connector-curvature="0"
       style="fill:#666666;fill-opacity:1;stroke:none"
       d="m 700,827.36218 25,0 0,25 -25,0 z"
       id="path5800-2-7" />
    <path
       inkscape:connector-curvature="0"
       style="fill:#666666;fill-opacity:1;stroke:none"
       d="m 750,827.36218 25,0 0,25 -25,0 z"
       id="path5800-1-9" />
    <path
       inkscape:connector-curvature="0"
       style="fill:#666666;fill-opacity:1;stroke:none"
       d="m 775,852.36218 25,0 0,25 -25,0 z"
       id="path5800-4-5" />
    <path
       inkscape:connector-curvature="0"
       style="fill:#666666;fill-opacity:1;stroke:none"
       d="m 800,877.36218 25,0 0,25 -25,0 z"
       id="path5800-62-4" />
    <rect
       style="fill:#666666;fill-opacity:1;stroke:none"
       id="rect5290-1-7-6-5-9-3"
       width="25"
       height="25"
       x="675"
       y="977.36218" />
    <rect
       style="fill:#666666;fill-opacity:1;stroke:none"
       id="rect5290-1-7-6-5-1-1"
       width="25"
       height="25"
       x="700"
       y="1002.3622" />
    <rect
       style="fill:#666666;fill-opacity:1;stroke:none"
       id="rect5290-1-7-6-5-5-2"
       width="25"
       height="25"
       x="725"
       y="1002.3622" />
    <rect
       style="fill:#666666;fill-opacity:1;stroke:none"
       id="rect5290-1-7-6-5-0-3"
       width="25"
       height="25"
       x="750"
       y="1002.3622" />
    <rect
       style="fill:#666666;fill-opacity:1;stroke:none"
       id="rect5290-1-7-6-5-3-3"
       width="25"
       height="25"
       x="775"
       y="977.36218" />
    <rect
       style="fill:#ff8080;fill-opacity:1;stroke:none"
       id="rect5290-1-7-6-5-0-6-4"
       width="75"
       height="75"
       x="700"
       y="927.36218" />
    <rect
       style="fill:#ff0000;fill-opacity:1;stroke:none"
       id="rect5290-1-7-6-5-0-4-1"
       width="25"
       height="25"
       x="725"
       y="952.36218" />
    <rect
       style="fill:#000080;fill-opacity:1;stroke:none"
       id="rect3006-13"
       width="325"
       height="75"
       x="1025"
       y="727.36218" />
    <rect
       style="fill:#00009b;fill-opacity:1;stroke:none"
       id="rect3008-8"
       width="250"
       height="24.999998"
       x="1075"
       y="802.36218" />
    <path
       id="rect3407-60-5-7"
       style="fill:#ff0000;fill-opacity:1;stroke:none"
       d="m 1302.5,777.36218 7.5,0 0,10 -7.5,0 z m 0,-40 7.5,0 0,30 -7.5,0 z m -22.5,0 7.5,0 0,50 -7.5,0 z m 7.5,0 7.5,0 0,10 -7.5,0 z m -15,0 7.5,0 0,10 -7.5,0 z m -15,0 7.5,0 0,10 -7.5,0 z m 0,10 7.5,0 0,10 -7.5,0 z m 0,10 7.5,0 0,10 -7.5,0 z m 0,10 7.5,0 0,10 -7.5,0 z m 0,10 7.5,0 0,10 -7.5,0 z m -7.5,0 7.5,0 0,10 -7.5,0 z m -7.5,-10 7.5,0 0,10 -7.5,0 z m 0,10 7.5,0 0,10 -7.5,0 z m 0,-20 7.5,0 0,10 -7.5,0 z m 0,-10 7.5,0 0,10 -7.5,0 z m 0,-10 7.5,0 0,10 -7.5,0 z m -22.5,0 7.5,0 0,10 -7.5,0 z m 7.5,0 7.5,0 0,10 -7.5,0 z m 0,10 7.5,0 0,10 -7.5,0 z m 0,10 7.5,0 0,10 -7.5,0 z m 0,10 7.5,0 0,10 -7.5,0 z m 0,10 7.5,0 0,10 -7.5,0 z m -7.5,0 7.5,0 0,10 -7.5,0 z m -7.5,0 7.5,0 0,10 -7.5,0 z m 0,-10 7.5,0 0,10 -7.5,0 z m 0,-10 7.5,0 0,10 -7.5,0 z m 0,-10 7.5,0 0,10 -7.5,0 z m 0,-10 7.5,0 0,10 -7.5,0 z m -30,20 7.5,0 0,10 -7.5,0 z m 7.5,0 7.5,0 0,10 -7.5,0 z m 0,-20 7.5,0 0,10 -7.5,0 z m 0,10 7.5,0 0,10 -7.5,0 z m -7.5,-10 7.5,0 0,10 -7.5,0 z m -7.5,0 7.5,0 0,50 -7.5,0 z m -15,40 7.5,0 0,10 -7.5,0 z m -7.5,0 7.5,0 0,10 -7.5,0 z m 7.5,-20 7.5,0 0,10 -7.5,0 z m -7.5,0 7.5,0 0,10 -7.5,0 z m 7.5,-20 7.5,0 0,10 -7.5,0 z m -7.5,0 7.5,0 0,10 -7.5,0 z m -7.5,40 7.5,0 0,10 -7.5,0 z m 0,-10 7.5,0 0,10 -7.5,0 z m 0,-10 7.5,0 0,10 -7.5,0 z m 0,-10 7.5,0 0,10 -7.5,0 z m 0,-10 7.5,0 0,10 -7.5,0 z m -15,40 7.5,0 0,10 -7.5,0 z m -7.5,0 7.5,0 0,10 -7.5,0 z m 7.5,-20 7.5,0 0,10 -7.5,0 z m -7.5,0 7.5,0 0,10 -7.5,0 z m 7.5,-20 7.5,0 0,10 -7.5,0 z m -7.5,0 7.5,0 0,10 -7.5,0 z m -7.5,40 7.5,0 0,10 -7.5,0 z m 0,-10 7.5,0 0,10 -7.5,0 z m 0,-10 7.5,0 0,10 -7.5,0 z m 0,-10 7.5,0 0,10 -7.5,0 z m 0,-10 7.5,0 0,10 -7.5,0 z m -15,40 7.5,0 0,10 -7.5,0 z m 0,-10 7.5,0 0,10 -7.5,0 z m 0,-30 7.5,0 0,10 -7.5,0 z m 0,10 7.5,0 0,10 -7.5,0 z m -7.5,10 7.5,0 0,10 -7.5,0 z m -7.5,-20 7.5,0 0,50 -7.5,0 z"
       inkscape:connector-curvature="0" />
    <rect
       style="fill:#333333;fill-opacity:1;stroke:none"
       id="rect4478-4"
       width="25"
       height="100"
       x="1175"
       y="827.36218" />
    <rect
       style="fill:#000000;fill-opacity:1;stroke:none"
       id="rect5290-3-2"
       width="25"
       height="25"
       x="1275"
       y="927.36218" />
    <rect
       style="fill:#000000;fill-opacity:1;stroke:none"
       id="rect5290-1-77"
       width="25"
       height="25"
       x="1300"
       y="952.36218" />
    <rect
       style="fill:#000000;fill-opacity:1;stroke:none"
       id="rect5290-19-9"
       width="25"
       height="25"
       x="1275"
       y="977.36218" />
    <rect
       style="fill:#000000;fill-opacity:1;stroke:none"
       id="rect5290-32-3"
       width="25"
       height="25"
       x="1250"
       y="952.36218" />
    <rect
       style="fill:#000000;fill-opacity:1;stroke:none"
       id="rect5290-3-7-1"
       width="25"
       height="25"
       x="1075"
       y="927.36218" />
    <rect
       style="fill:#000000;fill-opacity:1;stroke:none"
       id="rect5290-1-7-98"
       width="25"
       height="25"
       x="1100"
       y="952.36218" />
    <rect
       style="fill:#000000;fill-opacity:1;stroke:none"
       id="rect5290-19-2-6"
       width="25"
       height="25"
       x="1075"
       y="977.36218" />
    <rect
       style="fill:#000000;fill-opacity:1;stroke:none"
       id="rect5290-32-2-50"
       width="25"
       height="25"
       x="1050"
       y="952.36218" />
    <rect
       style="fill:#666666;fill-opacity:1;stroke:none"
       id="rect5290-1-7-6-28"
       width="25"
       height="25"
       x="1125"
       y="952.36218" />
    <rect
       style="fill:#008080;fill-opacity:1;stroke:none"
       id="rect5290-1-7-9-6"
       width="25"
       height="25"
       x="1075"
       y="952.36218" />
    <rect
       style="fill:#666666;fill-opacity:1;stroke:none"
       id="rect5290-1-7-8-0"
       width="25"
       height="25"
       x="1225"
       y="952.36218" />
    <rect
       style="fill:#008080;fill-opacity:1;stroke:none"
       id="rect5290-1-7-2-2"
       width="25"
       height="25"
       x="1275"
       y="952.36218" />
    <rect
       style="fill:#666666;fill-opacity:1;stroke:none"
       id="rect5290-1-7-6-5-4"
       width="25"
       height="25"
       x="1125"
       y="927.36218" />
    <rect
       style="fill:#666666;fill-opacity:1;stroke:none"
       id="rect5290-1-7-6-9-8"
       width="25"
       height="25"
       x="1150"
       y="902.36218" />
    <rect
       style="fill:#666666;fill-opacity:1;stroke:none"
       id="rect5290-1-7-6-1-65"
       width="25"
       height="25"
       x="1200"
       y="902.36218" />
    <rect
       style="fill:#666666;fill-opacity:1;stroke:none"
       id="rect5290-1-7-6-2-0"
       width="25"
       height="25"
       x="1225"
       y="927.36218" />
    <path
       inkscape:connector-curvature="0"
       style="fill:#00ffff;fill-opacity:1;stroke:none"
       d="m 1050,802.36218 25,0 0,25 -25,0 z"
       id="path5808-9" />
    <path
       inkscape:connector-curvature="0"
       style="fill:#00ffff;fill-opacity:1;stroke:none"
       d="m 1025,827.36218 25,0 0,25 -25,0 z"
       id="path5806-0" />
    <path
       inkscape:connector-curvature="0"
       style="fill:#00ffff;fill-opacity:1;stroke:none"
       d="m 1000,852.36218 25,0 0,25 -25,0 z"
       id="path5804-0" />
    <path
       inkscape:connector-curvature="0"
       style="fill:#00ffff;fill-opacity:1;stroke:none"
       d="m 1025,877.36218 25,0 0,25 -25,0 z"
       id="path5802-6" />
    <path
       inkscape:connector-curvature="0"
       style="fill:#666666;fill-opacity:1;stroke:none"
       d="m 1075,902.36218 25,0 0,25 -25,0 z"
       id="path5800-13" />
    <path
       inkscape:connector-curvature="0"
       style="fill:#00ffff;fill-opacity:1;stroke:none"
       d="m 1050,902.36218 25,0 0,25 -25,0 z"
       id="rect5290-1-6-5-89" />
    <path
       inkscape:connector-curvature="0"
       style="fill:#00ffff;fill-opacity:1;stroke:none"
       d="m 1325,802.36218 -25,0 0,25 25,0 z"
       id="path5838-3" />
    <path
       inkscape:connector-curvature="0"
       style="fill:#00ffff;fill-opacity:1;stroke:none"
       d="m 1350,827.36218 -25,0 0,25 25,0 z"
       id="path5836-4" />
    <path
       inkscape:connector-curvature="0"
       style="fill:#00ffff;fill-opacity:1;stroke:none"
       d="m 1375,852.36218 -25,0 0,25 25,0 z"
       id="path5834-4" />
    <path
       inkscape:connector-curvature="0"
       style="fill:#00ffff;fill-opacity:1;stroke:none"
       d="m 1350,877.36218 -25,0 0,25 25,0 z"
       id="path5832-60" />
    <path
       inkscape:connector-curvature="0"
       style="fill:#00ffff;fill-opacity:1;stroke:none"
       d="m 1300,902.36218 25,0 0,25 -25,0 z"
       id="path5830-6" />
    <path
       inkscape:connector-curvature="0"
       style="fill:#666666;fill-opacity:1;stroke:none"
       d="m 1275,902.36218 25,0 0,25 -25,0 z"
       id="rect5290-1-6-5-8-6" />
    <path
       inkscape:connector-curvature="0"
       style="fill:#666666;fill-opacity:1;stroke:none"
       d="m 1100,877.36218 25,0 0,25 -25,0 z"
       id="path5800-8-1" />
    <path
       inkscape:connector-curvature="0"
       style="fill:#666666;fill-opacity:1;stroke:none"
       d="m 1125,852.36218 25,0 0,25 -25,0 z"
       id="path5800-6-8" />
    <path
       inkscape:connector-curvature="0"
       style="fill:#666666;fill-opacity:1;stroke:none"
       d="m 1150,827.36218 25,0 0,25 -25,0 z"
       id="path5800-2-4" />
    <path
       inkscape:connector-curvature="0"
       style="fill:#666666;fill-opacity:1;stroke:none"
       d="m 1200,827.36218 25,0 0,25 -25,0 z"
       id="path5800-1-96" />
    <path
       inkscape:connector-curvature="0"
       style="fill:#666666;fill-opacity:1;stroke:none"
       d="m 1225,852.36218 25,0 0,25 -25,0 z"
       id="path5800-4-3" />
    <path
       inkscape:connector-curvature="0"
       style="fill:#666666;fill-opacity:1;stroke:none"
       d="m 1250,877.36218 25,0 0,25 -25,0 z"
       id="path5800-62-7" />
    <rect
       style="fill:#666666;fill-opacity:1;stroke:none"
       id="rect5290-1-7-6-5-9-8"
       width="25"
       height="25"
       x="1125"
       y="977.36218" />
    <rect
       style="fill:#666666;fill-opacity:1;stroke:none"
       id="rect5290-1-7-6-5-1-8"
       width="25"
       height="25"
       x="1150"
       y="1002.3622" />
    <rect
       style="fill:#666666;fill-opacity:1;stroke:none"
       id="rect5290-1-7-6-5-5-29"
       width="25"
       height="25"
       x="1175"
       y="1002.3622" />
    <rect
       style="fill:#666666;fill-opacity:1;stroke:none"
       id="rect5290-1-7-6-5-0-1"
       width="25"
       height="25"
       x="1200"
       y="1002.3622" />
    <rect
       style="fill:#666666;fill-opacity:1;stroke:none"
       id="rect5290-1-7-6-5-3-35"
       width="25"
       height="25"
       x="1225"
       y="977.36218" />
    <rect
       style="fill:#ff8080;fill-opacity:1;stroke:none"
       id="rect5290-1-7-6-5-0-6-9"
       width="75"
       height="75"
       x="1150"
       y="927.36218" />
    <rect
       style="fill:#ff0000;fill-opacity:1;stroke:none"
       id="rect5290-1-7-6-5-0-4-8"
       width="25"
       height="25"
       x="1175"
       y="952.36218" />
    <path
       id="rect5290-1-7-9-1-2-0"
       style="fill:#51b7ff;fill-opacity:1;stroke:none"
       d="m 575,952.36218 25,0 0,25 -25,0 z m 100,0 25,0 0,25 -25,0 z m -75,0 25,0 0,25 -25,0 z m -25,-50 25,0 0,25 -25,0 z m 25,25 25,0 0,25 -25,0 z m 0,50 25,0 0,25.00002 -25,0 z m -25,25.00002 25,0 0,25 -25,0 z m 100,0 25,0 0,25 -25,0 z m -25,-25.00002 25,0 0,25.00002 -25,0 z m 0,-25 25,0 0,25 -25,0 z m -25,-25 25,0 0,25 -25,0 z m 0,-25 25,0 0,25 -25,0 z m 50,0 25,0 0,25 -25,0 z m -25,25 25,0 0,25 -25,0 z m -25,75.00002 25,0 0,25 -25,0 z m 0,-25.00002 25,0 0,25.00002 -25,0 z" />
    <path
       inkscape:connector-curvature="0"
       id="rect5290-1-7-9-1-2-0-8"
       style="fill:#51b7ff;fill-opacity:1;stroke:none"
       d="m 775,952.36218 25,0 0,25 -25,0 z m 100,0 25,0 0,25 -25,0 z m -75,0 25,0 0,25 -25,0 z m -25,-50 25,0 0,25 -25,0 z m 25,25 25,0 0,25 -25,0 z m 0,50 25,0 0,25.00002 -25,0 z m -25,25.00002 25,0 0,25 -25,0 z m 100,0 25,0 0,25 -25,0 z m -25,-25.00002 25,0 0,25.00002 -25,0 z m 0,-25 25,0 0,25 -25,0 z m -25,-25 25,0 0,25 -25,0 z m 0,-25 25,0 0,25 -25,0 z m 50,0 25,0 0,25 -25,0 z m -25,25 25,0 0,25 -25,0 z m -25,75.00002 25,0 0,25 -25,0 z m 0,-25.00002 25,0 0,25.00002 -25,0 z" />
    <rect
       style="fill:#39ffff;fill-opacity:1;stroke:none"
       id="rect5290-1-7-9-1-0"
       width="25"
       height="25"
       x="825"
       y="952.36218" />
  </g>
</svg>
