<?xml version="1.0" encoding="UTF-8" standalone="no"?>
<!-- Created with Inkscape (http://www.inkscape.org/) -->

<svg
   xmlns:dc="http://purl.org/dc/elements/1.1/"
   xmlns:cc="http://creativecommons.org/ns#"
   xmlns:rdf="http://www.w3.org/1999/02/22-rdf-syntax-ns#"
   xmlns:svg="http://www.w3.org/2000/svg"
   xmlns="http://www.w3.org/2000/svg"
   xmlns:sodipodi="http://sodipodi.sourceforge.net/DTD/sodipodi-0.dtd"
   xmlns:inkscape="http://www.inkscape.org/namespaces/inkscape"
   width="575"
   height="325"
   id="svg2996"
   version="1.1"
   inkscape:version="0.48.5 r10040"
   sodipodi:docname="turret.svg"
   inkscape:export-filename="H:\AdventureTime\ProgrammingTime\team-project\Assets\Textures\arts\characters\enemies\turret.png"
   inkscape:export-xdpi="90"
   inkscape:export-ydpi="90">
  <defs
     id="defs2998" />
  <sodipodi:namedview
     id="base"
     pagecolor="#ffffff"
     bordercolor="#666666"
     borderopacity="1.0"
     inkscape:pageopacity="0.0"
     inkscape:pageshadow="2"
     inkscape:zoom="2.2235194"
     inkscape:cx="36.056028"
     inkscape:cy="337.57907"
     inkscape:document-units="px"
     inkscape:current-layer="layer1"
     showgrid="true"
     inkscape:showpageshadow="false"
     inkscape:window-width="1215"
     inkscape:window-height="1002"
     inkscape:window-x="57"
     inkscape:window-y="-8"
     inkscape:window-maximized="1">
    <inkscape:grid
       type="xygrid"
       id="grid3004"
       empspacing="1"
       visible="true"
       enabled="true"
       snapvisiblegridlinesonly="true"
       spacingx="25px"
       spacingy="25px" />
  </sodipodi:namedview>
  <metadata
     id="metadata3001">
    <rdf:RDF>
      <cc:Work
         rdf:about="">
        <dc:format>image/svg+xml</dc:format>
        <dc:type
           rdf:resource="http://purl.org/dc/dcmitype/StillImage" />
        <dc:title />
      </cc:Work>
    </rdf:RDF>
  </metadata>
  <g
     inkscape:label="Layer 1"
     inkscape:groupmode="layer"
     id="layer1"
     transform="translate(0,-727.36218)">
    <rect
       style="fill:#000080;fill-opacity:1;stroke:none"
       id="rect3006"
       width="325"
       height="75"
       x="125"
       y="727.36218" />
    <rect
       style="fill:#00009b;fill-opacity:1;stroke:none"
       id="rect3008"
       width="250"
       height="24.999998"
       x="175"
       y="802.36218" />
    <path
       id="rect3407-60-5"
       style="fill:#ff0000;fill-opacity:1;stroke:none"
       d="m 402.5,777.36218 7.5,0 0,10 -7.5,0 z m 0,-40 7.5,0 0,30 -7.5,0 z m -22.5,0 7.5,0 0,50 -7.5,0 z m 7.5,0 7.5,0 0,10 -7.5,0 z m -15,0 7.5,0 0,10 -7.5,0 z m -15,0 7.5,0 0,10 -7.5,0 z m 0,10 7.5,0 0,10 -7.5,0 z m 0,10 7.5,0 0,10 -7.5,0 z m 0,10 7.5,0 0,10 -7.5,0 z m 0,10 7.5,0 0,10 -7.5,0 z m -7.5,0 7.5,0 0,10 -7.5,0 z m -7.5,-10 7.5,0 0,10 -7.5,0 z m 0,10 7.5,0 0,10 -7.5,0 z m 0,-20 7.5,0 0,10 -7.5,0 z m 0,-10 7.5,0 0,10 -7.5,0 z m 0,-10 7.5,0 0,10 -7.5,0 z m -22.5,0 7.5,0 0,10 -7.5,0 z m 7.5,0 7.5,0 0,10 -7.5,0 z m 0,10 7.5,0 0,10 -7.5,0 z m 0,10 7.5,0 0,10 -7.5,0 z m 0,10 7.5,0 0,10 -7.5,0 z m 0,10 7.5,0 0,10 -7.5,0 z m -7.5,0 7.5,0 0,10 -7.5,0 z m -7.5,0 7.5,0 0,10 -7.5,0 z m 0,-10 7.5,0 0,10 -7.5,0 z m 0,-10 7.5,0 0,10 -7.5,0 z m 0,-10 7.5,0 0,10 -7.5,0 z m 0,-10 7.5,0 0,10 -7.5,0 z m -30,20 7.5,0 0,10 -7.5,0 z m 7.5,0 7.5,0 0,10 -7.5,0 z m 0,-20 7.5,0 0,10 -7.5,0 z m 0,10 7.5,0 0,10 -7.5,0 z m -7.5,-10 7.5,0 0,10 -7.5,0 z m -7.5,0 7.5,0 0,50 -7.5,0 z m -15,40 7.5,0 0,10 -7.5,0 z m -7.5,0 7.5,0 0,10 -7.5,0 z m 7.5,-20 7.5,0 0,10 -7.5,0 z m -7.5,0 7.5,0 0,10 -7.5,0 z m 7.5,-20 7.5,0 0,10 -7.5,0 z m -7.5,0 7.5,0 0,10 -7.5,0 z m -7.5,40 7.5,0 0,10 -7.5,0 z m 0,-10 7.5,0 0,10 -7.5,0 z m 0,-10 7.5,0 0,10 -7.5,0 z m 0,-10 7.5,0 0,10 -7.5,0 z m 0,-10 7.5,0 0,10 -7.5,0 z m -15,40 7.5,0 0,10 -7.5,0 z m -7.5,0 7.5,0 0,10 -7.5,0 z m 7.5,-20 7.5,0 0,10 -7.5,0 z m -7.5,0 7.5,0 0,10 -7.5,0 z m 7.5,-20 7.5,0 0,10 -7.5,0 z m -7.5,0 7.5,0 0,10 -7.5,0 z m -7.5,40 7.5,0 0,10 -7.5,0 z m 0,-10 7.5,0 0,10 -7.5,0 z m 0,-10 7.5,0 0,10 -7.5,0 z m 0,-10 7.5,0 0,10 -7.5,0 z m 0,-10 7.5,0 0,10 -7.5,0 z m -15,40 7.5,0 0,10 -7.5,0 z m 0,-10 7.5,0 0,10 -7.5,0 z m 0,-30 7.5,0 0,10 -7.5,0 z m 0,10 7.5,0 0,10 -7.5,0 z m -7.5,10 7.5,0 0,10 -7.5,0 z m -7.5,-20 7.5,0 0,50 -7.5,0 z"
       inkscape:connector-curvature="0" />
    <rect
       style="fill:#333333;fill-opacity:1;stroke:none"
       id="rect4478"
       width="25"
       height="100"
       x="275"
       y="827.36218" />
    <rect
       style="fill:#000000;fill-opacity:1;stroke:none"
       id="rect5290-3"
       width="25"
       height="25"
       x="375"
       y="927.36218" />
    <rect
       style="fill:#000000;fill-opacity:1;stroke:none"
       id="rect5290-1"
       width="25"
       height="25"
       x="400"
       y="952.36218" />
    <rect
       style="fill:#000000;fill-opacity:1;stroke:none"
       id="rect5290-19"
       width="25"
       height="25"
       x="375"
       y="977.36218" />
    <rect
       style="fill:#000000;fill-opacity:1;stroke:none"
       id="rect5290-32"
       width="25"
       height="25"
       x="350"
       y="952.36218" />
    <rect
       style="fill:#000000;fill-opacity:1;stroke:none"
       id="rect5290-3-7"
       width="25"
       height="25"
       x="175"
       y="927.36218" />
    <rect
       style="fill:#000000;fill-opacity:1;stroke:none"
       id="rect5290-1-7"
       width="25"
       height="25"
       x="200"
       y="952.36218" />
    <rect
       style="fill:#000000;fill-opacity:1;stroke:none"
       id="rect5290-19-2"
       width="25"
       height="25"
       x="175"
       y="977.36218" />
    <rect
       style="fill:#000000;fill-opacity:1;stroke:none"
       id="rect5290-32-2"
       width="25"
       height="25"
       x="150"
       y="952.36218" />
    <rect
       style="fill:#666666;fill-opacity:1;stroke:none"
       id="rect5290-1-7-6"
       width="25"
       height="25"
       x="225"
       y="952.36218" />
    <rect
       style="fill:#008080;fill-opacity:1;stroke:none"
       id="rect5290-1-7-9"
       width="25"
       height="25"
       x="175"
       y="952.36218" />
    <rect
       style="fill:#666666;fill-opacity:1;stroke:none"
       id="rect5290-1-7-8"
       width="25"
       height="25"
       x="325"
       y="952.36218" />
    <rect
       style="fill:#008080;fill-opacity:1;stroke:none"
       id="rect5290-1-7-2"
       width="25"
       height="25"
       x="375"
       y="952.36218" />
    <rect
       style="fill:#666666;fill-opacity:1;stroke:none"
       id="rect5290-1-7-6-5"
       width="25"
       height="25"
       x="225"
       y="927.36218" />
    <rect
       style="fill:#666666;fill-opacity:1;stroke:none"
       id="rect5290-1-7-6-9"
       width="25"
       height="25"
       x="250"
       y="902.36218" />
    <rect
       style="fill:#666666;fill-opacity:1;stroke:none"
       id="rect5290-1-7-6-1"
       width="25"
       height="25"
       x="300"
       y="902.36218" />
    <rect
       style="fill:#666666;fill-opacity:1;stroke:none"
       id="rect5290-1-7-6-2"
       width="25"
       height="25"
       x="325"
       y="927.36218" />
    <path
       style="fill:#00ffff;fill-opacity:1;stroke:none"
       d="m 150,802.36218 25,0 0,25 -25,0 z"
       id="path5808" />
    <path
       style="fill:#00ffff;fill-opacity:1;stroke:none"
       d="m 125,827.36218 25,0 0,25 -25,0 z"
       id="path5806" />
    <path
       style="fill:#00ffff;fill-opacity:1;stroke:none"
       d="m 100,852.36218 25,0 0,25 -25,0 z"
       id="path5804" />
    <path
       style="fill:#00ffff;fill-opacity:1;stroke:none"
       d="m 125,877.36218 25,0 0,25 -25,0 z"
       id="path5802" />
    <path
       style="fill:#666666;fill-opacity:1;stroke:none"
       d="m 175,902.36218 25,0 0,25 -25,0 z"
       id="path5800" />
    <path
       style="fill:#00ffff;fill-opacity:1;stroke:none"
       d="m 150,902.36218 25,0 0,25 -25,0 z"
       id="rect5290-1-6-5" />
    <path
       style="fill:#00ffff;fill-opacity:1;stroke:none"
       d="m 425,802.36218 -25,0 0,25 25,0 z"
       id="path5838" />
    <path
       style="fill:#00ffff;fill-opacity:1;stroke:none"
       d="m 450,827.36218 -25,0 0,25 25,0 z"
       id="path5836" />
    <path
       style="fill:#00ffff;fill-opacity:1;stroke:none"
       d="m 475,852.36218 -25,0 0,25 25,0 z"
       id="path5834" />
    <path
       style="fill:#00ffff;fill-opacity:1;stroke:none"
       d="m 450,877.36218 -25,0 0,25 25,0 z"
       id="path5832" />
    <path
       style="fill:#00ffff;fill-opacity:1;stroke:none"
       d="m 400,902.36218 25,0 0,25 -25,0 z"
       id="path5830" />
    <path
       style="fill:#666666;fill-opacity:1;stroke:none"
       d="m 375,902.36218 25,0 0,25 -25,0 z"
       id="rect5290-1-6-5-8" />
    <path
       inkscape:connector-curvature="0"
       style="fill:#666666;fill-opacity:1;stroke:none"
       d="m 200,877.36218 25,0 0,25 -25,0 z"
       id="path5800-8" />
    <path
       inkscape:connector-curvature="0"
       style="fill:#666666;fill-opacity:1;stroke:none"
       d="m 225,852.36218 25,0 0,25 -25,0 z"
       id="path5800-6" />
    <path
       inkscape:connector-curvature="0"
       style="fill:#666666;fill-opacity:1;stroke:none"
       d="m 250,827.36218 25,0 0,25 -25,0 z"
       id="path5800-2" />
    <path
       inkscape:connector-curvature="0"
       style="fill:#666666;fill-opacity:1;stroke:none"
       d="m 300,827.36218 25,0 0,25 -25,0 z"
       id="path5800-1" />
    <path
       inkscape:connector-curvature="0"
       style="fill:#666666;fill-opacity:1;stroke:none"
       d="m 325,852.36218 25,0 0,25 -25,0 z"
       id="path5800-4" />
    <path
       inkscape:connector-curvature="0"
       style="fill:#666666;fill-opacity:1;stroke:none"
       d="m 350,877.36218 25,0 0,25 -25,0 z"
       id="path5800-62" />
    <rect
       style="fill:#666666;fill-opacity:1;stroke:none"
       id="rect5290-1-7-6-5-9"
       width="25"
       height="25"
       x="225"
       y="977.36218" />
    <rect
       style="fill:#666666;fill-opacity:1;stroke:none"
       id="rect5290-1-7-6-5-1"
       width="25"
       height="25"
       x="250"
       y="1002.3622" />
    <rect
       style="fill:#666666;fill-opacity:1;stroke:none"
       id="rect5290-1-7-6-5-5"
       width="25"
       height="25"
       x="275"
       y="1002.3622" />
    <rect
       style="fill:#666666;fill-opacity:1;stroke:none"
       id="rect5290-1-7-6-5-0"
       width="25"
       height="25"
       x="300"
       y="1002.3622" />
    <rect
       style="fill:#666666;fill-opacity:1;stroke:none"
       id="rect5290-1-7-6-5-3"
       width="25"
       height="25"
       x="325"
       y="977.36218" />
    <rect
       style="fill:#ff8080;fill-opacity:1;stroke:none"
       id="rect5290-1-7-6-5-0-6"
       width="75"
       height="75"
       x="250"
       y="927.36218" />
    <rect
       style="fill:#ff0000;fill-opacity:1;stroke:none"
       id="rect5290-1-7-6-5-0-4"
       width="25"
       height="25"
       x="275"
       y="952.36218" />
  </g>
</svg>
